<svg width="431" height="422" viewBox="0 0 431 422" fill="none" xmlns="http://www.w3.org/2000/svg">
<path d="M339.97 347.095C339.24 348.073 338.533 348.982 337.866 349.92C335.771 352.868 333.398 355.476 330.407 357.623C327.673 359.584 325.139 361.906 322.833 364.365C318.206 369.297 312.563 371.399 305.923 371.181C305.22 371.158 304.5 371.235 303.817 371.108C302.052 370.779 300.854 371.437 299.661 372.768C297.456 375.228 295.098 377.566 292.659 379.795C290.743 381.546 288.725 383.241 286.543 384.632C282.993 386.894 279.464 389.399 275.573 390.863C270.855 392.639 265.811 393.655 260.834 394.613C252.592 396.199 244.282 395.681 236 394.743C231.03 394.18 226.055 393.639 221.105 392.927C216.392 392.249 211.757 391.212 207.408 389.143C206.182 388.56 204.871 388.116 203.556 387.78C202.913 387.616 202.083 387.659 201.485 387.931C198.818 389.143 196.254 390.587 193.56 391.731C189.761 393.345 185.685 393.586 181.626 393.565C170.886 393.51 160.239 392.559 149.896 389.47C139.283 386.3 130.208 380.488 122.474 372.66C118.934 369.077 115.686 365.135 114.428 360.042C114.128 358.827 114.007 357.509 114.115 356.265C114.266 354.524 115.301 353.765 117.028 354.052C118.4 354.279 119.742 354.726 121.07 355.158C121.838 355.408 122.552 355.822 123.517 356.266C123.334 355.658 123.246 355.269 123.103 354.902C121.767 351.475 121.117 347.887 121.034 344.246C120.998 342.661 121.42 340.955 122.064 339.494C122.882 337.637 124.317 337.394 126.057 338.491C127.381 339.327 128.654 340.245 130.198 341.294C129.992 340.571 129.785 340.065 129.71 339.541C129.382 337.265 128.87 334.984 128.858 332.703C128.848 330.761 129.607 330.312 131.527 330.687C132.575 330.891 133.553 331.457 134.754 331.936C133.872 330.376 133.187 328.714 132.117 327.356C129.014 323.419 127.986 318.745 127.196 314.011C126.538 310.068 125.446 306.31 123.873 302.632C120.251 294.16 117.678 285.376 116.738 276.176C116.448 273.343 116.379 270.487 116.223 267.642C116.146 266.23 116.058 264.908 114.698 263.938C114.164 263.556 113.801 262.573 113.803 261.865C113.812 258.898 113.904 255.925 114.12 252.965C114.845 243.02 117.848 233.568 120.867 224.179C122.332 219.621 124.896 215.409 127.04 211.079C128.424 208.284 129.947 205.558 131.407 202.801C131.333 202.727 131.258 202.653 131.184 202.578C120.712 206.023 110.24 209.468 99.7679 212.913C99.7159 212.766 99.6629 212.62 99.6109 212.473C100.437 212.129 101.249 211.743 102.092 211.448C111.769 208.065 121.447 204.685 131.138 201.342C131.994 201.047 132.553 200.618 132.898 199.783C134.019 197.079 135.184 194.392 136.483 191.344C124.804 194.53 113.467 197.623 102.13 200.716C102.09 200.59 102.049 200.463 102.009 200.337C102.435 200.163 102.85 199.95 103.289 199.821C114.077 196.664 124.861 193.491 135.669 190.402C136.917 190.045 137.49 189.61 137.354 188.253C137.146 186.174 137.082 184.081 136.941 181.724C125.988 182.911 115.287 184.07 104.586 185.23C104.567 185.116 104.549 185.002 104.53 184.888C107.1 184.411 109.654 183.812 112.242 183.479C119.949 182.489 127.667 181.582 135.388 180.704C136.475 180.58 137.048 180.236 137.08 179.105C137.113 177.914 137.321 176.717 137.248 175.536C137.133 173.687 136.018 172.372 134.674 171.177C132.619 169.349 132.24 167.211 133.587 164.727C134.531 162.987 135.649 161.338 136.729 159.675C137.314 158.775 137.147 158.122 136.108 157.968C133.159 157.53 132.512 155.329 133.705 152.536C135.006 149.493 136.565 146.355 138.768 143.952C141.92 140.513 142.871 136.736 142.538 132.349C142.39 130.407 141.336 128.926 140.072 127.602C137.587 124.999 135.087 122.406 132.489 119.919C125.399 113.133 118.502 106.145 112.411 98.4546C104.933 89.0136 98.9869 78.6746 96.0559 66.8576C95.2129 63.4596 94.4929 59.9696 94.2889 56.4886C93.8529 49.0776 95.8599 42.6026 102.745 38.5856C105.993 36.6906 109.595 35.8046 113.325 35.9226C121.532 36.1806 129.481 37.7626 137.047 41.0656C139.231 42.0186 141.456 42.8786 143.75 43.8176C143.198 42.0166 142.599 40.3176 142.157 38.5796C139.535 28.2626 138.278 17.8686 140.622 7.30756C140.835 6.34656 141.146 5.38656 141.557 4.49256C143.115 1.10256 146.025 -0.382443 149.74 0.0835572C153.89 0.604557 157.765 2.01256 161.609 3.54656C168.378 6.24656 174.19 10.4496 179.749 15.0656C187.971 21.8936 194.623 30.0276 200.534 38.9126C206.641 48.0926 210.947 58.0576 214.776 68.3036C217.264 74.9626 219.833 81.5916 222.444 88.2036C223.186 90.0816 224.214 91.8466 225.09 93.6726C225.558 94.6476 226.355 94.9796 227.379 95.0896C230.827 95.4606 234.336 95.5926 237.699 96.3556C243.197 97.6036 248.275 99.8806 252.412 103.912C254.801 106.24 256.387 108.974 256.925 112.274C257.113 113.427 257.683 114.278 258.67 114.842C259.961 115.58 261.26 116.306 262.585 116.979C264.04 117.719 265.046 118.798 265.827 120.258C266.571 121.65 267.564 122.943 268.619 124.126C270.536 126.277 271.265 128.848 271.603 131.598C271.719 132.542 271.799 133.49 271.901 134.435C272.172 136.931 273.588 138.761 275.307 140.454C276.618 141.745 277.828 143.14 279.116 144.525C286.948 137.717 294.975 130.739 303.003 123.761C303.151 123.917 303.299 124.072 303.447 124.228C302.833 124.793 302.222 125.36 301.605 125.922C294.507 132.381 287.432 138.866 280.292 145.277C278.801 146.616 279.217 148.304 279.171 149.852C279.141 150.881 281.911 151.526 282.993 150.834C287.106 148.207 291.168 145.496 295.333 142.954C301.474 139.206 307.679 135.561 313.877 131.909C314.902 131.305 316.034 130.883 317.117 130.377C317.19 130.498 317.263 130.619 317.336 130.74C306.02 137.715 294.704 144.69 283.297 151.722C284.878 153.365 284.621 155.167 284.166 156.964C283.732 158.675 283.212 160.364 282.65 162.344C296.931 156.166 310.966 150.095 325 144.024C325.08 144.206 325.16 144.388 325.24 144.57C311.35 151.317 297.033 157.131 282.898 163.511C283.038 163.886 283.138 164.19 283.263 164.484C283.987 166.191 284.113 167.892 283.42 169.663C282.579 171.812 281.825 173.996 281.053 176.172C280.949 176.464 280.844 176.838 280.938 177.105C282.39 181.243 281.316 184.825 278.57 188.04C277.962 188.752 277.616 189.311 278.008 190.415C278.298 191.232 277.908 192.454 277.484 193.334C275.45 197.563 272.136 200.744 268.66 203.775C266.318 205.817 266.636 205.082 268.025 207.588C268.684 208.778 269.546 209.854 270.244 211.024C270.871 212.075 271.773 212.338 272.87 212.103C275.085 211.627 277.278 211.045 279.503 210.626C285.824 209.435 292.198 208.597 298.599 209.763C308.153 211.503 314.455 217.202 317.657 226.28C318.347 228.236 318.468 230.405 318.728 232.492C318.818 233.214 319.012 233.647 319.703 233.827C320.692 234.085 321.667 234.442 322.672 234.578C326.596 235.111 330.375 236.084 333.87 237.999C336.639 239.516 337.781 242.145 338.616 244.978C338.721 245.335 338.798 245.699 338.898 246.057C338.918 246.13 338.984 246.19 339.069 246.315C339.277 246.293 339.522 246.293 339.755 246.238C345.499 244.886 349.961 247.275 353.968 251.062C355.486 252.497 356.689 254.106 357.698 255.958C358.4 257.247 359.507 258.535 360.759 259.266C365.143 261.829 366.653 265.601 365.821 270.395C365.446 272.555 366.014 274.071 367.789 275.292C369.922 276.759 370.976 278.895 370.935 281.443C370.867 285.7 370.647 289.954 370.502 294.209C370.476 294.984 370.498 295.761 370.498 296.882C371.198 296.269 371.786 295.855 372.251 295.332C374.477 292.829 376.631 290.261 378.89 287.789C379.999 286.576 381.227 285.457 382.495 284.409C385.783 281.692 390.987 283.454 390.884 288.314C391.855 287.855 392.782 287.324 393.772 286.964C398.294 285.318 402.067 288.348 401.539 293.184C401.432 294.161 401.231 295.128 401.075 296.088C403.503 296.875 404.333 298.58 403.873 301.523C403.56 303.527 402.757 305.308 401.697 307.011C399.26 310.926 396.535 314.632 393.13 317.743C388.341 322.118 383.574 326.546 378.485 330.556C374.442 333.742 370.027 336.496 365.601 339.147C361.28 341.735 356.769 344.019 352.269 346.293C350.516 347.178 348.607 347.849 346.694 348.297C344.371 348.842 341.992 348.94 339.97 347.095ZM178.028 370.962C178.187 370.795 178.345 370.628 178.504 370.461C179.102 370.897 179.762 371.269 180.289 371.779C183.801 375.174 187.281 378.633 191.769 380.744C196.253 382.854 200.736 384.989 205.57 386.25C206.724 386.551 207.803 387.124 208.943 387.491C211.612 388.352 214.243 389.493 216.984 389.933C223.836 391.034 230.723 391.993 237.629 392.667C246.622 393.544 255.633 393.737 264.531 391.631C268.872 390.604 273.307 389.845 277.238 387.566C279.883 386.032 282.561 384.523 285.049 382.756C287.464 381.04 289.818 379.173 291.911 377.083C296.151 372.85 300.163 368.388 304.334 364.084C307.959 360.343 311.023 356.207 313.471 351.617C314.569 349.558 315.032 347.352 314.548 345.031C314.131 343.034 312.636 342.262 310.722 342.976C310.211 343.167 309.69 343.33 308.976 343.574C309.308 342.056 310.078 341.164 311.25 340.89C312.315 340.641 312.514 340.021 312.585 339.147C312.635 338.53 312.691 337.91 312.8 337.301C314.003 330.592 307.437 327.567 303.126 329.243C301.261 329.968 299.543 331.098 297.815 332.138C296.681 332.82 296.008 333.833 295.928 335.26C295.896 335.825 295.377 336.362 295.08 336.912C294.912 336.855 294.744 336.799 294.577 336.742C294.577 336.27 294.56 335.798 294.581 335.328C294.605 334.792 294.703 334.257 294.697 333.723C294.675 331.905 293.994 331.19 292.171 331.366C291.129 331.466 290.063 331.799 289.11 332.246C285.597 333.894 282.594 336.3 279.66 338.803C277.018 341.056 274.362 343.294 271.649 345.459C270.94 346.024 269.995 346.292 269.158 346.697C269.055 346.542 268.952 346.387 268.849 346.232C269.324 345.695 269.747 345.099 270.282 344.632C272.121 343.028 274.009 341.481 275.851 339.881C276.134 339.635 276.507 339.186 276.453 338.906C275.995 336.568 275.079 334.443 273.005 332.576C271.639 334.686 270.122 336.66 269.007 338.839C267.192 342.384 263.058 345.15 259.296 344.733C256.186 344.388 253.996 345.566 252.477 348.174C251.458 349.924 250.58 351.76 249.512 353.479C248.19 355.608 246.451 357.443 243.836 357.673C241.037 357.919 238.344 357.279 235.933 355.655C233.448 353.981 231.807 351.621 230.374 349.087C227.822 344.574 224.848 340.444 220.368 337.62C217.666 335.917 216.236 333.339 215.232 330.4C213.899 326.495 214.424 322.502 214.746 318.583C215.251 312.458 217.954 307.097 221.428 302.108C221.734 301.668 222.021 301.215 222.317 300.768C222.226 300.667 222.134 300.566 222.043 300.465C219.886 301.581 217.699 302.643 215.581 303.828C213.441 305.025 211.37 306.345 209.1 307.712C209.257 307.236 209.363 306.939 209.454 306.637C210.059 304.624 211.866 303.661 213.224 302.301C216.662 298.856 220.659 296.524 225.4 296C224.905 293.927 224.404 291.824 223.886 289.651C223.517 289.687 223.111 289.727 222.704 289.766C219.579 290.065 216.459 290.464 213.327 290.639C207.506 290.965 201.731 290.205 196.091 288.964C182.687 286.016 170.594 280.32 160.541 270.769C157.477 267.858 155.148 264.398 153.706 260.393C153.457 259.703 153.101 258.939 153.989 258.092C154.317 258.727 154.623 259.235 154.851 259.776C156.497 263.687 158.842 267.143 161.998 269.952C168.374 275.629 175.433 280.152 183.453 283.325C195.271 288.001 207.343 289.855 220 288.514C228.317 287.633 235.357 284.23 241.612 278.891C243.457 277.316 244.718 275.367 245.386 273.034C245.845 271.43 245.848 269.852 245.211 268.121C243.996 269.673 242.845 270.998 240.935 271.215C241.805 270.307 242.877 269.556 243.449 268.528C246.179 263.624 246.879 258.388 245.387 252.958C244.321 249.079 239.636 247.021 235.918 248.661C235.794 251.89 235.332 252.915 233.739 253.488C236.308 249.846 233.301 244.827 229.395 244.63C226.967 244.508 224.666 244.681 222.574 245.93C219.772 247.604 217.032 249.381 214.268 251.118C211.279 252.997 207.991 254.057 204.537 254.633C201.937 255.066 199.694 253.937 197.409 252.949C190.285 249.87 184.55 245.208 180.709 238.382C180.426 237.88 180.389 237.24 180.238 236.663C180.419 236.563 180.601 236.464 180.782 236.364C181.618 237.334 182.478 238.285 183.285 239.279C184.664 240.976 185.856 242.856 187.4 244.383C191.259 248.199 196.023 250.613 201.027 252.557C203.319 253.447 205.552 252.839 207.789 252.079C206.305 248.524 206.595 245.136 208.034 241.755C208.418 240.853 208.632 239.865 208.816 238.896C208.89 238.504 208.674 238.056 208.59 237.634C208.209 237.736 207.765 237.747 207.457 237.956C206.164 238.833 204.892 239.745 203.65 240.693C202.72 241.403 201.731 241.731 200.655 241.186C199.579 240.641 199.566 239.585 199.726 238.58C199.848 237.813 200.09 237.054 200.365 236.323C202.362 231.022 204.291 225.708 204.994 220.033C205.113 219.071 204.81 218.803 203.944 218.509C201.174 217.567 198.419 216.562 195.73 215.413C194.589 214.925 193.627 214.019 192.583 213.302C192.654 213.187 192.725 213.073 192.796 212.958C193.663 213.31 194.538 213.645 195.396 214.016C197.025 214.72 198.597 215.592 200.276 216.135C206.275 218.076 212.468 219.033 218.72 219.79C225.368 220.595 231.892 220.177 238.184 218.003C242.819 216.401 247.294 214.317 251.791 212.335C257.876 209.652 263.469 206.164 268.4 201.672C271.376 198.961 274.194 196.102 275.963 192.41C276.228 191.858 276.521 191.036 276.298 190.59C275.766 189.529 276.124 188.754 276.684 187.954C277.134 187.311 277.638 186.706 278.116 186.083C280.122 183.464 280.416 180.626 279.375 177.528C279.171 176.922 279.414 176.086 279.65 175.427C280.454 173.174 281.418 170.976 282.179 168.71C282.704 167.147 282.318 165.644 281.335 164.219C278.938 165.324 276.62 166.407 274.287 167.457C273.793 167.679 273.243 167.779 272.719 167.936C272.659 167.787 272.599 167.638 272.539 167.488C272.887 167.237 273.207 166.932 273.586 166.745C275.773 165.665 277.983 164.634 280.159 163.533C280.54 163.34 280.941 162.943 281.075 162.551C281.38 161.66 281.533 160.716 281.734 159.79C282.093 158.138 282.511 156.494 282.751 154.825C282.816 154.378 282.447 153.64 282.06 153.421C281.691 153.212 280.941 153.35 280.525 153.606C278.06 155.124 275.65 156.731 273.206 158.282C272.776 158.555 272.266 158.703 271.793 158.909C271.712 158.758 271.631 158.606 271.551 158.455C274.286 156.579 277.022 154.703 279.882 152.742C277.764 151.928 276.544 150.667 277.301 148.234C276.777 148.577 276.436 148.865 276.11 149.169C274.534 150.634 272.977 152.118 271.378 153.556C271.054 153.847 270.575 153.968 270.168 154.167C270.088 154.039 270.008 153.912 269.929 153.785C270.238 153.421 270.525 153.036 270.859 152.698C272.315 151.229 273.769 149.756 275.253 148.316C277.642 145.998 277.653 145.339 275.233 142.941C274.97 142.68 274.658 142.469 274.374 142.23C271.8 140.061 270.145 137.408 269.9 133.964C269.804 132.607 269.764 131.194 269.342 129.924C268.833 128.39 268.044 126.921 267.195 125.535C266.279 124.04 265.024 122.747 264.159 121.227C263.49 120.051 262.701 119.175 261.495 118.592C260.268 117.999 259.08 117.324 257.893 116.654C256.243 115.722 255.27 114.337 254.988 112.427C254.606 109.844 253.395 107.637 251.557 105.821C248.851 103.148 245.71 101.176 242.146 99.7466C237.365 97.8306 232.367 97.3846 227.334 97.0666C225.533 96.9526 224.259 96.2216 223.467 94.6386C222.523 92.7536 221.472 90.9066 220.708 88.9486C217.523 80.7856 214.374 72.6066 211.314 64.3966C204.93 47.2716 195.489 32.1406 182.101 19.6106C175.204 13.1556 167.7 7.56356 158.665 4.35656C155.391 3.19456 152.129 2.01956 148.599 1.85556C146.048 1.73656 144.318 2.90756 143.242 5.10656C142.812 5.98656 142.501 6.95356 142.306 7.91656C141.038 14.1596 140.659 20.4346 141.488 26.7836C142.222 32.4036 142.989 38.0096 144.722 43.4256C144.908 44.0076 145.451 44.6296 145.995 44.9196C149.544 46.8116 152.973 48.8656 156.044 51.4906C157.527 52.7586 159.101 53.9196 160.756 55.2246C159.624 52.9406 158.407 50.9076 157.584 48.7256C156.346 45.4446 155.34 42.0726 154.317 38.7146C153.113 34.7636 151.928 30.8036 150.86 26.8136C149.786 22.8026 149.507 18.7396 150.766 14.6986C151.462 12.4636 153.951 10.8516 156.176 11.4886C158.502 12.1546 160.965 12.8586 162.916 14.2026C166.235 16.4886 169.59 18.9456 172.23 21.9476C177.354 27.7756 182.422 33.7436 186.726 40.1796C192.509 48.8286 197.845 57.8136 202.821 66.9546C207.811 76.1226 211.055 86.0716 214.102 96.0466C214.239 96.4966 214.172 97.0096 214.199 97.4936C214.058 97.5356 213.916 97.5766 213.775 97.6186C213.539 97.2796 213.234 96.9686 213.082 96.5946C212.692 95.6386 212.367 94.6566 212.02 93.6836C207.521 81.0516 202.83 68.5276 195.211 57.3166C192.195 52.8786 189.802 48.0166 186.796 43.5696C183.603 38.8476 180.144 34.2906 176.579 29.8396C171.103 23.0036 165.215 16.6056 156.819 13.1716C154.854 12.3686 152.798 13.0096 152.134 15.0416C151.255 17.7316 151.086 20.5396 151.665 23.2576C152.506 27.2096 153.575 31.1236 154.747 34.9936C156.802 41.7776 158.15 48.8346 162.207 54.8776C163.007 56.0686 163.425 57.5946 164.411 58.5686C168.401 62.5096 171.077 67.1596 172.614 72.5176C172.852 73.3466 173.059 74.2406 173.528 74.9376C177.242 80.4586 180.94 85.9936 184.802 91.4106C186.814 94.2326 189.165 96.8126 191.322 99.5336C191.729 100.047 191.942 100.712 192.245 101.308C192.072 101.411 191.898 101.514 191.725 101.617C184.543 94.7196 179.131 86.4276 173.716 78.1256C173.871 79.9886 174.172 81.7796 174.378 83.5806C174.547 85.0576 174.483 86.5026 172.959 87.2826C174.64 89.7306 176.348 92.0636 177.882 94.5056C178.887 96.1056 179.666 97.8516 180.481 99.5636C180.673 99.9666 180.603 100.495 180.653 100.965C180.478 101.028 180.302 101.091 180.127 101.154C179.747 100.569 179.326 100.005 178.995 99.3936C178.384 98.2686 177.903 97.0686 177.23 95.9856C175.549 93.2816 173.809 90.6146 172.039 87.9686C171.849 87.6846 171.301 87.4896 170.93 87.5066C169.448 87.5736 167.972 87.7636 166.49 87.8656C162.392 88.1476 158.385 87.3006 154.465 86.4066C148.834 85.1216 143.275 83.4606 137.772 81.6906C132.695 80.0576 127.706 78.1656 122.413 77.2936C120.972 77.0556 119.565 76.9646 118.104 77.6016C118.283 78.2546 118.4 78.8626 118.614 79.4346C120.755 85.1396 123.273 90.6186 126.924 95.5816C133.641 104.714 140.317 113.868 148.09 122.154C149.052 123.179 150.098 124.127 151.028 125.179C151.321 125.51 151.361 126.065 151.516 126.517C151.045 126.389 150.568 126.276 150.105 126.123C149.96 126.075 149.843 125.924 149.73 125.804C147.401 123.339 144.895 121.016 142.784 118.376C137.852 112.208 133.06 105.925 128.309 99.6146C124.972 95.1836 121.873 90.5946 119.964 85.3096C119.072 82.8406 118.021 80.4306 116.903 77.6476C116.35 78.6926 115.555 79.5646 115.443 80.5176C114.993 84.3556 115.237 88.1626 117.384 91.5366C119.379 94.6706 121.401 97.8046 123.649 100.758C128.158 106.68 132.746 112.536 138.416 117.459C141.441 120.085 144.22 122.996 147.079 125.811C147.572 126.296 147.904 126.943 148.311 127.515C148.209 127.633 148.107 127.751 148.005 127.869C147.45 127.591 146.789 127.424 146.355 127.017C141.41 122.377 136.225 117.951 131.657 112.962C127.033 107.911 122.91 102.382 118.788 96.8956C115.376 92.3556 113.026 87.3826 113.652 81.3806C113.852 79.4656 114.445 78.0026 115.749 76.6796C117.569 74.8326 119.824 74.2356 122.301 74.2456C126.798 74.2626 131.225 74.8716 135.474 76.3396C140.901 78.2156 146.252 80.3106 151.663 82.2356C157.933 84.4666 164.392 85.7776 171.066 85.9056C172.915 85.9416 173.227 85.5616 172.893 83.6876C172.553 81.7766 172.078 79.8826 171.844 77.9596C170.927 70.4386 167.882 64.0246 162.182 58.9466C161.348 58.2036 160.564 57.3986 159.686 56.7146C156.231 54.0216 152.983 50.9596 149.228 48.7756C140.469 43.6796 131.15 39.8446 121.035 38.2976C116.779 37.6466 112.518 37.0836 108.233 38.2046C102.065 39.8176 98.0269 43.4716 96.4889 49.8206C95.5019 53.8956 96.0519 57.8666 96.7289 61.8696C98.6559 73.2596 103.892 83.2106 110.293 92.6076C115.533 100.301 122.168 106.815 128.545 113.533C132.559 117.762 136.757 121.818 140.712 126.101C142.051 127.55 143.465 129.333 143.858 131.175C144.945 136.266 144.186 140.956 140.295 145.058C138.166 147.302 136.788 150.331 135.37 153.156C134.326 155.235 134.723 155.748 136.871 156.607C138.87 157.406 139.311 158.521 138.238 160.392C137.396 161.861 136.37 163.224 135.525 164.691C133.921 167.476 133.884 168.791 136.251 170.714C138.703 172.706 139.088 175.427 138.638 178.366C138.547 178.959 138.434 179.548 138.302 180.305C148.974 179.326 159.459 178.091 169.994 177.58C170.018 177.825 170.042 178.07 170.066 178.316C159.454 179.532 148.802 180.425 138.318 181.651C138.55 184.363 138.765 186.891 138.987 189.479C149.659 187.157 160.231 184.094 171.229 183.228C167.469 184.751 163.409 184.929 159.517 185.854C155.586 186.788 151.648 187.689 147.461 188.662C148.319 190.691 149.129 192.531 149.872 194.399C150.221 195.277 150.678 195.412 151.577 195.134C157.103 193.429 162.648 191.786 168.191 190.139C168.733 189.978 169.308 189.929 169.868 189.828C169.901 189.974 169.934 190.121 169.967 190.267C164.06 193.323 157.409 194.243 151.118 196.475C151.319 196.791 151.409 197.041 151.584 197.19C152.227 197.736 152.837 198.922 153.798 197.929C154.765 196.931 155.114 197.423 155.778 198.201C157.168 199.826 158.575 201.483 160.846 201.963C161.141 202.025 161.384 202.335 161.652 202.531C161.615 202.67 161.578 202.808 161.541 202.946C160.831 202.946 160.009 203.178 159.435 202.898C158.189 202.291 157.076 201.416 155.898 200.666C155.585 200.467 155.146 200.101 154.915 200.192C152.252 201.249 150.442 200.026 148.968 198C148.508 197.368 148.105 197.319 147.414 197.535C143.39 198.793 139.359 200.033 135.31 201.208C134.342 201.489 133.797 202.021 133.347 202.891C131.466 206.525 129.437 210.084 127.616 213.746C125.814 217.37 123.759 220.952 122.587 224.789C120.068 233.036 117.229 241.238 116.335 249.895C115.962 253.51 115.701 257.139 115.495 260.767C115.455 261.478 115.687 262.469 116.175 262.891C117.308 263.873 117.722 264.993 117.572 266.4C117.465 267.399 117.898 267.89 118.86 268.154C120.852 268.7 122.79 268.387 124.748 268.005C130.198 266.941 135.309 270.372 135.597 275.877C135.683 277.515 136.594 278.761 137.828 279.738C138.928 280.609 140.119 281.365 141.267 282.175C144.681 284.584 147.566 287.329 147.574 291.945C147.575 292.645 147.708 293.344 147.755 294.045C147.947 296.861 148.117 299.684 149.877 302.081C150.611 303.08 151.388 304.047 152.136 305.037C154.339 307.95 156.249 310.939 155.723 314.885C155.335 317.796 154.155 320.339 152.161 322.379C149.271 325.336 146.701 328.459 145.071 332.3C144.24 334.257 142.572 335.201 140.577 335.646C140.015 335.771 139.445 335.859 138.779 335.982C139.131 336.926 139.406 337.877 139.827 338.758C141.979 343.265 143.914 347.902 146.424 352.202C148.472 355.711 151.169 358.852 153.683 362.075C155.075 363.859 156.675 365.481 158.198 367.162C158.516 367.513 158.904 367.799 159.419 368.257C156.391 367.492 153.138 365.618 151.372 363.711C150.362 362.621 149.337 361.545 148.326 360.455C147.626 359.701 146.874 358.984 146.257 358.165C142.929 353.754 140.279 348.963 138.093 343.883C136.39 339.925 134.225 336.205 131.345 332.953C131.124 332.703 130.844 332.505 130.473 332.179C130.395 332.644 130.337 332.882 130.319 333.123C130.295 333.452 130.278 333.785 130.298 334.114C130.504 337.579 131.447 340.849 132.863 344.004C132.994 344.296 132.82 344.726 132.788 345.091C132.45 345.043 132.09 345.051 131.781 344.929C131.574 344.847 131.46 344.557 131.269 344.403C129.285 342.795 127.327 341.152 125.29 339.613C124.415 338.952 123.44 339.146 123.095 340.252C122.684 341.569 122.237 342.976 122.298 344.321C122.519 349.195 123.677 353.873 125.799 358.291C125.889 358.479 125.846 358.73 125.887 359.215C125.269 358.935 124.825 358.782 124.432 358.546C122.192 357.203 119.943 355.879 117.295 355.513C115.823 355.31 115.504 355.566 115.455 357.054C115.359 359.961 116.57 362.488 118.144 364.771C124.534 374.039 133.153 380.63 143.32 385.269C149.455 388.068 155.892 389.794 162.604 390.573C169.465 391.369 176.308 392.235 183.243 391.972C186.655 391.842 190.008 391.423 193.223 390.273C195.054 389.618 196.806 388.742 198.594 387.966C198.596 387.842 198.598 387.719 198.6 387.595C193.846 386.868 190.266 384 186.758 381.121C183.26 378.257 180.101 375.035 178.028 370.962ZM320.17 235.915C319.571 238.099 319.192 240.224 318.411 242.19C315.926 248.442 311.654 253.339 306.223 257.186C303.635 259.019 300.813 260.537 298.027 262.072C295.937 263.224 293.815 264.426 291.561 265.142C289.598 265.766 287.384 266.139 285.36 265.913C282.108 265.55 279.615 263.731 278.595 260.729C276.196 260.554 273.967 260.509 271.773 260.206C267.755 259.652 265.265 257.049 263.885 253.475C263.302 251.966 263.072 250.073 263.421 248.521C263.785 246.903 263.784 245.653 263.192 244.073C261.892 240.606 263.446 237.658 265.963 235.422C268.579 233.097 271.548 231.17 274.366 229.073C277.08 227.053 278.828 224.286 280.491 221.418C274.684 217.95 269.81 213.729 266.643 207.675C264.777 210.547 262.498 212.636 259.839 214.409C254.036 218.277 247.643 220.594 240.909 222.21C234.335 223.788 227.702 223.797 221.055 223.24C217.526 222.944 214.012 222.314 210.537 221.606C209.06 221.305 207.702 220.416 206.279 219.79C206.121 221.07 206.084 222.32 205.799 223.511C204.709 228.058 203.425 232.545 201.36 236.773C201.005 237.5 200.824 238.335 200.691 239.142C200.51 240.238 201.237 240.797 202.265 240.394C202.598 240.264 202.869 239.979 203.17 239.767C204.514 238.818 205.812 237.791 207.227 236.963C207.741 236.662 208.706 236.575 209.15 236.868C209.601 237.165 209.91 238.08 209.843 238.675C209.698 239.974 209.424 241.303 208.934 242.51C208.019 244.764 207.702 247.053 208.075 249.433C208.197 250.214 208.513 250.964 208.743 251.738C212.054 250.875 214.488 248.913 217.089 247.242C220.038 245.348 222.913 243.228 226.584 242.947C229.92 242.692 232.955 243.218 234.907 246.401C235.059 246.648 235.752 246.741 236.128 246.646C241.558 245.273 246.174 248.047 247.352 253.468C247.57 254.473 247.707 255.506 247.774 256.533C247.998 259.968 247.306 263.265 246.111 266.512C247.653 267.623 247.951 269.259 248.077 270.995C248.396 275.398 246.565 278.858 243.16 281.403C240.025 283.746 236.711 285.862 233.38 287.925C230.898 289.463 228.26 290.747 224.99 290.911C225.756 293.194 226.445 295.247 227.169 297.405C228.754 296.957 230.142 296.578 231.522 296.173C235.39 295.038 239.25 294.878 243.1 296.241C244.674 296.798 245.247 297.937 244.53 299.452C244.046 300.474 243.29 301.368 242.54 302.492C243.58 302.725 244.64 302.988 245.71 303.199C250.409 304.128 255.125 304.977 259.803 305.997C261.468 306.36 263.169 306.912 264.636 307.756C267.542 309.426 267.771 311.141 265.728 313.705C266.97 314.518 268.243 315.284 269.441 316.154C270.644 317.028 271.804 317.967 272.926 318.944C276.341 321.917 277 325.509 274.938 329.439C274.752 329.793 274.596 330.383 274.763 330.666C275.904 332.605 277.134 334.49 278.314 336.36C279.778 335.048 281.271 333.469 283.003 332.223C284.933 330.834 286.963 329.436 289.161 328.599C293.165 327.074 295.627 328.318 296.94 330.377C297.503 329.957 298.054 329.526 298.625 329.124C300.697 327.666 302.969 326.74 305.523 326.618C310.775 326.366 314.978 330.418 314.789 335.638C314.739 337.028 314.44 338.419 314.147 339.787C313.994 340.501 313.937 340.948 314.704 341.389C316.069 342.174 316.771 343.481 317.03 345.03C317.461 347.612 317.035 350.083 315.817 352.354C314.666 354.5 313.484 356.672 311.999 358.587C309.546 361.75 306.838 364.715 304.24 367.766C303.913 368.15 303.602 368.549 303.227 369.011C303.528 369.082 303.608 369.116 303.688 369.117C304.722 369.127 305.756 369.133 306.79 369.138C312.546 369.169 317.377 367.163 321.418 362.97C323.931 360.363 326.797 358.095 329.516 355.689C330.934 354.434 332.548 353.355 333.77 351.935C335.654 349.747 337.501 347.465 338.958 344.984C340.919 341.645 343.541 339.069 346.621 336.836C348.104 335.76 349.201 334.291 349.346 332.421C349.507 330.333 349.513 328.222 349.412 326.129C349.315 324.113 348.888 322.112 348.796 320.096C348.643 316.715 350.047 313.771 351.505 310.808C354.364 304.992 355.071 299.145 351.227 293.382C349.655 291.025 348.905 288.375 348.766 285.547C348.633 282.863 348.504 280.178 348.333 277.496C348.157 274.733 347.598 272.079 345.791 269.858C344.878 268.736 343.968 267.606 342.98 266.551C340.074 263.446 338.031 259.941 337.711 255.6C337.538 253.249 337.455 250.888 337.178 248.549C336.322 241.311 334.281 239.578 328.38 237.835C325.621 237.016 322.769 236.512 320.17 235.915ZM272.375 331.816C271.317 330.479 271.537 329.239 272.481 327.957C272.936 327.339 273.249 326.574 273.454 325.829C273.596 325.312 273.648 324.582 273.385 324.177C272.377 322.626 271.424 320.954 270.084 319.727C267.992 317.812 265.597 316.229 263.34 314.494C262.434 313.798 262.465 313.327 263.422 312.715C263.699 312.537 264.01 312.4 264.255 312.186C265.095 311.453 265.055 310.945 264.054 310.425C263.362 310.065 262.629 309.722 261.874 309.556C257.525 308.603 253.172 307.663 248.804 306.801C245.558 306.16 242.266 305.722 239.498 303.664C238.478 302.906 238.396 302.534 239.399 301.708C240.258 301.001 241.248 300.452 242.1 299.738C243.242 298.781 243.084 297.966 241.616 297.615C240.262 297.292 238.804 296.942 237.462 297.122C234.244 297.556 231.077 298.349 227.871 298.892C225.462 299.299 223.76 300.378 222.375 302.538C220.076 306.122 218.239 309.879 216.848 313.872C215.431 317.939 215.486 322.211 215.659 326.397C215.84 330.77 217.613 334.511 221.497 337.068C225.066 339.417 227.939 342.474 229.975 346.292C230.809 347.857 231.826 349.328 232.815 350.805C234.519 353.35 236.658 355.406 239.754 356.061C241.503 356.431 243.439 357.094 245.048 355.914C246.377 354.94 247.568 353.665 248.517 352.311C249.792 350.492 250.671 348.398 251.912 346.552C253.563 344.095 255.964 343.036 258.953 343.281C262.401 343.563 265.939 341.367 267.532 338.257C268.296 336.766 269.335 335.406 270.333 334.047C270.91 333.258 271.656 332.59 272.375 331.816ZM399.278 299.294C399.087 299.219 398.896 299.143 398.705 299.068C398.854 298.37 398.925 297.644 399.166 296.98C400.1 294.402 400.175 291.909 398.71 289.474C398.143 288.531 397.401 287.854 396.3 288.178C394.822 288.612 393.403 289.246 391.963 289.808C391.159 290.122 390.225 290.898 389.597 290.697C388.466 290.334 388.854 289.028 388.846 288.068C388.824 285.569 386.687 284.247 384.493 285.482C383.498 286.042 382.526 286.744 381.753 287.576C379.08 290.453 376.526 293.44 373.866 296.329C373.122 297.137 372.243 297.878 371.296 298.426C369.66 299.373 368.522 298.696 368.481 296.814C368.45 295.369 368.537 293.921 368.61 292.475C368.787 288.966 369.041 285.459 369.158 281.948C369.232 279.728 368.489 277.813 366.564 276.482C366.025 276.109 365.415 275.694 365.118 275.147C364.585 274.164 364.09 273.096 363.91 272.008C363.754 271.063 364.023 270.038 364.159 269.056C364.649 265.517 363.405 262.824 360.298 261.021C358.19 259.797 356.711 258.029 355.645 255.848C355.235 255.01 354.687 254.18 354.017 253.541C352.555 252.147 351.012 250.828 349.43 249.569C347.415 247.964 344.949 247.538 342.488 247.201C341.822 247.11 341.12 247.29 340.415 247.347C340.415 248.985 340.338 250.475 340.43 251.954C340.671 255.832 341.286 259.588 343.897 262.734C345.822 265.053 347.652 267.454 349.483 269.85C350.766 271.53 351.532 273.417 351.598 275.571C351.662 277.675 351.886 279.778 351.878 281.881C351.862 285.887 352.658 289.594 354.724 293.125C356.819 296.706 357.253 300.785 357.067 304.889C356.913 308.27 355.546 311.299 354.078 314.275C352.842 316.782 352.286 319.364 352.64 322.19C352.984 324.932 353.1 327.706 353.257 330.469C353.376 332.563 352.856 334.528 351.486 336.135C350.286 337.542 348.908 338.796 347.633 340.141C345.726 342.152 343.839 344.183 341.944 346.205C341.996 346.356 342.049 346.506 342.101 346.657C343.072 346.657 344.097 346.859 345.004 346.617C347.146 346.045 349.346 345.493 351.317 344.516C355.869 342.259 360.395 339.917 364.75 337.307C369.104 334.699 373.418 331.955 377.42 328.847C381.98 325.305 386.216 321.34 390.518 317.475C394.636 313.774 397.967 309.4 400.916 304.733C401.976 303.056 402.548 301.207 402.433 299.207C402.374 298.193 402.051 297.277 400.927 296.93C400.352 297.753 399.815 298.524 399.278 299.294ZM282.187 215.465C282.372 215.448 282.556 215.431 282.741 215.414C282.941 215.866 283.359 216.349 283.301 216.766C283.067 218.458 283.03 220.301 282.293 221.774C280.452 225.453 278.035 228.753 274.543 231.13C271.982 232.873 269.412 234.613 266.964 236.507C264.698 238.26 263.182 242.298 264.815 244.751C265.316 244.655 265.796 244.563 266.592 244.41C266.19 245.471 265.966 246.258 265.608 246.979C263.505 251.212 266.425 256.504 270.279 257.804C274.63 259.271 279.072 259.304 283.066 256.376C283.592 255.99 284.205 255.706 284.811 255.456C285.029 255.366 285.519 255.436 285.58 255.571C285.691 255.817 285.667 256.217 285.531 256.46C285.359 256.769 285.05 257.028 284.75 257.235C283.266 258.261 281.766 259.262 280.223 260.305C280.785 261.586 281.745 262.507 283.296 262.691C288.278 263.284 292.852 261.928 297.009 259.368C301.942 256.329 306.502 252.78 310.467 248.488C316.443 242.019 319.133 232.353 314.673 223.499C311.03 216.268 305.1 212.3 297.2 211.184C292.71 210.549 288.199 210.765 283.737 211.515C280.07 212.132 276.432 212.922 272.618 213.667C275.207 216.212 277.997 218.197 281.131 220.028C281.514 218.367 281.851 216.916 282.187 215.465ZM117.502 268.698C117.842 272.019 118.091 275.057 118.474 278.077C119.532 286.421 122.066 294.344 125.533 301.975C127.169 305.575 128.246 309.303 128.923 313.2C129.542 316.761 130.052 320.384 131.902 323.621C133.845 327.021 135.732 330.453 137.601 333.895C137.939 334.518 138.335 334.705 138.987 334.584C141.285 334.158 143.27 333.294 144.19 330.92C145.598 327.288 148.106 324.463 150.764 321.706C154.398 317.937 156.018 312.372 152.056 307.344C151.161 306.209 150.287 305.056 149.439 303.886C147.89 301.748 146.722 299.457 146.552 296.747C146.433 294.85 146.157 292.962 146.074 291.065C145.982 288.943 145.093 287.228 143.581 285.841C142.43 284.785 141.217 283.773 139.922 282.904C136.852 280.845 134.073 278.648 134.027 274.475C134.021 273.969 133.738 273.441 133.496 272.968C132.013 270.067 128.618 268.497 125.062 269.196C122.622 269.675 120.238 269.838 117.502 268.698ZM135.036 200.012C139.276 198.759 143.476 197.517 147.499 196.328C146.827 193.825 146.21 191.525 145.568 189.132C143.939 189.522 142.316 190.112 140.655 190.258C138.444 190.451 137.716 192 137.096 193.643C136.326 195.685 135.742 197.796 135.036 200.012Z" fill="#2D7DDA"/>
<path d="M229.761 165.112C230.432 167.596 231.081 169.94 231.694 172.293C232.009 173.5 232.9 174.095 233.986 174.291C239.022 175.202 241.872 174.788 244.049 168.975C244.346 168.182 244.643 167.388 244.94 166.595C245.112 166.599 245.283 166.602 245.454 166.606C245.536 167.227 245.765 167.869 245.676 168.465C245.175 171.816 243.71 173.845 240.524 175.835C241.113 177.866 241.799 179.854 242.256 181.892C243.078 185.56 242.533 188.899 239.434 191.432C237.046 193.384 234.775 193.642 232.273 191.865C230.828 190.839 229.391 189.517 228.547 187.998C227.301 185.754 226.586 183.215 225.648 180.801C225.546 180.539 225.469 180.267 225.389 180.026C221.801 179.707 219.517 178.429 217.273 175.471C215.631 176.019 214.053 176.776 213.054 178.256C211.788 180.13 210.644 182.094 209.565 184.083C209.027 185.074 208.358 185.734 207.263 185.952C205.144 186.373 203.032 186.243 201.026 185.507C198.494 184.58 196.269 184.862 193.965 186.318C189.479 189.153 185.438 188.302 182.285 184.039C181.625 183.146 181.079 182.16 180.562 181.174C179.72 179.564 178.522 178.316 176.816 177.728C174.638 176.977 173.154 175.506 172.112 173.555C171.008 171.488 169.342 170.196 167.104 169.621C162.748 168.501 161.008 165.166 161.198 161.31C161.261 160.031 161.469 158.745 161.396 157.475C161.262 155.131 160.864 152.953 158.437 151.62C156.348 150.473 155.472 147.425 156.438 144.759C157.047 143.078 158.049 141.51 159.057 140.014C159.905 138.755 161.054 137.704 161.995 136.502C162.495 135.864 162.816 135.088 163.253 134.397C163.788 133.553 164.196 132.519 164.946 131.94C167.428 130.023 170.049 128.286 172.593 126.448C173.153 126.044 173.746 125.584 174.099 125.012C176.216 121.567 179.48 119.536 183.171 118.565C184.847 118.124 186.467 117.593 188.119 117.111C189.198 116.796 190.562 117.109 191.701 117.458C192.517 117.708 193.137 117.784 193.917 117.431C198.92 115.171 203.096 116.765 204.964 121.935C205.871 124.446 207.618 125.584 209.877 126.356C211.663 126.966 213.557 127.235 215.095 128.527C216.877 130.024 218.228 131.589 218.152 134.155C218.124 135.094 218.79 136.173 219.406 136.987C220.525 138.466 221.88 139.763 223.068 141.194C224.729 143.195 225.356 145.465 224.623 148.032C224.351 148.986 224.109 149.949 223.861 150.909C223.268 153.212 223.271 155.496 224.134 157.736C224.708 159.228 224.877 160.68 224.071 162.166C223.937 162.413 224.053 162.974 224.26 163.2C225.347 164.387 226.471 164.42 227.779 163.491C228.053 163.297 228.56 163.238 228.886 163.343C230.447 163.846 231.786 163.287 232.317 161.695C232.654 160.684 232.738 159.59 233.046 158.566C233.164 158.173 233.591 157.874 233.878 157.532C234.112 157.951 234.59 158.403 234.537 158.782C234.366 160.001 234.093 161.225 233.687 162.387C233.049 164.208 231.457 164.816 229.761 165.112ZM172.879 127.378C170.329 129.261 167.942 130.95 165.651 132.762C165.023 133.258 164.672 134.112 164.214 134.814C163.612 135.737 163.071 136.703 162.432 137.599C160.949 139.679 159.273 141.639 157.951 143.813C156.344 146.458 157.049 150.128 159.978 151.494C160.793 151.875 161.417 152.929 161.85 153.812C163 156.153 162.512 158.672 162.379 161.137C162.192 164.603 163.384 167.508 167.582 168.61C170.1 169.271 172.005 170.764 173.246 173.093C174.129 174.75 175.397 175.96 177.228 176.618C179.3 177.363 180.699 178.888 181.762 180.817C182.514 182.181 183.412 183.493 184.419 184.681C185.904 186.433 187.957 186.993 190.15 186.591C191.253 186.391 192.365 185.86 193.306 185.229C195.843 183.526 198.453 183.29 201.345 184.178C202.737 184.605 204.268 184.608 205.743 184.726C207.136 184.837 207.924 184.199 208.549 182.85C210.084 179.535 211.855 176.293 215.464 174.746C217.498 173.874 218.359 172.393 218.565 170.265C218.816 167.682 219.5 165.263 221.492 163.346C223.043 161.854 223.634 160.12 222.694 157.887C222.139 156.569 221.957 154.962 222.075 153.523C222.243 151.483 222.784 149.464 223.275 147.463C223.766 145.465 223.226 143.782 221.943 142.287C220.732 140.876 219.489 139.491 218.225 138.127C217.203 137.024 216.422 135.791 216.559 134.257C216.718 132.467 215.816 131.329 214.619 130.203C213.083 128.759 211.093 128.482 209.235 127.832C206.617 126.916 204.539 125.569 203.56 122.642C202.09 118.249 198.71 116.927 194.515 118.806C193.264 119.366 192.206 119.359 191.011 118.643C189.482 117.727 187.778 118.062 186.454 119.376C187.482 121.007 187.512 122.782 186.606 124.42C184.467 128.289 180.961 130.425 176.756 131.233C173.875 131.787 172.791 130.593 172.879 127.378ZM226.709 179.983C227.371 182.888 228.668 185.82 230.518 188.476C231.112 189.329 232.008 190.046 232.907 190.592C234.12 191.329 235.492 191.797 236.898 191.015C239.043 189.822 240.469 188.107 240.645 185.553C240.869 182.311 239.722 179.326 239.046 176.414C236.813 176.159 234.756 175.924 232.658 175.685C232.697 175.873 232.742 176.147 232.811 176.416C233.526 179.215 234.259 182.01 234.947 184.815C235.056 185.258 234.962 185.751 234.962 186.221C234.768 186.24 234.573 186.259 234.379 186.277C233.466 182.653 232.552 179.029 231.709 175.683C230.114 177.055 228.484 178.456 226.709 179.983ZM222.905 164.007C220.759 165.625 220.367 167.947 219.967 170.293C219.781 171.382 219.522 172.482 219.111 173.502C218.535 174.932 218.553 175.296 219.828 176.187C223.718 178.908 226.823 177.917 229.889 174.381C230.127 174.105 230.289 173.594 230.217 173.248C229.662 170.557 229.041 167.88 228.415 165.084C226.146 166.45 224.54 165.354 222.905 164.007ZM176.323 129.912C176.59 129.863 177.146 129.846 177.636 129.657C180.211 128.67 182.557 127.256 184.312 125.129C185.05 124.235 185.492 122.951 185.677 121.782C185.885 120.466 184.702 119.721 183.384 120.056C180.611 120.76 178.331 122.328 176.425 124.357C175.527 125.313 174.899 126.618 174.446 127.872C173.915 129.342 174.484 129.925 176.323 129.912Z" fill="#2D7DDA"/>
<path d="M264.421 139.932C264.397 149.717 256.408 157.626 246.597 157.616C238.386 157.607 228.899 151.565 228.787 138.92C228.708 129.971 237.04 120.967 245.404 121.433C257.092 122.083 264.009 128.186 264.421 139.932ZM245.856 123.693C244.195 124.1 242.271 124.107 240.926 124.993C237.81 127.046 235.371 129.833 234.437 133.614C232.111 143.031 237.758 151.307 246.039 153.931C252.531 155.988 255.052 155.191 259.386 150.079C260.535 148.723 261.45 147.046 262.043 145.364C263.791 140.409 263.581 135.424 260.378 131.176C256.851 126.499 251.939 123.993 245.856 123.693ZM232.832 132.232C230.427 134.698 229.051 142.059 232.322 147.767C235.377 153.097 242.298 157.1 246.959 156.048C236.679 153.166 229.7 142.84 232.832 132.232Z" fill="#2D7DDA"/>
<path d="M278.965 374.114C277.249 374.18 275.793 373.515 274.482 372.52C272.724 371.187 272.179 368.842 273.113 366.849C275.083 362.647 278.323 359.538 281.936 356.792C283.707 355.446 285.544 354.143 287.498 353.094C289.294 352.13 291.221 351.156 293.392 351.702C293.959 351.844 294.596 352.279 294.907 352.766C296.139 354.698 296.469 356.84 295.95 359.076C294.868 363.739 292.479 367.541 288.435 370.196C286.093 371.734 283.832 373.468 280.929 373.869C280.275 373.959 279.619 374.033 278.965 374.114ZM294.54 357.719C294.525 353.126 293.452 352.374 289.742 353.807C289.05 354.074 288.342 354.352 287.725 354.752C286.029 355.854 284.317 356.945 282.72 358.182C279.438 360.725 276.375 363.492 274.511 367.323C273.705 368.982 274.16 370.575 275.681 371.651C277.147 372.688 278.765 372.864 280.421 372.46C284.931 371.362 288.474 368.72 291.392 365.218C293.324 362.9 294.155 360.092 294.54 357.719Z" fill="#2D7DDA"/>
<path d="M225.573 114.885C222.719 114.887 221.342 113.082 222.129 110.898C222.468 109.957 223.021 109.002 223.723 108.298C226.121 105.892 228.819 103.911 232.422 103.947C234.832 103.971 236.203 106.172 235.215 108.364C234.801 109.282 234.211 110.195 233.486 110.886C231.126 113.135 228.243 114.377 225.573 114.885ZM224.818 113.584C227.663 113.083 230.016 111.961 232.128 110.441C233.039 109.785 233.751 108.694 234.244 107.654C234.826 106.426 234.185 105.493 232.829 105.216C232.434 105.135 231.982 105.081 231.608 105.19C228.425 106.118 225.687 107.761 223.79 110.534C223.377 111.137 223.207 112.084 223.332 112.801C223.396 113.163 224.371 113.366 224.818 113.584Z" fill="#2D7DDA"/>
<path d="M308.821 335.741C308.764 338.613 306.016 341.799 303.209 342.247C300.938 342.609 299.104 340.501 299.523 338.008C299.984 335.265 302.401 332.914 305.155 332.389C307.675 331.909 308.76 333.747 308.821 335.741ZM300.6 338.705C300.602 340.798 301.896 341.672 303.884 340.951C305.887 340.224 307.126 338.755 307.508 336.746C307.68 335.843 307.452 334.666 306.966 333.887C306.35 332.899 305.296 333.664 304.497 333.941C302.154 334.753 300.598 336.717 300.6 338.705Z" fill="#2D7DDA"/>
<path d="M195.947 97.5785C190.084 87.6395 184.254 77.6835 180.243 66.7795C185.578 76.9935 190.913 87.2075 196.248 97.4215C196.147 97.4745 196.047 97.5265 195.947 97.5785Z" fill="#2D7DDA"/>
<path d="M286.433 345.533C285.188 345.527 284.145 345.1 283.566 343.944C282.874 342.561 283.272 341.198 284.114 340.094C285.377 338.439 286.945 337.091 289.06 336.563C290.483 336.208 291.399 336.688 291.841 338.06C292.757 340.894 289.398 345.533 286.433 345.533ZM290.787 339.322C290.849 337.685 290.302 337.178 289.033 337.642C287.242 338.297 285.818 339.505 284.813 341.113C284.257 342.003 283.952 343.041 284.884 343.95C285.591 344.64 287.174 344.672 288.113 343.925C289.657 342.697 290.602 341.092 290.787 339.322Z" fill="#2D7DDA"/>
<path d="M305.754 353.474C303.776 353.471 302.709 352.154 303.131 350.235C303.692 347.683 306.472 345.366 309.101 345.258C310.153 345.215 311.235 346.296 311.325 347.479C311.564 350.647 308.934 353.478 305.754 353.474ZM310.384 347.88C310.377 346.556 309.717 346.136 308.484 346.702C307.661 347.079 306.736 347.362 306.081 347.941C305.311 348.623 304.599 349.501 304.196 350.438C303.656 351.693 304.363 352.506 305.74 352.52C308.257 352.546 310.398 350.407 310.384 347.88Z" fill="#2D7DDA"/>
<path d="M187.467 67.3035C191.843 76.7425 196.311 86.0895 198.692 96.2255C198.591 96.2715 198.49 96.3175 198.389 96.3645C197.896 95.2265 197.339 94.1105 196.92 92.9455C195.218 88.2055 193.613 83.4305 191.865 78.7085C190.705 75.5715 189.354 72.5055 188.113 69.3975C187.844 68.7205 187.68 68.0025 187.467 67.3035Z" fill="#2D7DDA"/>
<path d="M162.007 113.926C156.775 106.901 151.543 99.8766 146.311 92.8516C146.458 92.7406 146.606 92.6296 146.753 92.5186C152.039 99.4956 157.325 106.473 162.612 113.449C162.41 113.608 162.209 113.767 162.007 113.926Z" fill="#2D7DDA"/>
<path d="M158.331 116.001C152.717 110.844 147.881 104.943 142.607 99.4615C142.734 99.3395 142.861 99.2175 142.988 99.0955C148.266 104.572 153.545 110.049 158.823 115.526C158.659 115.684 158.495 115.843 158.331 116.001Z" fill="#2D7DDA"/>
<path d="M196.281 71.8774C198.304 80.5454 200.268 88.9554 202.231 97.3654C200.908 95.9214 196.08 74.6784 196.281 71.8774Z" fill="#2D7DDA"/>
<path d="M164.923 110.779C161.276 105.246 158.254 99.3745 155.53 93.3415C155.668 93.2655 155.806 93.1905 155.944 93.1145C159.087 98.9205 162.229 104.727 165.372 110.533C165.221 110.616 165.072 110.697 164.923 110.779Z" fill="#2D7DDA"/>
<path d="M177.415 208.889C176.82 209.016 176.22 209.277 175.632 209.249C171.806 209.071 168.976 207.11 166.752 204.129C166.482 203.766 166.248 203.376 166.005 202.994C165.964 202.93 165.965 202.84 165.865 202.416C167.748 203.962 169.257 205.636 171.129 206.617C173.013 207.604 175.258 207.901 177.345 208.5C177.368 208.629 177.391 208.759 177.415 208.889Z" fill="#2D7DDA"/>
<path d="M234.931 119.616C233.085 120.894 231.326 121.872 229.871 123.186C228.429 124.488 227.293 126.129 225.966 127.689C225.572 126.35 227.173 123.783 229.787 121.526C231.178 120.325 232.696 119.299 234.931 119.616Z" fill="#2D7DDA"/>
<path d="M242.48 195.885C242.407 197.343 241.503 198.092 240.423 198.531C238.975 199.118 237.452 199.478 236.078 198.219C238.65 198.698 240.713 197.786 242.48 195.885Z" fill="#2D7DDA"/>
<path d="M379.955 304.333C380.203 304.333 380.451 304.326 380.699 304.335C382.582 304.401 382.688 304.679 383.363 306.419C385.536 312.013 380.445 321.339 373.288 322.84C368.368 323.872 366.028 320.134 366.687 316.293C367.565 311.175 371.092 308.123 375.284 305.716C376.672 304.919 378.303 304.546 379.823 303.979C379.867 304.097 379.911 304.214 379.955 304.333ZM380.422 305.492C379.889 305.556 379.322 305.525 378.829 305.701C373.36 307.651 369.122 310.969 367.686 316.835C367.008 319.605 368.724 322.439 372.27 321.84C376.3 321.159 379.115 318.727 381.094 315.254C382.483 312.815 383.145 310.222 382.599 307.404C382.308 305.904 381.776 305.442 380.422 305.492Z" fill="#2D7DDA"/>
<path d="M385.711 293.892C385.735 296.169 383.777 298.228 381.54 298.28C379.659 298.324 378.122 296.747 378.119 294.773C378.117 292.768 380.281 290.673 382.359 290.668C384.554 290.662 385.689 291.754 385.711 293.892ZM382.976 291.843C381.148 291.852 379.362 293.348 379.334 294.894C379.312 296.101 380.306 297.119 381.501 297.114C383.269 297.107 384.673 295.67 384.68 293.858C384.685 292.417 384.195 291.837 382.976 291.843Z" fill="#2D7DDA"/>
<path d="M396.018 295.725C396.048 297.569 394.241 299.488 392.468 299.496C390.891 299.503 389.122 297.85 389.064 296.314C389.001 294.664 390.942 292.753 392.685 292.749C394.391 292.745 395.993 294.176 396.018 295.725ZM395.015 295.647C395.041 294.711 394.177 293.95 393.024 293.891C391.805 293.828 390.25 295.072 390.192 296.155C390.135 297.229 391.239 298.371 392.359 298.396C393.569 298.422 394.979 296.964 395.015 295.647Z" fill="#2D7DDA"/>
<path d="M397.497 306.248C396.107 306.247 394.827 305.191 394.786 304.03C394.749 302.959 396.555 300.883 398.091 301.064C399.49 301.228 400.336 301.786 400.346 302.962C400.362 304.696 399.016 306.249 397.497 306.248ZM397.26 305.566C398.492 305.281 399.528 304.09 399.361 302.962C399.303 302.569 398.701 301.985 398.32 301.963C397.187 301.897 395.552 303.282 395.829 304.045C396.047 304.646 396.764 305.066 397.26 305.566Z" fill="#2D7DDA"/>
<path d="M216.513 154.48C216.525 164.281 208.579 172.221 198.785 172.265C190.799 172.301 181.043 166.526 180.893 153.661C180.79 144.822 188.935 135.56 197.522 136.071C209.205 136.766 216.05 142.822 216.513 154.48ZM215.122 154.817C215.081 149.728 213.382 145.76 209.531 142.76C205.49 139.612 200.98 138.149 195.875 138.738C194.873 138.854 193.734 139.051 192.958 139.62C190.05 141.754 187.612 144.329 186.613 147.941C183.641 158.682 191.844 167.656 200.305 169.219C204.515 169.996 207.921 168.882 210.746 165.678C213.573 162.471 215.099 158.796 215.122 154.817ZM198.821 170.753C188.075 166.494 182.472 159.069 184.937 146.739C182.057 150.485 181.318 157.603 184.85 163.146C187.99 168.073 194.561 171.622 198.821 170.753Z" fill="#2D7DDA"/>
<path d="M185.473 134.107C185.286 134.395 185.203 134.676 185.018 134.785C181.722 136.721 179.135 139.39 177.12 142.66C176.644 139.299 182.807 133.074 185.473 134.107Z" fill="#2D7DDA"/>
<path d="M223.644 379.683C225.574 379.683 225.578 376.683 223.644 376.683C221.713 376.683 221.71 379.683 223.644 379.683Z" fill="#2D7DDA"/>
<path d="M230.335 378.228C232.265 378.228 232.269 375.228 230.335 375.228C228.404 375.228 228.401 378.228 230.335 378.228Z" fill="#2D7DDA"/>
<path d="M160.516 379.392C162.446 379.392 162.45 376.392 160.516 376.392C158.586 376.392 158.583 379.392 160.516 379.392Z" fill="#2D7DDA"/>
<path d="M162.262 337.5C164.192 337.5 164.196 334.5 162.262 334.5C160.332 334.5 160.328 337.5 162.262 337.5Z" fill="#2D7DDA"/>
<path d="M200.662 282.81C202.592 282.81 202.596 279.81 200.662 279.81C198.732 279.81 198.728 282.81 200.662 282.81Z" fill="#2D7DDA"/>
<path d="M359.789 283.974C361.719 283.974 361.723 280.974 359.789 280.974C357.859 280.974 357.856 283.974 359.789 283.974Z" fill="#2D7DDA"/>
<path d="M324.88 258.665C326.81 258.665 326.814 255.665 324.88 255.665C322.95 255.665 322.947 258.665 324.88 258.665Z" fill="#2D7DDA"/>
<path d="M328.953 265.065C330.883 265.065 330.887 262.065 328.953 262.065C327.022 262.065 327.019 265.065 328.953 265.065Z" fill="#2D7DDA"/>
<path d="M262.917 169.937C264.847 169.937 264.851 166.937 262.917 166.937C260.986 166.937 260.983 169.937 262.917 169.937Z" fill="#2D7DDA"/>
<path d="M264.371 162.374C266.301 162.374 266.305 159.374 264.371 159.374C262.441 159.374 262.437 162.374 264.371 162.374Z" fill="#2D7DDA"/>
<path d="M186.014 201.498C186.111 201.401 186.208 201.304 186.305 201.207C186.451 201.071 186.555 200.91 186.615 200.724C186.709 200.545 186.752 200.353 186.744 200.146C186.752 199.94 186.709 199.747 186.615 199.568C186.555 199.382 186.451 199.221 186.305 199.085C186.204 199.007 186.103 198.929 186.001 198.85C185.767 198.714 185.515 198.646 185.244 198.645C185.111 198.663 184.978 198.681 184.845 198.699C184.591 198.77 184.37 198.899 184.183 199.085C184.086 199.182 183.989 199.279 183.892 199.376C183.746 199.512 183.642 199.673 183.582 199.859C183.488 200.038 183.445 200.23 183.453 200.437C183.445 200.644 183.488 200.836 183.582 201.015C183.643 201.201 183.746 201.362 183.892 201.498C183.993 201.576 184.094 201.654 184.195 201.733C184.429 201.869 184.681 201.937 184.952 201.938C185.085 201.92 185.218 201.902 185.351 201.885C185.606 201.813 185.826 201.684 186.014 201.498Z" fill="#2D7DDA"/>
<path d="M144.226 157.428C146.156 157.428 146.16 154.428 144.226 154.428C142.295 154.428 142.292 157.428 144.226 157.428Z" fill="#2D7DDA"/>
<path d="M220.444 101.865C222.374 101.865 222.378 98.8647 220.444 98.8647C218.513 98.8647 218.51 101.865 220.444 101.865Z" fill="#2D7DDA"/>
<path d="M217.826 92.2646C219.756 92.2646 219.76 89.2646 217.826 89.2646C215.895 89.2646 215.892 92.2646 217.826 92.2646Z" fill="#2D7DDA"/>
<path d="M138.698 63.4646C140.628 63.4646 140.631 60.4646 138.698 60.4646C136.768 60.4646 136.765 63.4646 138.698 63.4646Z" fill="#2D7DDA"/>
<path d="M138.407 55.9006C140.337 55.9006 140.341 52.9006 138.407 52.9006C136.477 52.9006 136.474 55.9006 138.407 55.9006Z" fill="#2D7DDA"/>
<path d="M132.934 324.677C128.958 319.102 124.957 313.545 121.1 307.89C114.717 298.532 108.568 289.014 102.265 279.6C101.222 278.042 100.545 276.422 100.374 274.57C99.9519 270.012 101.113 265.687 102.523 261.456C104.807 254.601 107.358 247.835 109.694 240.997C111.604 235.407 113.407 229.779 115.18 224.144C117.622 216.386 118.684 208.416 118.465 200.294C118.349 195.996 117.152 192.047 113.85 189.037C113.308 188.542 112.521 188.094 111.816 188.042C109.911 187.899 108.116 188.421 106.614 189.659C103.177 192.493 100.516 195.973 98.6339 199.978C93.5899 210.711 91.7599 222.218 91.0599 233.904C90.7199 239.584 91.0249 245.312 91.2229 251.011C91.3289 254.057 91.7779 257.097 92.1749 260.125C92.4119 261.935 92.8469 263.718 93.1929 265.514C92.6509 265.104 92.2989 264.611 91.9729 264.102C91.1699 262.849 90.4339 261.549 89.5739 260.338C86.6769 256.261 83.7479 252.205 80.8109 248.157C77.8979 244.142 74.9489 240.151 72.0449 236.13C71.7239 235.685 71.3929 235.105 71.3969 234.59C71.4259 230.572 71.7799 226.589 72.9269 222.709C74.4959 217.4 76.1579 212.115 77.5679 206.763C79.6149 198.992 80.6029 191.025 81.4909 183.056C82.1369 177.256 82.5499 171.444 81.2969 165.646C80.6519 162.661 79.7169 159.817 77.8829 157.344C76.0259 154.839 73.5979 154.192 70.9329 155.795C69.6909 156.542 68.6029 157.779 67.8279 159.031C64.8599 163.832 63.0919 169.167 61.9899 174.635C60.9479 179.804 60.3429 185.082 59.8849 190.341C59.1629 198.631 58.8159 206.937 61.0739 215.108C62.0509 218.642 62.9159 222.208 63.9119 226.072C63.3529 225.475 62.9869 225.103 62.6429 224.712C61.4139 223.315 60.2379 221.869 58.9619 220.517C53.5349 214.766 47.7209 209.456 41.5639 204.47C32.9539 197.499 23.4369 192.676 12.4309 191.109C8.8109 190.593 5.2459 191.132 2.1839 193.468C0.489899 194.761 -0.2541 196.409 0.0769004 198.555C0.6409 202.213 2.4339 205.18 4.9299 207.85C8.4169 211.58 12.7749 214.024 17.1769 216.406C25.3459 220.828 34.2499 223.536 42.7369 227.221C44.7379 228.09 46.8889 228.608 48.9669 229.302C54.0969 231.014 59.2309 232.717 64.3479 234.466C65.4339 234.837 66.5269 235.281 67.4919 235.89C68.7379 236.676 69.8869 237.626 71.0239 238.57C71.8709 239.273 72.7699 239.978 73.4059 240.856C75.1009 243.2 76.6429 245.654 78.2879 248.034C81.4609 252.626 84.6759 257.188 87.8429 261.783C88.6739 262.99 89.3899 264.276 90.1589 265.525C90.1039 265.576 90.0499 265.626 89.9949 265.677C89.6529 265.478 89.3009 265.294 88.9699 265.078C81.6039 260.265 73.8789 256.181 65.4969 253.405C58.9189 251.227 52.2889 249.269 45.2619 249.592C41.4829 249.766 37.8139 250.593 34.4569 252.468C32.3239 253.659 31.0169 255.484 30.7319 257.88C30.3549 261.043 30.9069 264.113 32.6319 266.812C35.1279 270.716 38.5819 273.749 42.5339 276.033C48.0539 279.224 54.1359 280.73 60.5239 280.166C66.8939 279.604 73.2579 278.845 79.5799 277.882C85.4409 276.989 91.1969 277.195 96.9099 278.622C97.9759 278.888 99.1139 279.512 99.8479 280.311C101.097 281.67 102.092 283.274 103.124 284.821C106.201 289.429 109.238 294.063 112.303 298.679C113.869 301.038 115.46 303.38 117.039 305.729C116.964 305.808 116.889 305.888 116.815 305.967C116.259 305.644 115.702 305.321 115.146 304.997C111.96 303.138 108.724 301.384 105.093 300.537C101.15 299.616 97.2269 298.568 93.2449 297.862C85.8559 296.553 78.4479 295.789 70.9309 297.168C64.4539 298.356 58.4779 300.513 53.4679 304.896C52.3629 305.863 51.2769 306.951 50.5109 308.186C48.6459 311.191 48.8939 313.334 51.2949 315.934C52.9769 317.756 54.7199 319.534 56.5679 321.185C59.2069 323.544 62.0579 325.633 65.7039 326.133C67.7059 326.407 69.7349 326.664 71.7489 326.642C79.6739 326.557 87.4509 325.35 95.1629 323.524C101.109 322.116 107.093 320.811 113.121 319.833C116.929 319.215 120.847 319.243 124.719 319.084C125.315 319.059 126.145 319.42 126.508 319.883C129.789 324.066 133.029 328.28 136.269 332.494C135.2 329.87 134.061 327.276 132.934 324.677ZM61.3319 199.737C61.6919 191.302 62.0289 182.878 63.9439 174.633C65.1309 169.522 66.7509 164.514 69.4589 159.953C69.9779 159.078 70.6779 158.311 71.2939 157.494L71.6669 157.72C71.1669 159.278 70.6319 160.826 70.1719 162.396C68.0169 169.753 66.8129 177.304 65.7509 184.873C64.6639 192.619 64.0779 200.421 64.2789 208.239C64.3969 212.852 64.8929 217.468 65.4679 222.052C65.7199 224.061 66.5969 225.992 66.9509 228.07C66.6799 227.523 66.3159 227.002 66.1519 226.424C63.6719 217.689 60.9349 209.041 61.3319 199.737ZM10.5129 192.632C14.0319 192.741 17.4899 193.376 20.7869 194.698C26.4359 196.964 32.0359 199.369 36.8499 203.17C41.1599 206.573 45.5039 209.976 49.4679 213.762C54.3609 218.436 58.8779 223.505 63.5519 228.408C63.8839 228.756 64.1699 229.147 64.4309 229.559C44.2829 217.26 23.9199 205.392 2.2899 195.321C4.8799 192.84 7.6929 192.545 10.5129 192.632ZM51.7339 228.196C46.5379 226.657 41.4089 225.01 36.4189 222.879C31.1799 220.642 25.7639 218.813 20.5719 216.479C15.1799 214.056 9.9689 211.25 5.8339 206.83C3.6309 204.475 2.0209 201.841 1.5119 198.629C1.3779 197.785 1.4919 196.902 1.4919 195.762C13.0159 202.027 24.2589 207.876 35.2389 214.184C46.1809 220.471 57.4939 226.169 67.8199 233.682C62.3499 231.798 57.1049 229.787 51.7339 228.196ZM69.9019 230.488C69.8189 230.996 69.8349 231.52 69.7979 232.165C69.2039 230.264 68.7249 228.467 68.0839 226.73C66.1459 221.48 65.7919 215.994 65.6539 210.492C65.2979 196.322 66.9479 182.345 70.0069 168.531C70.8269 164.826 72.0159 161.204 72.9949 157.533C73.2209 156.684 73.7319 156.502 74.3499 156.901C75.1609 157.425 76.0319 157.997 76.5799 158.762C78.2989 161.16 79.0209 163.955 79.5609 166.828C80.5459 172.066 80.1869 177.303 79.5539 182.515C78.7619 189.032 78.0829 195.593 76.7349 202.004C75.3439 208.618 73.1179 215.053 71.4369 221.612C70.6929 224.512 70.3869 227.524 69.9019 230.488ZM92.9689 245.622C92.4489 233.585 93.6869 221.755 96.9679 210.167C97.8209 207.155 98.9649 204.204 100.23 201.336C101.967 197.397 104.546 194.018 107.817 191.191C108.066 190.976 108.346 190.795 108.624 190.619C108.712 190.563 108.841 190.573 109.104 190.525C108.943 190.952 108.858 191.3 108.691 191.604C105.576 197.312 103.466 203.413 102.134 209.735C100.363 218.144 98.7129 226.59 97.4079 235.081C96.6829 239.801 96.7659 244.645 96.4829 249.433C96.3799 251.167 96.3699 252.913 96.1469 254.631C95.5809 258.985 95.8839 263.296 96.5609 267.603C96.6109 267.921 96.6329 268.244 96.6679 268.565C96.5749 268.59 96.4829 268.615 96.3899 268.639C95.9079 267.035 95.3679 265.447 94.9539 263.825C93.4299 257.854 93.2329 251.741 92.9689 245.622ZM34.1909 254.691C35.7569 253.758 37.5159 253.043 39.2819 252.567C46.3159 250.673 53.1379 252.201 59.9089 254.1C70.4039 257.042 80.0229 261.851 89.0189 267.935C90.8229 269.155 92.4089 270.7 94.0809 272.112C94.3399 272.331 94.5219 272.643 94.8169 273.007C89.6819 270.48 84.3039 269.17 78.9729 267.767C72.2609 266.001 65.5029 264.409 58.7629 262.749C50.0539 260.604 41.3189 258.587 32.3699 257.687C32.2489 257.574 32.1279 257.46 32.0069 257.347C32.7219 256.439 33.2649 255.243 34.1909 254.691ZM90.5129 275.882C86.4119 275.314 82.3689 275.866 78.3079 276.447C72.3899 277.294 66.4589 278.084 60.5119 278.689C54.2919 279.322 48.3549 278.028 42.9979 274.848C39.2969 272.65 36.0199 269.798 33.6949 266.078C32.3309 263.896 31.8939 261.431 31.9759 258.451C37.9209 259.599 43.6229 260.543 49.2479 261.827C56.1709 263.408 63.0229 265.297 69.9169 267.007C75.9259 268.498 81.9879 269.788 87.9509 271.441C90.7789 272.225 93.4699 273.564 96.1339 274.838C96.8319 275.172 97.1969 276.201 97.7709 276.988C95.2229 276.598 92.8719 276.209 90.5129 275.882ZM98.5909 270.863C98.4479 270.882 98.3049 270.901 98.1619 270.919C97.9089 266.77 97.3879 262.615 97.4669 258.472C97.5809 252.485 98.1339 246.506 98.4909 240.523C99.0049 231.908 100.848 223.506 102.534 215.076C103.892 208.286 105.857 201.686 108.532 195.299C109.216 193.665 109.897 192.03 110.581 190.397C110.913 189.603 111.762 189.609 112.616 190.343C114.85 192.263 115.631 194.919 116.304 197.615C116.502 198.406 116.518 199.252 116.541 200.076C116.84 210.836 114.734 221.178 111.196 231.29C109.711 235.536 108.511 239.882 107.044 244.134C105.711 247.997 104.271 251.828 102.733 255.614C100.733 260.538 99.1979 265.57 98.5909 270.863ZM53.7869 307.479C57.6359 304.186 61.9159 301.747 66.8669 300.404C75.3029 298.117 83.7409 298.478 92.1919 300.054C96.2509 300.811 100.285 301.737 104.287 302.755C110.022 304.214 115.096 307.101 119.784 310.616C121.085 311.592 121.904 313.211 122.945 314.535C114.969 311.887 106.794 311.726 98.6989 311.221C89.9509 310.675 81.1839 310.166 72.4249 310.168C65.6199 310.169 58.8149 310.98 52.0099 311.431C51.8909 311.439 51.7709 311.432 51.3919 311.432C51.8679 309.841 52.5859 308.506 53.7869 307.479ZM112.21 318.156C104.478 319.717 96.8109 321.616 89.0619 323.08C82.2009 324.376 75.2739 325.337 68.2359 324.773C64.7269 324.492 61.6279 323.252 59.0319 320.91C56.8549 318.947 54.7869 316.86 52.7249 314.774C52.1979 314.241 51.8749 313.507 51.3539 312.704C53.3589 312.575 55.1119 312.449 56.8659 312.352C60.1689 312.169 63.4729 311.868 66.7769 311.86C72.6879 311.845 78.6009 311.952 84.5089 312.116C90.0479 312.27 95.5879 312.488 101.119 312.817C106.442 313.134 111.767 313.509 117.064 314.102C119.25 314.347 121.387 315.161 123.497 315.865C124.013 316.037 124.334 316.795 124.946 317.525C120.435 316.898 116.288 317.333 112.21 318.156Z" fill="#2D7DDA"/>
<path d="M344.908 85.6136C343.852 84.8716 342.762 85.4086 341.736 85.8766C341.437 86.0126 341.142 86.1816 340.889 86.3886C339.607 87.4326 338.286 88.4366 337.077 89.5606C331.882 94.3916 328.384 100.459 324.851 106.496C324.565 106.985 324.296 107.485 324.02 107.98C324.224 105.34 324.572 102.762 324.967 100.191C325.104 99.3016 325.154 98.3076 325.597 97.5746C327.708 94.0806 329.94 90.6606 332.111 87.2406C334.599 88.4466 335.721 88.4106 337.399 87.1996C339.244 85.8696 339.676 83.5096 338.428 81.5896C337.368 79.9596 335.408 79.6666 333.392 80.8356C331.397 81.9926 330.704 83.8926 331.366 86.0806C331.478 86.4506 331.266 87.0196 331.027 87.3786C329.701 89.3736 328.317 91.3316 326.959 93.3056C326.562 93.8826 326.183 94.4726 325.796 95.0566C325.912 92.9976 326.131 91.0236 326.529 89.0856C326.739 88.0636 327.147 87.0406 327.667 86.1326C328.404 84.8456 329.297 83.6426 330.174 82.4406C335.519 75.1136 340.258 67.4056 344.612 59.4576C345.723 57.4306 346.276 55.2336 346.343 52.9216C346.401 50.9336 345.203 49.9266 343.323 50.5896C342.224 50.9776 341.112 51.6156 340.287 52.4276C338.732 53.9576 337.263 55.6076 335.967 57.3606C331.386 63.5586 328.815 70.6266 327.231 78.1016C327.119 78.6296 326.906 79.1366 326.74 79.6546C326.064 77.0146 325.477 74.4366 324.739 71.9016C323.308 66.9856 321.875 62.0686 320.276 57.2066C319.568 55.0536 318.466 53.0206 316.691 51.4806C315.26 50.2396 314.017 50.5226 313.303 52.2926C312.267 54.8606 311.876 57.5446 312.034 60.3086C312.268 64.3916 313.656 68.1396 315.422 71.7656C317.919 76.8916 320.492 81.9806 322.951 87.1246C323.615 88.5146 324.305 89.9356 324.027 91.6236C322.986 97.9456 322.01 104.279 321.011 110.608C320.946 111.016 320.894 111.427 320.817 111.833C320.743 112.226 320.644 112.614 320.555 113.005C319.495 106.439 316.877 100.484 314.341 94.5116C313.194 91.8106 311.928 89.1356 309.803 87.0216C309.169 86.3906 308.437 85.7936 307.641 85.4046C306.348 84.7716 305.422 85.3386 305.289 86.7556C305.224 87.4486 305.273 88.1616 305.344 88.8576C306.013 95.4706 307.972 101.751 310.79 107.707C313.048 112.478 315.82 117.005 318.326 121.661C318.597 122.164 318.826 122.848 318.715 123.372C317.027 131.38 315.296 139.38 313.536 147.373C312.947 150.048 312.248 152.699 311.598 155.361L311.303 155.335C311.021 149.283 310.738 143.231 310.452 137.095C313.153 135.828 314.382 133.894 314.099 131.135C313.899 129.181 312.682 127.614 311.007 127.194C309.179 126.736 307.367 126.983 306.155 128.399C304.315 130.548 305.307 134.995 307.825 136.357C308.659 136.808 309.101 137.271 309.058 138.212C309.039 138.621 309.143 139.033 309.164 139.446C309.415 144.359 309.653 149.272 309.911 154.185C309.995 155.785 310.127 157.383 310.236 158.982C310.158 158.969 310.081 158.955 310.003 158.942C309.797 157.557 309.608 156.168 309.383 154.786C308.23 147.705 306.561 140.766 303.625 134.185C303.275 133.4 302.87 132.579 302.283 131.977C301.798 131.479 301.006 131.28 300.349 130.949C300.066 131.586 299.541 132.222 299.537 132.86C299.508 137.734 299.511 142.61 299.654 147.48C299.718 149.659 300.039 151.841 300.39 153.998C301.303 159.607 303.837 164.579 306.673 169.41C307.353 170.568 307.665 171.646 307.297 173.018C305.49 179.764 303.769 186.534 302.014 193.294C301.824 194.025 301.61 194.749 301.361 195.642C301.203 195.338 301.116 195.236 301.096 195.122C300.96 194.349 300.862 193.569 300.709 192.8C299.295 185.69 297.522 178.687 294.345 172.122C293.988 171.385 293.544 170.661 293.006 170.049C292.379 169.336 291.585 169.532 291.271 170.398C291.146 170.742 291.101 171.122 291.063 171.49C290.608 175.929 290.137 180.367 289.719 184.809C289.293 189.332 289.656 193.801 290.666 198.235C291.663 202.611 293.913 206.324 296.429 209.898C296.556 209.893 296.683 209.899 296.805 209.933C297.191 210.038 297.58 210.129 297.968 210.224C298.197 210.25 298.426 210.284 298.659 210.329C299.096 210.415 299.524 210.537 299.951 210.664C300.445 210.269 300.93 209.861 301.436 209.482C303.254 208.117 305.138 206.835 306.908 205.412C310.996 202.125 314.225 198.024 317.612 194.06C322.161 188.735 323.596 182.303 324.513 175.658C324.585 175.137 324.213 174.556 324.047 174.002C323.542 174.21 322.952 174.312 322.546 174.641C316.893 179.218 311.84 184.373 307.597 190.299C306.536 191.781 305.457 193.25 304.386 194.724C304.354 194.26 304.452 193.865 304.555 193.471C306.215 187.112 307.929 180.766 309.496 174.385C309.831 173.019 310.229 172.027 311.698 171.694C312.12 171.598 312.516 171.293 312.873 171.018C316.046 168.572 319.28 166.199 322.357 163.637C327.774 159.126 332.341 153.868 335.735 147.649C338.14 143.242 339.898 138.644 339.848 133.524C339.839 132.575 339.795 131.622 339.694 130.678C339.647 130.237 339.427 129.815 339.285 129.385C338.851 129.561 338.307 129.627 338.001 129.932C335.599 132.323 333.108 134.644 330.897 137.204C324.673 144.411 318.969 152.022 313.776 160.009C313.555 160.35 313.308 160.674 313.073 161.006C312.911 160.724 312.916 160.561 312.951 160.405C315.762 147.903 318.61 135.409 321.354 122.893C321.804 120.842 322.531 119.31 324.278 117.913C330.505 112.93 335.945 107.161 340.344 100.459C342.762 96.7756 345.05 93.0506 345.373 88.4936C345.44 87.4956 345.957 86.3516 344.908 85.6136ZM335.418 81.6876C336.565 81.6846 337.458 82.7106 337.455 84.0296C337.452 85.3506 335.922 86.7296 334.521 86.6726C333.644 86.6376 332.525 85.5016 332.497 84.6186C332.459 83.4186 334.181 81.6906 335.418 81.6876ZM344.559 52.0476C344.696 52.0876 344.834 52.1266 344.971 52.1666C344.791 53.0716 344.79 54.0636 344.4 54.8666C343.012 57.7206 341.617 60.5836 339.993 63.3066C337.287 67.8436 334.404 72.2756 331.595 76.7506C331.501 76.6946 331.406 76.6396 331.312 76.5836C335.727 68.4056 340.143 60.2266 344.559 52.0476ZM342.779 52.4776L343.128 52.6876C338.338 61.6056 333.548 70.5236 328.718 79.5146C327.74 73.4566 337.22 55.3176 342.779 52.4776ZM316.234 69.4366C314.78 66.4566 313.73 63.3256 313.493 59.9736C313.328 57.6356 313.726 55.3966 314.7 53.1756C315.965 63.3686 319.71 72.8276 322.846 82.4676C320.636 78.1266 318.37 73.8126 316.234 69.4366ZM315.683 52.5306C316.305 53.5366 317.118 54.4726 317.515 55.5606C318.842 59.1986 320.188 62.8446 321.214 66.5746C322.526 71.3436 323.549 76.1926 324.656 81.0166C324.838 81.8076 324.808 82.6476 324.877 83.4646C324.706 83.5026 324.535 83.5406 324.363 83.5786C320.681 73.4986 317.061 63.4006 315.683 52.5306ZM292.153 177.467C292.784 182.753 293.385 188.044 294.056 193.325C294.728 198.614 296.225 203.706 297.857 208.758C290.101 199.402 290.742 188.5 292.153 177.467ZM298.434 207.014C297.018 204.69 293.747 184.141 293.355 173.904C294.287 176.494 295.413 179.034 296.11 181.686C297.386 186.547 298.423 191.472 299.533 196.376C300.359 200.029 299.216 203.486 298.434 207.014ZM322.893 176.868C322.398 178.766 322.045 180.404 321.543 181.995C320.279 185.997 318.6 189.752 315.807 193.012C312.496 196.877 309.282 200.814 305.342 204.074C304.488 204.781 303.596 205.443 302.721 206.125C302.632 206.05 302.542 205.975 302.453 205.899C309.204 196.312 315.954 186.724 322.893 176.868ZM319.216 179.759C313.317 188.141 307.418 196.523 301.519 204.905C301.463 204.893 301.407 204.881 301.351 204.869C301.656 203.868 301.875 202.83 302.278 201.871C304.981 195.446 313.616 184.101 319.216 179.759ZM301.357 138.399C302.872 148.316 304.111 158.294 307.895 167.708C301.693 158.831 300.799 148.776 301.357 138.399ZM308.462 166.873C307.855 165.09 307.145 163.541 306.805 161.914C304.878 152.689 303.039 143.446 301.17 134.208C304.376 138.396 309.941 163.313 308.462 166.873ZM309.653 135.374C308.004 135.345 306.566 133.504 306.618 131.486C306.67 129.48 307.492 128.44 308.964 128.519C311.128 128.635 312.413 129.977 312.369 132.075C312.333 133.791 311.009 135.398 309.653 135.374ZM310.99 169.748C310.921 169.738 310.95 169.753 310.99 169.748V169.748ZM335.623 134.879C336.257 133.835 337.093 132.914 337.991 131.999C338.333 134.211 338.204 136.334 337.571 138.43C335.447 145.465 331.583 151.469 326.607 156.787C322.129 161.574 317.062 165.683 311.656 169.38C311.487 169.496 311.305 169.594 311.121 169.687C313.651 166.714 316.217 163.613 318.878 160.596C324.44 154.29 328.736 147.137 332.875 139.875C333.818 138.224 334.637 136.501 335.623 134.879ZM329.312 141.387C330.53 139.935 331.762 138.495 333.064 137.11C327.284 148.73 319.696 159.077 311.034 168.669C310.929 168.621 310.825 168.574 310.72 168.526C311.118 167.561 311.396 166.522 311.934 165.642C317.135 157.135 322.902 149.029 329.312 141.387ZM306.978 89.3926C310.871 99.1086 314.764 108.824 318.658 118.54C313.045 109.555 308.721 99.9926 306.978 89.3926ZM319.049 116.755C318.947 116.783 318.845 116.812 318.743 116.84C314.892 106.989 311.041 97.1376 307.19 87.2856C307.326 87.1956 307.461 87.1056 307.597 87.0156C308.594 88.3346 309.83 89.5366 310.542 90.9946C312.354 94.7026 313.98 98.5056 315.591 102.309C317.41 106.6 318.356 111.133 319.043 115.723C319.092 116.059 319.049 116.41 319.049 116.755ZM342.442 87.2596C336.087 96.0546 329.849 104.687 323.612 113.32C325.395 105.69 336.711 90.1876 342.442 87.2596ZM339.865 97.7606C335.245 104.904 329.431 110.963 322.977 116.445C322.921 116.493 322.824 116.494 322.34 116.637C322.81 115.708 323.05 115.006 323.471 114.436C328.89 107.091 334.327 99.7576 339.778 92.4366C341.125 90.6276 342.54 88.8686 344.077 86.8896C343.676 91.1126 341.969 94.5086 339.865 97.7606Z" fill="#2D7DDA"/>
<path d="M407.016 186.744C404.501 186.389 401.988 186.495 399.535 187.29C398.171 187.732 396.79 188.123 395.417 188.536C395.553 188 395.828 187.669 396.116 187.349C397.942 185.329 399.878 183.395 401.574 181.272C403.764 178.531 405.829 175.684 407.826 172.797C409.778 169.975 411.601 167.089 412.095 163.544C412.856 158.087 408.909 154.204 403.576 155.437C401.429 155.933 399.368 156.796 397.311 157.481C397.412 157.194 397.515 156.907 397.645 156.633C400.059 151.542 401.528 146.188 402.109 140.588C402.481 137.004 402.936 133.383 401.981 129.856C400.917 125.928 398.384 123.441 394.552 123.341C392.773 123.294 391.221 123.868 389.735 124.719C381.051 129.689 374.497 136.622 370.205 145.707C368.872 148.53 367.228 151.207 365.801 153.814C365.043 151.252 364.318 148.649 363.493 146.079C363.109 144.882 362.421 143.856 361.185 143.298C358.678 142.165 357.172 142.4 355.288 144.429C352.915 146.984 350.976 149.818 349.358 152.943C345.603 160.2 343.263 167.923 341.309 175.797C341.176 176.331 341.096 176.878 340.923 177.776C340.381 176.57 340.114 175.624 339.579 174.868C338.736 173.678 337.857 172.431 336.727 171.549C335.426 170.535 333.94 170.836 332.842 172.074C332.137 172.87 331.457 173.756 331.028 174.719C328.277 180.887 326.395 187.361 326.133 194.086C325.798 202.715 325.782 211.378 326.15 220.005C326.368 225.129 327.572 230.214 328.385 235.308C328.476 235.88 328.916 236.395 329.194 236.937C329.35 236.895 329.506 236.852 329.661 236.81C329.661 236.117 329.727 235.417 329.65 234.733C329.116 229.971 328.268 225.224 328.064 220.45C327.745 212.975 327.81 205.482 327.796 197.997C327.781 190.494 329.602 183.341 332.246 176.38C332.679 175.242 333.411 174.202 334.101 173.182C334.631 172.398 335.506 172.303 336.155 172.92C336.945 173.67 337.725 174.534 338.188 175.502C339.167 177.549 339.906 179.709 340.817 181.79C341.013 182.238 341.524 182.548 341.889 182.921C342.084 182.443 342.407 181.976 342.451 181.485C342.615 179.638 342.422 177.721 342.842 175.943C344.631 168.373 346.894 160.965 350.464 153.988C352.085 150.821 353.99 147.916 356.407 145.336C357.812 143.836 358.907 143.585 360.583 144.63C361.314 145.085 361.847 146.003 362.246 146.82C364.011 150.442 363.963 154.438 364.526 158.311C364.595 158.786 365.018 159.21 365.276 159.658C365.61 159.256 366.199 158.876 366.237 158.448C366.528 155.098 368.25 152.371 369.89 149.591C370.541 148.489 371.149 147.355 371.685 146.193C373.626 141.983 376.061 138.131 379.538 134.999C380.182 134.419 380.765 133.769 381.359 133.136C384.434 129.865 388.142 127.481 392.123 125.494C392.664 125.224 393.332 125.207 393.941 125.073C393.206 126.535 392.27 127.683 391.509 128.937C389.793 131.764 388.192 134.66 386.49 137.496C385.428 139.266 384.095 140.891 383.184 142.729C379.126 150.916 375.24 159.188 371.166 167.366C368.309 173.101 365.189 178.704 362.292 184.42C355.245 198.324 348.238 212.248 341.263 226.188C339.452 229.809 337.791 233.507 336.129 237.2C335.731 238.085 335.6 239.091 335.346 240.041C335.478 240.087 335.61 240.133 335.741 240.179C336.002 239.691 336.288 239.215 336.519 238.713C337.21 237.211 337.817 235.668 338.566 234.197C342.148 227.159 345.766 220.138 349.372 213.112C355.771 200.643 362.241 188.21 368.549 175.695C373.816 165.247 378.889 154.701 384.063 144.207C384.61 143.098 385.23 142.022 385.87 140.963C387.194 138.771 388.588 136.62 389.889 134.415C391.485 131.71 393.065 128.993 394.547 126.224C395.111 125.171 395.727 125.141 396.619 125.631C398.934 126.901 400.008 128.98 400.231 131.492C400.65 136.224 400.29 140.956 399.087 145.517C397.932 149.896 396.215 154.126 394.777 158.431C394.386 159.602 394.11 160.812 393.781 162.005C393.911 162.064 394.042 162.122 394.172 162.18C394.423 162.002 394.7 161.852 394.922 161.642C397.53 159.169 400.497 157.467 404.117 156.874C407.984 156.241 410.687 158.293 410.368 162.217C410.209 164.162 409.516 166.209 408.544 167.913C406.726 171.099 404.616 174.132 402.461 177.109C400.841 179.346 399.03 181.456 397.182 183.514C394.78 186.19 392.241 188.744 389.811 191.395C389.557 191.672 389.637 192.254 389.563 192.694C390.014 192.729 390.539 192.929 390.902 192.766C391.917 192.313 392.842 191.66 393.845 191.174C397.64 189.335 401.58 188.099 405.874 188.239C409.868 188.369 411.04 191.735 410.366 194.182C409.988 195.554 409.402 196.925 408.639 198.125C405.116 203.672 400.277 208.036 395.369 212.278C391.776 215.383 387.779 218.021 384.178 221.117C376.381 227.82 368.232 234.001 359.255 239.056C356.799 240.439 354.303 241.627 351.57 242.439C348.892 243.234 346.349 244.503 343.787 245.653C343.484 245.789 343.211 245.99 342.947 246.213C343.135 246.22 343.324 246.222 343.513 246.222C343.863 246.222 344.174 246.368 344.427 246.601C344.486 246.655 344.535 246.719 344.579 246.785C347.504 245.813 350.43 244.844 353.34 243.831C354.893 243.29 356.497 242.807 357.932 242.029C366.936 237.151 375.488 231.604 383.145 224.747C384.93 223.149 386.769 221.589 388.722 220.206C395.299 215.547 401.379 210.326 406.609 204.193C409.066 201.311 411.402 198.262 412.236 194.397C413.017 190.775 410.681 187.262 407.016 186.744ZM397.279 157.582C397.273 157.626 397.283 157.654 397.279 157.582V157.582Z" fill="#2D7DDA"/>
<path d="M220.629 391.611C220.525 391.59 220.421 391.566 220.317 391.544C220.31 391.543 220.303 391.545 220.295 391.544C219.865 391.505 219.45 391.43 219.048 391.272C218.956 391.246 218.871 391.207 218.789 391.163C214.769 395.401 210.716 399.608 206.79 403.931C204.838 406.08 203.349 408.567 202.481 411.396C202.046 412.815 201.48 414.2 200.889 415.564C200.038 417.526 199.135 417.783 197.366 416.679C196.323 416.028 195.227 415.711 194.109 416.45C192.981 417.196 192.158 416.835 191.492 415.83C190.307 414.043 189.091 412.272 187.995 410.432C186.874 408.55 185.946 408.238 184.444 409.774C182.281 411.986 180.312 414.387 178.235 416.685C177.38 417.631 176.537 418.621 175.531 419.383C175.101 419.709 173.978 419.797 173.666 419.489C171.866 417.713 170.383 415.76 170.09 413.046C169.821 410.555 169.331 408.063 168.666 405.647C168.013 403.276 167.06 402.663 164.631 402.994C163.107 403.202 161.546 403.698 160.182 404.41C155.35 406.934 150.588 409.591 145.817 412.23C143.864 413.31 141.997 414.55 140.018 415.576C137.023 417.13 134.043 415.333 134.118 412.006C134.18 409.268 134.656 406.607 135.964 404.115C136.668 402.774 137.13 401.292 137.585 399.837C138.008 398.484 137.332 397.712 135.926 397.913C135.035 398.041 134.104 398.225 133.309 398.621C128.133 401.194 123.003 403.86 117.83 406.439C114.655 408.022 111.519 409.748 108.203 410.966C104.844 412.2 103.217 410.578 104.325 407.184C105.123 404.74 106.255 402.327 107.665 400.181C109.702 397.08 112.15 394.251 114.361 391.26C114.706 390.793 114.973 389.99 114.801 389.514C114.674 389.163 113.744 388.869 113.223 388.938C111.513 389.162 109.762 389.377 108.141 389.931C103.332 391.573 98.5909 393.412 93.7929 395.09C92.4449 395.561 91.0079 395.894 89.5879 396.014C87.9169 396.156 87.5199 395.455 88.3649 393.996C90.3879 390.505 93.0029 387.474 96.5509 385.54C102.827 382.119 109.19 378.85 115.601 375.687C118.06 374.474 120.546 373.317 123.039 372.173C122.969 372.147 122.899 372.115 122.83 372.074C122.404 371.825 122.133 371.28 122.19 370.781C122.094 370.826 121.995 370.867 121.898 370.913C116.675 373.398 111.54 376.067 106.363 378.65C102.886 380.385 99.3319 381.978 95.9399 383.864C91.9399 386.087 88.9819 389.437 86.8639 393.466C85.6349 395.805 86.7289 397.584 89.3819 397.466C91.1219 397.389 92.8949 396.955 94.5549 396.392C99.6799 394.654 104.752 392.759 109.861 390.971C110.718 390.671 111.655 390.596 112.915 390.346C112.529 390.875 112.393 391.067 112.252 391.254C110.18 393.988 107.99 396.642 106.066 399.477C104.134 402.323 102.515 405.385 102.42 408.954C102.353 411.46 103.71 412.8 106.211 412.85C106.824 412.862 107.503 412.886 108.044 412.654C111.416 411.211 114.809 409.802 118.096 408.18C123.02 405.749 127.854 403.135 132.747 400.639C133.679 400.164 134.708 399.876 136.02 399.377C135.526 400.769 135.311 401.893 134.763 402.821C133.334 405.245 132.868 407.917 132.494 410.622C131.956 414.521 133.452 416.789 136.983 417.51C138.559 417.832 139.995 417.468 141.387 416.686C147.509 413.246 153.632 409.806 159.794 406.436C161.195 405.67 162.714 405.067 164.243 404.601C166.06 404.047 166.846 404.549 167.279 406.428C167.724 408.357 168.304 410.317 168.322 412.268C168.35 415.327 169.778 417.64 171.583 419.831C173.355 421.981 175.077 422.117 177.244 420.317C178.001 419.688 178.65 418.921 179.299 418.174C179.841 417.552 180.283 416.842 180.822 416.216C182.509 414.254 184.221 412.313 186.045 410.224C186.418 410.819 186.604 411.129 186.804 411.431C188.012 413.254 189.16 415.121 190.452 416.882C191.682 418.559 192.842 418.791 194.642 417.84C195.458 417.41 196.105 417.517 196.821 418.011C198.742 419.337 200.406 419.09 201.673 417.126C202.473 415.886 203.132 414.519 203.634 413.13C204.912 409.595 207.005 406.602 209.537 403.894C213.095 400.09 216.709 396.338 220.28 392.546C220.542 392.268 220.785 391.963 221.001 391.643C220.876 391.644 220.749 391.635 220.629 391.611Z" fill="#2D7DDA"/>
<path d="M391.837 350.25C390.973 349.36 390.243 348.33 389.324 347.507C386.266 344.767 383.577 341.562 379.625 339.939C376.759 338.762 373.932 337.484 371.123 336.175C370.523 335.895 369.926 335.608 369.33 335.318C368.799 335.802 368.263 336.281 367.682 336.689C368.616 337.089 369.555 337.482 370.472 337.915C375.775 340.421 381.652 341.88 385.864 346.392C387.553 348.201 389.469 349.805 391.081 351.676C393.492 354.473 393.798 359.907 388.82 362.113C384.974 363.817 380.998 365.03 377.009 366.255C375.871 366.604 374.97 367.528 374.738 368.696C374.455 370.124 375.269 371.052 375.947 372.028C376.795 373.25 377.829 374.38 378.472 375.7C379.816 378.459 379.208 379.334 376.986 380.025C374.925 380.666 372.723 381.1 370.571 381.152C364.1 381.309 357.591 381.781 351.225 380.006C350.083 379.688 348.994 379.81 348.164 380.781C347.347 381.736 347.319 382.827 347.779 383.926C348.031 384.528 348.349 385.133 348.764 385.632C350.138 387.285 351.545 388.912 352.985 390.508C355.002 392.743 356.618 395.214 357.647 398.054C358.279 399.798 358.013 400.515 356.382 401.353C355.943 401.579 355.473 401.747 355.007 401.915C351.876 403.041 348.657 402.922 345.446 402.471C337.261 401.322 329.393 399.091 321.971 395.393C321.417 395.117 320.865 394.813 320.278 394.634C319.131 394.285 318.018 394.436 317.199 395.364C316.446 396.218 316.875 397.159 317.265 398.037C317.784 399.206 318.428 400.329 318.837 401.533C319.371 403.104 318.699 404.733 317.18 405.357C316.188 405.764 315.021 406.029 313.965 405.944C310.034 405.631 306.393 404.126 302.882 402.519C298.477 400.503 294.125 398.448 289.385 397.314C286.05 396.516 282.75 395.571 279.425 394.729C278.147 394.405 276.853 394.036 275.549 393.952C273.825 393.84 267.722 391.958 265.992 392.059C265.682 392.077 265.273 392.383 264.977 392.623C258.038 390.61 277.189 395.719 280.291 396.776C282.868 397.654 285.563 398.177 288.166 398.986C291.436 400.003 294.704 401.049 297.901 402.269C301.638 403.695 305.244 405.479 309.016 406.794C310.881 407.444 312.99 407.601 314.99 407.607C318.353 407.616 320.839 404.778 320.274 401.654C320.045 400.388 319.264 399.23 318.821 397.991C318.595 397.357 318.562 396.653 318.442 395.981C319.184 396.046 319.93 396.081 320.665 396.192C320.934 396.232 321.196 396.424 321.427 396.594C323.773 398.314 326.485 399.181 329.226 399.994C330.612 400.405 331.976 400.888 333.351 401.335C339.246 403.251 345.251 404.654 351.485 404.132C353.472 403.965 355.469 403.228 357.337 402.428C359.034 401.701 359.856 399.77 359.224 398.034C358.802 396.874 358.383 395.65 357.665 394.673C355.517 391.749 353.221 388.934 350.985 386.074C350.401 385.327 349.687 384.638 349.293 383.8C349.017 383.213 348.926 382.25 349.238 381.768C349.481 381.392 350.487 381.354 351.124 381.428C352.016 381.531 352.865 381.996 353.757 382.102C360.465 382.904 367.196 383.125 373.918 382.401C375.519 382.228 377.131 381.621 378.604 380.928C380.475 380.048 381.106 378.67 380.442 376.731C379.933 375.244 378.98 373.9 378.156 372.533C377.519 371.477 376.704 370.525 376.104 369.451C375.633 368.609 375.937 367.968 376.951 367.7C378.748 367.224 380.573 366.806 382.309 366.158C385.127 365.106 387.947 364.019 390.645 362.7C392.761 361.666 394.083 359.816 394.149 357.361C394.225 354.739 393.775 352.247 391.837 350.25Z" fill="#2D7DDA"/>
<path d="M410.684 146.467C409.7 146.417 408.713 146.395 407.734 146.298C407.51 146.276 407.226 146.035 407.129 145.822C407.057 145.665 407.175 145.307 407.326 145.18C412.324 141.004 417.477 137.058 424.109 135.89C425.559 135.635 427.15 135.785 428.609 136.079C430.411 136.442 431.112 137.937 430.555 139.691C429.955 141.58 428.761 143.031 426.834 143.537C423.607 144.383 420.342 145.106 417.066 145.739C414.965 146.145 412.815 146.296 410.687 146.561C410.687 146.53 410.685 146.498 410.684 146.467ZM409.843 144.854C410.978 144.736 411.833 144.702 412.667 144.551C417.168 143.739 421.685 142.991 426.146 141.997C427.18 141.767 428.223 140.817 428.904 139.925C430.075 138.392 429.608 137.481 427.67 137.11C426.908 136.964 426.079 136.786 425.347 136.938C419.593 138.134 414.337 140.364 409.843 144.854Z" fill="#2D7DDA"/>
<path d="M367.091 127.09C367.357 121.681 368.308 117.013 370.138 112.535C370.879 110.721 372.018 109.252 373.769 108.29C376.63 106.718 378.983 107.956 378.822 111.186C378.73 113.037 378.279 114.994 377.483 116.662C375.084 121.691 372.557 126.675 368.903 130.962C368.661 131.246 368.256 131.391 367.927 131.6C367.771 131.258 367.524 130.928 367.475 130.571C367.292 129.225 367.173 127.869 367.091 127.09ZM368.337 129.432C368.639 129.086 368.797 128.954 368.894 128.787C371.377 124.502 373.945 120.261 376.28 115.897C377.034 114.487 377.398 112.769 377.544 111.157C377.734 109.057 376.439 108.389 374.542 109.38C372.863 110.257 371.913 111.732 371.261 113.429C369.313 118.495 368.453 123.767 368.337 129.432Z" fill="#2D7DDA"/>
<path d="M427.499 158.948C427.516 161.063 425.45 162.514 423.505 161.986C421.347 161.401 419.87 159.877 418.678 158.118C417.339 156.141 416.184 154.039 414.904 152.02C414.658 151.633 414.162 151.413 413.861 151.05C413.683 150.835 413.556 150.467 413.608 150.21C413.642 150.043 414.058 149.821 414.277 149.846C417.738 150.253 421.229 150.733 423.895 153.233C425.131 154.392 426.054 155.905 427.011 157.33C427.359 157.849 427.395 158.577 427.499 158.948ZM415.719 151.862C417.543 154.245 419.348 156.643 421.206 159C421.579 159.473 422.122 159.838 422.642 160.166C423.607 160.775 424.654 161.081 425.61 160.199C426.578 159.305 425.978 158.318 425.501 157.488C423.381 153.8 420.109 151.953 415.719 151.862Z" fill="#2D7DDA"/>
<path d="M342.512 114.464C342.207 116.114 341.566 117.983 339.925 119.191C336.967 121.369 333.91 123.415 330.868 125.476C330.558 125.686 330.067 125.629 329.66 125.695C329.677 125.273 329.545 124.763 329.734 124.442C331.467 121.496 333.175 118.529 335.059 115.679C336.238 113.895 338.115 112.922 340.166 112.387C341.715 111.985 342.559 112.659 342.512 114.464ZM341.48 112.966C340.544 113.254 339.828 113.388 339.187 113.686C335.216 115.532 333.942 119.58 331.67 122.82C334.29 121.214 336.903 119.639 339.304 117.789C340.647 116.755 341.302 115.113 341.48 112.966Z" fill="#2D7DDA"/>
<path d="M139.269 384.33C132.439 387.344 126.658 390.456 125.097 392.389C130.141 389.969 135.148 387.489 140.194 385.101C139.754 385.03 139.432 384.715 139.269 384.33Z" fill="#2D7DDA"/>
<path d="M131.354 379.901C130.167 380.467 128.986 381.048 127.813 381.647C124.958 383.105 122.24 384.833 119.459 386.438C119.542 386.582 119.626 386.726 119.709 386.869C123.791 384.69 127.91 382.601 132.081 380.643C131.747 380.494 131.473 380.229 131.354 379.901Z" fill="#2D7DDA"/>
<path d="M158.438 390.771C153.964 394.634 149.71 398.754 145.716 403.181C150.217 399.034 154.754 394.93 159.42 390.979C159.098 390.971 158.771 390.905 158.438 390.771Z" fill="#2D7DDA"/>
<path d="M166.87 391.641C164.235 393.999 162.089 396.107 161.624 396.943C163.749 395.154 165.87 393.369 167.994 391.581C167.625 391.704 167.243 391.749 166.87 391.641Z" fill="#2D7DDA"/>
<path d="M198.715 389.065C198.704 389.066 198.693 389.067 198.681 389.066C198.676 389.066 198.671 389.065 198.666 389.065C198.663 389.065 198.661 389.064 198.658 389.064C198.64 389.062 198.606 389.058 198.567 389.053C198 391.607 198.085 402.631 198.759 403.805C199.273 401.158 199.283 391.295 198.841 389.049C198.783 389.057 198.729 389.064 198.715 389.065Z" fill="#2D7DDA"/>
<path d="M192.66 405.211C192.48 402.021 192.299 398.831 192.119 395.642C192.217 395.636 192.314 395.63 192.412 395.624C192.668 398.812 192.924 402 193.18 405.188C193.007 405.195 192.833 405.203 192.66 405.211Z" fill="#2D7DDA"/>
<path d="M116.494 399.31C115.709 399.838 115.256 400.275 114.721 400.434C114.52 400.494 114.127 399.909 113.821 399.619C114.267 399.157 114.673 398.636 115.192 398.281C115.295 398.211 115.833 398.776 116.494 399.31Z" fill="#2D7DDA"/>
<path d="M390.771 149.865C392.701 149.865 392.705 146.865 390.771 146.865C388.841 146.865 388.837 149.865 390.771 149.865Z" fill="#2D7DDA"/>
<path d="M310.917 391.61C312.847 391.61 312.851 388.61 310.917 388.61C308.986 388.61 308.983 391.61 310.917 391.61Z" fill="#2D7DDA"/>
<path d="M318.335 389.865C320.265 389.865 320.269 386.865 318.335 386.865C316.404 386.865 316.401 389.865 318.335 389.865Z" fill="#2D7DDA"/>
<path d="M143.353 409.065C145.283 409.065 145.287 406.065 143.353 406.065C141.422 406.065 141.419 409.065 143.353 409.065Z" fill="#2D7DDA"/>
<path d="M359.789 231.901C361.719 231.901 361.723 228.901 359.789 228.901C357.859 228.901 357.856 231.901 359.789 231.901Z" fill="#2D7DDA"/>
<path d="M365.026 228.41C366.956 228.41 366.96 225.41 365.026 225.41C363.095 225.41 363.092 228.41 365.026 228.41Z" fill="#2D7DDA"/>
<path d="M71.3529 205.283C73.2829 205.283 73.2869 202.283 71.3529 202.283C69.4219 202.283 69.4189 205.283 71.3529 205.283Z" fill="#2D7DDA"/>
<path d="M72.6619 196.119C74.5919 196.119 74.5959 193.119 72.6619 193.119C70.7319 193.119 70.7279 196.119 72.6619 196.119Z" fill="#2D7DDA"/>
<path d="M76.589 321.792C78.519 321.792 78.522 318.792 76.589 318.792C74.659 318.792 74.656 321.792 76.589 321.792Z" fill="#2D7DDA"/>
</svg>
