<svg width="1046" height="1073" viewBox="0 0 1046 1073" fill="none" xmlns="http://www.w3.org/2000/svg">
<path d="M35.598 333.31C67.787 379.845 113.125 415.892 162.084 443.464C211.689 471.082 265.989 490.753 322.237 499.092L322.253 498.983C266.02 490.644 211.731 470.979 162.137 443.367C113.187 415.799 67.865 379.762 35.686 333.246C36.758 332.486 37.204 331.367 35.518 328.751C33.793 326.106 30.427 322.919 29.289 323.615C28.159 324.306 29.736 328.716 31.507 331.423C33.232 334.1 34.521 334.032 35.598 333.31Z" fill="white"/>
<path d="M744.188 871.12L744.262 871.119C744.284 865.277 743.723 859.589 742.675 854.123C743.815 860.777 744.161 866.783 744.188 871.12Z" fill="white"/>
<path d="M729.359 819.059C734.938 826.835 739.515 836.082 742.461 846.406C740.185 837.047 736.208 827.166 729.359 819.059Z" fill="white"/>
<path d="M722.499 812.401C718.477 809.216 713.774 806.552 708.239 804.668C697.067 800.859 685.385 801.637 675.339 806.85C665.864 811.771 658.993 820.122 655.991 830.392C650.857 847.893 661.327 867.125 679.323 873.253C686.558 875.718 694.121 875.21 700.624 871.832C706.766 868.646 711.224 863.23 713.171 856.58C716.499 845.216 709.708 832.739 698.034 828.754C693.324 827.159 688.386 827.483 684.151 829.685C680.147 831.767 677.234 835.3 675.967 839.64C673.791 847.07 678.225 855.242 685.855 857.833C688.95 858.892 692.197 858.675 694.983 857.222C697.629 855.85 699.546 853.523 700.382 850.664C701.824 845.738 698.896 840.349 693.847 838.631C691.789 837.918 689.624 838.065 687.765 839.03C686.314 839.782 685.219 840.977 684.558 842.431C684.422 842.672 684.322 842.913 684.252 843.172C684.222 843.261 684.181 843.336 684.154 843.429L684.198 843.444C683.969 844.668 684.386 845.983 685.425 846.822C686.926 848.047 689.139 847.81 690.36 846.31C691.571 844.799 691.347 842.598 689.839 841.375C689.412 841.025 688.924 840.81 688.412 840.693C688.471 840.666 688.514 840.618 688.561 840.595C690.006 839.844 691.674 839.736 693.287 840.289C697.447 841.701 699.876 846.138 698.701 850.163C697.999 852.564 696.391 854.513 694.179 855.672C691.817 856.887 689.066 857.072 686.417 856.172C679.673 853.875 675.729 846.68 677.651 840.127C678.783 836.251 681.385 833.102 684.961 831.243C688.775 829.261 693.218 828.965 697.472 830.41C708.265 834.097 714.563 845.615 711.488 856.084C709.675 862.268 705.532 867.313 699.821 870.278C693.747 873.433 686.662 873.898 679.882 871.597C662.772 865.758 652.799 847.5 657.674 830.874C660.546 821.079 667.096 813.1 676.144 808.407C685.758 803.417 696.96 802.675 707.685 806.325C718.1 809.873 725.574 816.269 730.94 823.824C729.219 821.024 727.383 818.38 725.454 815.925C724.494 814.703 723.507 813.53 722.499 812.401Z" fill="white"/>
<path d="M818.278 352.523C818.262 352.544 818.244 352.548 818.227 352.562C818.247 352.579 818.265 352.574 818.278 352.523Z" fill="white"/>
<path d="M597.65 249.136C597.646 249.15 597.634 249.153 597.629 249.165C597.646 249.172 597.654 249.164 597.65 249.136Z" fill="white"/>
<path d="M1008.6 710.648C1023.03 688.397 1005.34 688.162 1005.34 688.162C1005.34 688.162 1012.17 690.516 1002.5 698.313C992.825 706.076 961.631 673.331 908.218 704.304C860.842 731.728 859.353 768.455 859.353 768.455C854.878 767.349 850.725 726.697 850.725 726.697C846.581 733.936 844.25 741.051 843.242 748.093C838.895 737.478 833.608 727.911 827.114 719.44C820.104 710.3 814.298 701.729 809.481 693.726C803.914 672.596 803.309 646.478 822.171 625.58C832.231 614.444 845.673 608.081 860.017 607.66C873.508 607.258 886.244 612.272 895.88 621.758C912.234 637.86 912.47 665.419 896.425 683.201C890.063 690.239 881.565 694.27 872.499 694.525C863.979 694.779 855.932 691.612 849.847 685.628C839.54 675.487 839.401 658.097 849.519 646.875C853.514 642.462 858.845 639.937 864.534 639.768C869.872 639.618 874.916 641.59 878.723 645.344C885.169 651.683 885.243 662.557 878.923 669.56C876.436 672.312 873.132 673.871 869.612 673.986C866.308 674.076 863.188 672.851 860.829 670.533C856.871 666.625 856.824 659.928 860.728 655.608C862.238 653.93 864.242 652.979 866.39 652.919C866.466 652.913 866.542 652.937 866.628 652.933C866.113 653.396 865.686 653.966 865.415 654.643C864.462 657.031 865.618 659.728 867.999 660.687C870.38 661.64 873.087 660.485 874.039 658.1C874.698 656.462 874.334 654.672 873.278 653.402L873.321 653.355C873.233 653.269 873.135 653.207 873.042 653.123C872.796 652.866 872.521 652.652 872.213 652.458C870.509 651.205 868.473 650.53 866.31 650.595C863.533 650.675 860.934 651.902 859.007 654.051C854.276 659.294 854.361 667.42 859.204 672.192C862.014 674.961 865.736 676.419 869.681 676.301C873.842 676.184 877.738 674.341 880.639 671.121C887.796 663.207 887.662 650.889 880.351 643.691C876.09 639.484 870.447 637.278 864.464 637.447C858.141 637.627 852.221 640.435 847.8 645.322C836.858 657.456 837.037 676.271 848.218 687.282C854.76 693.719 863.408 697.118 872.569 696.852C882.276 696.568 891.356 692.276 898.139 684.757C915.017 666.063 914.737 637.059 897.512 620.11C887.419 610.164 874.083 604.927 859.942 605.339C844.959 605.778 830.935 612.413 820.457 624.019C802.662 643.732 801.77 667.68 806.202 688.103C778.899 639.608 789.13 613.829 789.13 613.829C765.077 654.924 802.933 706.527 802.933 706.527C802.933 706.527 728.996 646.421 756.305 575.963C794.073 478.483 876.174 518.979 876.174 518.979C843.474 487.918 798.166 511.134 798.166 511.134C890.917 452.033 947.747 557.862 947.747 557.862C910.913 465.382 833.196 485.583 833.196 485.583C851.949 473.327 875.16 471.097 875.16 471.097C797.51 454.977 732.768 550.087 742.715 618.231C752.672 686.333 803.863 720.155 803.863 720.155C801.262 719.684 798.496 718.73 795.628 717.408C775.72 697.942 752.637 676.03 726.395 653.113C720.439 647.971 714.292 642.771 707.956 637.558C698.303 625.55 683.211 605.779 666.641 579.618C638.716 536.444 603.998 465.764 627.747 395.871C632.314 381.047 638.978 366.995 647.166 354.074C675.834 346.202 695.229 356.731 695.397 357.336C701.437 360.037 713.967 368.191 722.338 384.204C731.401 399.088 733.938 423.062 717.63 435.294C703.271 448.007 679.297 442.963 673.018 431.455C666.38 419.679 672.592 409.151 670.458 408.825C670.394 407.912 660.269 417.358 667.095 434.714C674.742 451.281 704.059 458.957 723.895 442.883C745.514 427.392 742.207 395.275 731.758 379.105C722.326 360.924 707.504 351.087 700.116 347.787C699.973 347.043 681.676 337.865 655.587 341.893C685.167 302.464 728.85 276.165 767.141 275.273C823.367 276.045 843.265 318.987 843.293 318.188C848.266 325.905 856.79 347.735 844.456 370.294C834.23 393.287 794.542 401.11 774.31 380.556C764.622 370.781 760.27 355.227 766.773 344.16C772.682 332.97 785.591 328.103 795.025 330.681C814.221 337.054 817.083 353.488 818.229 352.564C817.799 352.203 815.652 335.945 795.575 328.498C785.308 325.394 770.887 330.475 764.228 342.776C756.848 355.116 761.592 372.306 771.976 382.879C793.98 405.233 836.064 397.077 847.605 371.971C860.784 347.987 851.589 324.449 846.416 316.438C846.261 317.174 825.745 272.749 767.224 272.003C726.723 273.156 681.518 301.093 651.672 342.591C644.424 344.045 636.654 346.524 628.546 350.489C608.984 358.584 590.531 379.457 583.982 404.677C577.147 429.794 579.377 458.58 588.658 483.818C606.751 534.498 637.91 575.726 664.899 604.546C654.833 597.426 644.374 590.475 633.524 583.81C593.22 546.928 546.133 496.61 510.116 436.407C497.866 413.823 487.634 389.096 480.775 364.319C480.232 362.162 479.7 360.002 479.183 357.839C478.241 341.151 482.7 327.235 488.963 317.567C490.299 315.486 491.779 313.425 493.474 311.62C495.305 309.65 497.751 307.508 500.545 307.209C504.397 306.812 508.509 307.669 508.938 312.185C506.162 308.605 502.9 313.146 504.041 316.289C504.859 318.525 507.392 320.31 509.839 320.018C513.201 319.604 515.241 315.855 514.825 312.709C514.071 307.322 508.132 305.373 503.472 305.098C501.574 304.981 498.313 305.71 496.676 306.693C497.094 305.247 499.037 304.426 500.216 303.615C502.829 301.75 505.924 300.752 509.077 300.209C511.736 299.76 514.387 300.12 517.072 299.991C520.733 299.745 523.768 299.487 527.375 300.273C531.124 301.093 534.392 303.331 537.419 305.572C537.084 304.013 537.501 302.168 537.355 300.549C536.862 295.27 533.534 288.295 528.496 286.021C526.203 285.012 523.375 285.157 520.954 284.71C521.363 284.769 522.555 284.094 523.043 283.986C523.908 283.811 524.8 283.769 525.682 283.833C527.358 283.96 528.988 284.541 530.437 285.382C533.907 287.341 536.085 290.897 538.242 294.135C540.938 298.25 547.522 300.367 552.097 298.573C550.781 299.093 547.171 291.451 547.698 290.063C547.189 291.386 552.478 295.413 553.698 296.109C556.791 297.95 561.944 298.078 563.117 302.253C564.523 298.708 564.186 290.61 560.081 285.451C557.877 282.649 556.258 280.289 553.161 278.418C554.207 279.05 555.417 279.19 556.482 280.035C557.257 280.644 557.982 281.294 558.76 281.885C564.981 286.546 568.448 296.791 569.603 305.959C570.492 312.904 567.831 323.954 564.173 329.87C560.388 336.003 551.749 341.451 544.366 341.192C543.126 341.143 542.269 340.248 540.858 340.452C543.732 340.193 546.126 338.532 547.025 335.725C548.988 329.495 543.934 322.458 537.126 324.097C532.138 325.283 529.691 331.177 531.739 335.742C533.071 338.661 535.888 341.069 538.922 342.062C543.318 343.496 547.957 343.33 552.189 341.429C575.928 330.801 576.937 296.057 559.634 280.266C552.319 273.593 542.7 268.721 532.758 268.534C520.76 268.296 509.803 274.225 501.523 282.604C498.42 285.709 495.657 289.178 493.184 292.8C480.696 311.116 476.413 329.147 476.295 345.11C475.749 342.563 475.226 340.012 474.714 337.458C468.261 300.035 470.806 264.253 487.192 237.525C520.351 188.411 568.358 189.572 568.314 189.432C578.381 189.202 602.018 189.136 624.063 204.646C646.131 217.928 661.245 256.375 641.288 280.685C631.579 291.677 615.618 297.236 602.96 293.491C590.238 289.365 580.812 278.712 578.657 268.657C576.798 258.395 583.112 249.656 588.583 247.992C594.243 246.485 597.317 249.769 597.633 249.166C597.36 249.064 594.606 245.495 588.177 246.642C581.74 248.346 574.576 257.412 576.291 269.074C578.527 280.394 588.206 291.652 602.035 296.414C616.289 300.744 633.182 294.844 643.955 282.977C662.268 260.616 653.834 228.638 637.002 210.468C638.751 212.056 640.217 213.628 641.247 215.136C649.222 226.821 655.528 243.552 676.101 245.355C676.101 245.355 672.657 239.202 673.351 237.391C673.351 237.391 686.384 245.688 707.214 235.915C730.716 224.91 726.896 206.286 731.894 204.81C736.906 203.342 736.08 206.267 736.08 206.267C736.08 206.267 740.246 200.106 729.107 199.747C729.107 199.747 729.023 171.428 700.089 164.377C700.089 164.377 699.087 166.811 702.87 168.659C702.87 168.659 667.719 167.952 667.042 192.579C667.042 192.579 671.354 184.534 678.574 185.703C685.806 186.883 686.477 189.551 697.207 188.715C697.207 188.715 685.933 190.254 689.581 201.584C689.581 201.584 699.62 194.18 705.482 205.811C711.321 217.432 703.991 227.329 695.158 230.634C695.158 230.634 697.26 229.125 695.34 225.85C695.34 225.85 682.901 236.177 670.128 229.577C670.128 229.577 690.625 232.72 692.98 217.476C692.98 217.476 690.799 219.54 686.012 220.143C686.012 220.143 686.641 219.661 686.372 216.615C686.372 216.615 674.023 220.357 668.066 213.754C662.105 207.16 647.421 198.834 635.413 197.479C635.413 197.479 638.527 195.878 640.373 192.869C640.373 192.869 632.475 194.185 624.399 194.367C620.939 194.425 602.484 189.746 602.729 189.825C603.005 189.911 603.585 190.151 604.386 190.508C589.016 185.356 575.324 185.48 568.163 185.613C568.14 185.842 518.527 184.655 484.295 235.56C473.504 253.405 468.598 274.752 468.2 297.725C464.838 271.622 463.204 245.289 463.204 218.991C463.204 217.203 463.212 215.418 463.227 213.631C464.141 144.938 476.263 75.1759 507.344 13.3869C508.789 14.0969 510.253 13.9239 512.078 10.5739C513.907 7.17595 515.352 1.69395 513.94 0.87895C512.537 0.0729495 508.726 4.34795 506.857 7.83495C504.991 11.2639 505.832 12.6059 507.245 13.3379C476.153 75.1479 464.029 144.925 463.116 213.632C463.101 215.42 463.094 217.205 463.094 218.992C463.094 245.541 464.759 272.127 468.186 298.477C467.998 312.987 469.601 328.136 472.652 343.454C456.092 291.575 431.74 242.212 401.699 196.827C363.494 139.716 315.306 87.8149 255.554 52.9319C256.337 51.5489 256.31 49.9629 252.879 48.1069C249.41 46.202 243.887 44.694 243.148 46.1339C242.409 47.5879 246.608 51.3969 249.993 53.2489C253.348 55.0629 254.671 54.4089 255.497 53.0279C315.229 87.8989 363.407 139.788 401.606 196.886C431.829 242.55 456.292 292.24 472.853 344.467C474.758 353.841 477.2 363.274 480.106 372.659C480.912 375.517 481.798 378.214 482.721 380.722C482.977 381.48 483.235 382.238 483.497 382.994C483.805 384.297 484.116 385.598 484.413 386.903L484.522 386.879C484.302 385.912 484.069 384.948 483.843 383.981C485.26 388.029 486.754 392.06 488.325 396.065C485.152 390.982 481.281 385.441 476.598 379.702C452.984 350.73 410.978 316.473 349.431 308.936L349.435 308.778C348.755 308.755 348.045 308.725 347.316 308.692C343.228 308.235 339.06 307.89 334.801 307.678C305.764 304.317 260.913 291.971 247.411 248.404C242.078 231.094 243.771 213.214 252.154 198.058C260.083 183.801 273.12 173.646 288.939 169.521C315.728 162.459 344.479 179.215 353.068 206.842C356.433 217.799 355.394 229.087 350.072 238.671C345.05 247.662 336.824 254.063 326.844 256.695C309.964 261.144 291.83 250.57 286.429 233.139C284.318 226.265 284.957 219.163 288.292 213.169C291.403 207.53 296.59 203.527 302.809 201.868C313.393 199.097 324.708 205.722 328.077 216.625C329.418 220.886 329.02 225.271 326.959 228.977C324.989 232.498 321.849 234.976 317.956 235.972C311.455 237.694 304.446 233.611 302.419 226.889C301.574 224.277 301.847 221.607 303.106 219.362C303.139 219.272 303.205 219.223 303.259 219.107C303.412 219.928 303.73 220.715 304.26 221.409C306.161 223.898 309.681 224.349 312.158 222.465C314.591 220.587 315.063 217.042 313.197 214.595C311.882 212.895 309.815 212.189 307.865 212.49L307.825 212.442C307.694 212.465 307.53 212.537 307.421 212.573C307 212.674 306.59 212.821 306.209 213.025C303.874 214.028 301.894 215.695 300.631 217.972C298.996 220.931 298.677 224.393 299.703 227.713C302.207 235.852 310.73 240.767 318.673 238.681C323.281 237.474 327.103 234.526 329.393 230.35C331.844 225.946 332.318 220.77 330.78 215.787C326.981 203.457 314.128 195.992 302.121 199.157C295.123 201.006 289.335 205.499 285.844 211.821C282.137 218.489 281.373 226.347 283.74 233.983C289.569 252.821 309.22 264.223 327.574 259.415C338.297 256.586 347.147 249.713 352.516 240.03C358.193 229.764 359.334 217.683 355.739 205.998C346.743 176.963 316.449 159.363 288.204 166.795C271.652 171.159 257.982 181.759 249.718 196.696C240.937 212.513 239.179 231.172 244.777 249.226C256.196 286.1 289.105 301.331 316.977 307.545C315.489 307.595 313.994 307.655 312.486 307.735C303.624 308.206 294.74 309.352 286.077 311.443C262.905 316.983 241.162 329.751 228.969 350.72C218.855 368.181 217.187 389.856 221.06 409.544C230.238 456.081 291.41 490.793 334.706 460.867C342.437 455.507 347.591 447.671 349.725 438.55C351.194 432.275 349.979 424.826 346.303 419.47C340.615 411.186 327.839 409.215 320.55 416.557C310.56 426.642 317.44 442.806 330.255 445.907C336.058 447.319 341.443 444.934 344.933 440.199C343.1 442.468 343.723 444.862 342.514 447.045C335.199 460.079 316.732 469.348 302.154 469.475C288.053 469.589 266.15 462.554 255.071 453.75C240.397 442.137 226.334 425.407 224.787 409.737C224.592 407.772 224.21 405.806 223.966 403.836C223.642 401.128 224.669 398.905 224.643 396.411C224.646 403.684 227.067 408.977 229.581 415.765C234.239 428.288 247.836 437.338 255.449 438.652C249.454 432.26 254.673 423.188 254.74 415.917C254.773 413.051 253.392 399.697 250.529 399.17C253.475 399.722 262.928 413.995 260.654 415.753C268.554 409.695 271.809 396.047 267.545 387.05C264.14 379.962 260.318 372.458 260.545 364.415C260.642 360.998 261.337 357.576 262.904 354.523C263.684 352.943 264.694 351.45 265.914 350.142C266.594 349.402 269.007 348.093 269.322 347.267C267.579 351.923 264.375 356.68 263.728 361.688C262.315 372.808 270.94 385.905 279.567 392.28C282.215 394.231 285.803 395.495 288.177 397.685C287.479 390.087 286.996 382.05 289.53 374.713C291.937 367.658 295.591 362.695 299.829 356.57C302.912 352.118 305.042 347.135 308.623 343.021C312.867 338.128 317.866 333.823 323.842 331.2C326.446 330.083 329.905 327.538 332.855 328.324C329.444 330.107 324.763 334.994 322.947 338.427C318.557 346.778 315.688 359.098 324.216 366.041C329.221 370.053 337.842 370.513 342.094 365.091C345.166 361.196 344.766 354.903 341.706 351.108C337.466 345.857 326.203 346.753 329.5 355.304C322.124 349.846 324.966 341.801 329.7 335.575C333.152 331.07 339.426 329.079 344.718 327.973C349.668 326.941 354.746 326.537 359.752 326.393C399.366 325.258 454.83 345.965 494.91 411.73C494.956 411.833 495.001 411.937 495.047 412.039C495.765 414.07 496.496 416.098 497.24 418.12L497.345 418.081C496.76 416.49 496.189 414.895 495.619 413.299C499.379 421.585 503.429 429.699 507.714 437.554C542.525 495.167 587.292 543.497 626.61 579.636C603.074 565.671 577.738 553.15 550.524 543.312C534.271 537.135 517.308 532.309 499.962 528.85C436.649 511.005 371.092 501.042 305.409 498.235C294.517 497.822 283.598 497.608 272.667 497.608C185.959 497.608 98.501 511.082 18.852 546.175C17.919 544.114 16.086 542.81 11.086 545.209C6.01403 547.602 -0.309966 552.682 0.731034 554.73C1.77803 556.786 9.64104 555.137 14.579 552.796C19.465 550.448 19.806 548.382 18.896 546.275C98.527 511.192 185.97 497.72 272.667 497.72C283.596 497.72 294.515 497.934 305.404 498.347C370.627 501.132 435.727 510.975 498.625 528.586C441.374 517.417 379.999 521.313 325.863 542.268C303.92 550.754 282.812 562.519 264.259 577.443C243.53 588.616 224.227 587.752 211.378 582.554C209.408 581.767 207.43 580.852 205.631 579.718C203.671 578.49 201.467 576.778 200.759 574.473C199.799 571.288 199.852 567.68 203.59 566.582C201.022 569.507 205.384 571.519 207.847 570.048C209.602 568.993 210.695 566.567 210.051 564.55C209.153 561.781 205.662 560.67 203.074 561.532C198.655 563.044 197.977 568.372 198.503 572.344C198.713 573.967 199.857 576.599 200.952 577.818C199.666 577.702 198.658 576.195 197.781 575.332C195.784 573.434 194.439 570.984 193.468 568.414C192.655 566.245 192.529 563.951 191.985 561.707C191.182 558.658 190.469 556.142 190.547 552.973C190.628 549.678 191.985 546.559 193.382 543.639C192.122 544.174 190.498 544.123 189.157 544.511C184.784 545.784 179.442 549.726 178.344 554.348C177.865 556.445 178.448 558.804 178.464 560.921C178.447 560.563 177.687 559.67 177.514 559.273C177.226 558.573 177.046 557.827 176.956 557.076C176.791 555.641 177.014 554.171 177.49 552.811C178.576 549.569 181.223 547.153 183.604 544.806C186.633 541.863 187.348 535.965 185.09 532.398C185.745 533.425 179.886 537.711 178.63 537.495C179.827 537.708 182.365 532.592 182.753 531.451C183.804 528.543 183.073 524.178 186.403 522.508C183.184 521.899 176.409 523.502 172.726 527.8C170.722 530.115 168.994 531.864 167.919 534.779C168.283 533.795 168.204 532.751 168.744 531.717C169.132 530.963 169.562 530.247 169.933 529.494C172.853 523.49 180.931 518.899 188.473 516.434C194.185 514.557 203.938 515.004 209.52 517.125C215.31 519.321 221.309 525.719 222.291 531.987C222.451 533.042 221.834 533.91 222.239 535.067C221.553 532.686 219.763 530.935 217.249 530.634C211.677 529.991 206.561 535.398 209.053 540.873C210.863 544.888 216.232 545.992 219.749 543.522C221.995 541.924 223.568 539.157 223.91 536.436C224.405 532.496 223.511 528.609 221.219 525.351C208.397 507.055 178.929 511.858 168.425 529.017C163.987 536.272 161.441 545.175 162.902 553.591C164.652 563.749 171.434 572.026 179.847 577.646C182.971 579.759 186.346 581.524 189.802 583.022C219.385 595.807 244.453 588.901 260.911 580.224C250.924 588.609 241.717 597.916 233.613 608.178C209.549 638.115 196.467 675.549 193.821 712.184C189.225 748.445 199.356 787.313 224.373 811.612C248.242 836.895 282.33 847.699 312.408 845.236C343.669 841.98 365 815.013 366.627 790.37C368.221 778.092 363.987 765.586 355.653 758.523C347.439 751.326 336.883 748.829 328.02 750.49C318.91 752.797 314.135 761.389 314.196 768.278C313.887 775.791 321.285 780.021 325.907 778.691C329.146 777.884 330.369 774.966 330.094 772.772C330.418 775.808 326.815 780.201 321.69 778.213C315.099 776.902 312.375 767.224 317.104 759.914C321.101 751.838 332.269 748.87 342.382 752.522C352.67 755.368 361.971 764.875 364.407 777.118C366.191 789.381 363.33 803.431 355.732 815.201C348.188 826.998 335.788 836.575 321.082 840.327C306.41 843.88 289.961 841.984 274.579 837.547C243.611 828.236 216.204 803.166 205.188 771.111C194.133 739.178 199.382 703.009 208.257 671.783C227.463 606.965 283.106 567.915 326.135 551.988C328.13 551.184 330.189 550.403 332.278 549.634C329.597 551.679 327.036 554.025 324.616 556.75C324.616 556.75 338.025 558.704 340.1 561.813C340.1 561.813 312.802 571.783 305.058 614.203C296.362 662.013 329.642 677.752 326.429 686.935C323.201 696.107 319.555 691.516 319.555 691.516C319.555 691.516 324.599 704.852 337.39 688.571C337.39 688.571 381.717 721.06 424.63 685.867C424.63 685.867 421.876 681.549 414.863 685.091C414.863 685.091 454.697 633.309 416.979 603.953C416.979 603.953 424.785 619.654 415.005 629.129C405.186 638.588 400.31 636.511 389.773 653.529C389.773 653.529 399.798 634.876 378.097 627.308C378.097 627.308 378.567 650.844 353.988 646.249C329.389 641.619 322.053 619.247 326.579 602.228C326.579 602.228 326.643 607.106 333.864 608.019C333.864 608.019 331.44 577.487 355.871 565.984C355.871 565.984 328.335 593.041 349.536 614.102C349.536 614.102 348.709 608.477 353.035 600.616C353.035 600.616 353.112 602.131 358.155 605.201C355.64 603.664 375.519 577.968 378.711 575.415C398.011 559.827 419.06 549.015 442.47 541.15C450.153 538.591 456.34 535.437 463.875 534.077C476.698 535.314 489.735 537.361 502.842 540.363C527.279 545.931 551.466 554.57 574.928 565.343C551.387 559.371 523.281 559.444 499.996 580.251C486.66 592.18 478.916 608.293 478.201 625.62C477.539 641.964 483.297 657.498 494.447 669.349C513.452 689.573 546.411 690.408 567.88 671.204C576.519 663.472 581.53 653.05 581.992 641.824C582.433 631.233 578.699 621.168 571.476 613.478C559.134 600.355 537.742 599.8 523.824 612.256C518.183 617.291 514.924 624.095 514.613 631.412C514.34 638.325 516.774 644.892 521.491 649.905C529.562 658.503 543.539 658.856 552.643 650.718C556.339 647.405 558.487 642.941 558.687 638.117C558.877 633.562 557.272 629.234 554.165 625.918C548.83 620.244 539.588 620.003 533.561 625.383C531.101 627.577 529.665 630.568 529.526 633.781C529.429 636.258 530.18 638.631 531.572 640.636C531.778 641.007 532.023 641.31 532.301 641.605C532.41 641.725 532.466 641.837 532.564 641.943L532.622 641.884C534.049 643.126 536.072 643.591 537.949 642.855C540.676 641.778 542.027 638.671 540.965 635.906C539.923 633.131 536.865 631.745 534.144 632.809C533.365 633.118 532.722 633.6 532.188 634.18C532.185 634.09 532.164 633.995 532.17 633.899C532.274 631.421 533.388 629.125 535.318 627.396C540.282 622.964 547.88 623.129 552.255 627.793C554.868 630.551 556.21 634.181 556.057 638.001C555.887 642.066 554.053 645.875 550.902 648.694C542.845 655.897 530.505 655.602 523.39 648.05C519.175 643.579 517.003 637.706 517.264 631.533C517.525 624.948 520.47 618.818 525.561 614.294C538.45 602.768 558.184 603.231 569.579 615.337C576.296 622.485 579.757 631.845 579.359 641.708C578.923 652.195 574.231 661.946 566.144 669.18C545.706 687.448 514.4 686.695 496.344 667.492C485.699 656.185 480.196 641.356 480.838 625.738C481.539 609.16 488.956 593.713 501.756 582.282C530.946 556.176 568.234 563.922 593.547 574.406C628.202 592.239 660.918 614.371 690.038 637.725C717.503 659.591 742.598 681.921 765.075 702.628C766.233 703.927 767.366 705.162 768.475 706.335C748.728 695.869 728.136 689.74 708.996 687.12C661.979 681.121 615.931 691.132 573.023 724.468C552.36 741.231 534.173 766.178 525.754 796.305C517.07 826.192 518.297 860.857 531.451 891.645C544.18 922.791 569.265 949.336 599.701 960.291C629.775 971.937 662.243 969.324 686.685 958.317C711.514 947.673 728.574 929.35 736.412 912.694C744.703 896.058 745.518 882.213 746.016 875.687C746.362 865.277 745.032 855.43 742.457 846.404C739.512 836.08 734.935 826.834 729.355 819.057C725.391 813.532 720.925 808.744 716.178 804.845C698.667 790.352 678.98 787.205 664.719 788.187C652.748 789.097 643.867 792.33 637.834 795.334C645.772 791.485 658.096 787.635 675.618 788.749C690.263 789.95 708.501 796.704 722.494 812.399C723.502 813.528 724.489 814.701 725.449 815.924C727.379 818.379 729.215 821.024 730.935 823.823C736.303 832.556 740.513 842.861 742.67 854.12C743.718 859.586 744.279 865.274 744.257 871.116C744.233 877.423 743.531 883.906 742.013 890.478C740.596 896.732 737.172 909.565 726.824 923.975C716.452 938.132 697.995 952.78 673.334 960.052C648.952 967.43 618.276 966.358 591.272 952.527C563.922 939.236 543.081 912.507 532.743 882.677C522.377 853.167 522.748 820.911 531.954 793.365C539.874 768.958 554.298 748.414 570.994 733.386C551.338 753.73 533.567 787.351 528.585 810.949C521.439 844.9 528.423 879.633 552.169 905.595C568.635 923.556 583.485 938.328 608.139 942.306C639.344 947.331 674.296 924.534 679.548 900.57C671.61 920.338 654.398 931.067 637.481 935.485C597.035 946.095 570.322 917.73 564.728 911.063C586.244 922.514 592.606 926.447 614.995 921.902C603.674 922.651 587.489 920.802 580.532 912.804C582.359 914.929 593.639 915.876 596.46 915.523C616.113 913.135 627.207 899.945 627.36 894.554C616.057 908.124 599.4 913.235 581.144 907.92C559.505 901.652 548.355 887.334 539.766 870.187C529.824 850.373 530.718 826.423 535.606 805.32C533.125 815.952 534.912 828.122 537.63 838.562C540.66 850.32 546.41 861.413 554.043 870.809C561.643 880.105 575.415 890.959 587.915 891.046C585.811 891.041 553.932 884.496 540.49 828.181C530.828 787.84 560.661 751.72 581.468 724.938C621.15 696.216 663.27 686.985 707.611 691.983C728.854 694.651 752.232 701.731 774.325 714.659C778.388 717.037 782.395 719.621 786.327 722.395C788.41 724.347 790.468 726.276 792.497 728.178C771.419 714.481 746.451 703.412 724.3 705.394C698.647 707.729 661.149 720.972 654.783 749.621C665.911 738.111 681.768 726.746 696.494 720.505C692.497 725.921 687.4 729.079 688.958 736.349C687.906 731.345 710.501 720.609 714.254 719.303C745.752 708.439 776.09 722.858 801.223 741.33C782.135 729.088 751.54 728.971 735.893 746.535C746.318 734.832 775.611 737.02 788.128 742.171C778.22 738.393 760.667 742.81 750.792 746.107C738.723 750.124 727.677 756.895 718.386 765.537C734.536 750.471 772.691 743.133 793.612 749.059C808.79 753.356 823.541 761.848 833.268 774.059C835.486 776.848 837.828 779.662 840.225 782.502C848.961 797.56 855.798 813.882 860.663 830.774C860.87 831.649 860.974 832.123 860.974 832.123C860.959 831.972 860.943 831.823 860.928 831.673C863.337 840.171 865.244 848.809 866.644 857.5C854.308 830.201 830.88 800.467 800.333 800.703C817.087 810.796 834.966 826.559 846.436 842.379C838.892 839.106 833.734 833.904 825.505 837.752C831.174 835.127 850.153 859.083 852.737 863.194C860.411 875.473 864.219 888.457 865.282 901.663C864.076 916.503 862.426 931.113 860.856 943.101C858.155 953.228 854.494 963.193 850.358 972.775C859.699 946.693 851.451 910.236 826.249 896.423C843.041 905.625 848.467 941.101 845.768 957.415C847.548 944.583 837.477 924.897 830.844 914.044C822.751 900.776 811.661 889.483 798.826 880.79C821.191 895.888 840.389 939.299 839.071 965.831C838.118 985.081 832.053 1004.97 820.182 1019.9C807.798 1035.44 795.524 1054.17 781.16 1068.44C780.172 1069.17 779.7 1069.52 779.821 1069.54C779.705 1069.52 780.151 1069.19 781.086 1068.52C779.847 1069.75 778.598 1070.96 777.325 1072.11C788.117 1067.78 794.689 1058.83 802.458 1050.65C804.13 1049.05 805.876 1047.34 807.691 1045.51C821.952 1032.54 838.155 1012.54 847.524 994.935C856.465 978.026 865.75 956.313 871.183 934.11C873.553 928.682 875.649 924.305 876.942 922.509C888.259 906.978 901.55 893.338 901.55 893.338C893.167 892.855 885.814 896.769 885.814 896.769C899.464 871.463 903.139 831.48 898.354 810.874C893.539 790.271 917.62 771.226 917.62 771.226C912.032 766.565 910.24 767.124 910.24 767.124C917.911 758.602 924.903 757.148 924.903 757.148C891.931 741.052 870.242 785.362 870.242 785.362C874.685 751.446 911.755 741.159 911.755 741.159C907.963 732.96 902.162 735.019 902.162 735.019C920.615 722.25 949.905 721.373 964.668 748.55C979.441 775.798 951.342 785.362 951.342 785.362C968.52 807.871 986.839 787.932 986.839 787.932C970.642 807.771 974.943 812.684 967.42 828.43C959.904 844.125 938.338 841.619 938.338 841.619C987.369 873.745 1033.72 804.103 1033.72 804.103C1032.18 814.012 1038.31 815.359 1038.31 815.359C1063.82 749.254 1008.6 710.648 1008.6 710.648ZM479.285 358.739C479.263 358.652 479.24 358.566 479.218 358.479C479.218 358.471 479.217 358.462 479.216 358.454C479.238 358.549 479.262 358.644 479.285 358.739ZM476.293 345.632C476.293 345.69 476.294 345.748 476.294 345.806C476.071 344.724 475.855 343.643 475.647 342.563C475.861 343.587 476.073 344.61 476.293 345.632ZM595.8 481.608C576.702 432.854 594.369 372.698 632.657 359.401C636.323 357.704 639.879 356.334 643.32 355.218C635.826 367.611 629.704 380.976 625.404 395.018C601.596 466.134 637.21 537.341 665.469 580.305C681.25 604.784 695.705 623.591 705.588 635.618C698.058 629.465 690.26 623.304 682.192 617.204C654.001 587.763 615.492 540.527 595.8 481.608Z" fill="white"/>
<path d="M420.731 473.054C420.573 473.057 420.531 473.095 420.531 473.095C420.531 473.095 420.584 473.116 420.731 473.054Z" fill="white"/>
<path d="M425.628 467.413C422.37 471.892 421.181 472.844 420.731 473.054C421.202 473.022 422.844 473.296 427.546 475.795C433.866 479.33 437.462 478.932 437.501 478.972C436.391 479.145 435.279 479.328 434.202 479.584C434.191 479.537 439.416 481.913 444.489 483.753C449.58 485.574 453.802 484.515 453.832 484.491L452.47 486.144C452.452 486.234 453.181 487.069 459.428 487.701C465.482 488.336 467.109 488.03 467.129 487.977L465.62 490.01C465.623 489.95 470.911 489.758 474.256 489.338C477.43 489 481.112 488.206 481.089 488.268L479.559 490.429C479.536 490.465 481.971 490.186 485.89 490.313C490.348 490.458 492.27 490.054 492.3 490.029C491.44 490.695 490.593 491.355 489.792 492.032C489.772 492.174 492.961 491.868 501.106 491.008C508.388 490.208 515.827 488.081 520.656 484.047C518.682 483.668 516.189 482.133 513.185 480.722C513.026 481.014 513.7 479.819 499.299 474.264C492.01 471.664 478.869 468.908 467.369 468.434C455.869 467.866 446.286 468.654 446.289 468.672C438.062 469.358 437.92 468.766 446.127 467.309C446.13 467.294 454.869 465.763 466.181 465.378C477.5 464.844 491.413 466.469 500.802 469.53C510.171 472.655 513.87 475.08 515.494 475.894C517.128 476.767 516.571 476.389 516.576 476.374C518.919 477.465 521.228 480.104 522.438 481.794C525.74 476.266 524.018 467.016 515.597 459.218C506.159 450.675 500.81 449.195 500.934 449.044C501.71 450.177 502.461 451.302 503.2 452.433C503.197 452.482 500.775 450.424 494.328 448.404C488.655 446.628 485.267 445.771 485.271 445.737L486.748 448.339C486.742 448.277 481.928 446.478 477.521 445.479C472.947 444.478 465.659 444.05 465.67 444.136L467.68 446.152C467.698 446.228 465.381 445.538 457.611 446.739C449.66 447.986 449.148 449.418 449.139 449.343L451.099 450.693C451.132 450.704 445.605 450.33 440.311 453.665C435.01 456.977 430.563 461.164 430.593 461.184C431.768 460.938 432.954 460.729 434.162 460.538C433.546 460.688 429.722 462.007 425.628 467.413Z" fill="white"/>
<path d="M612.342 667.483C612.342 667.483 612.383 667.48 612.455 667.399C612.357 667.447 612.342 667.483 612.342 667.483Z" fill="white"/>
<path d="M613.779 662.446C613.115 666.188 612.669 667.134 612.455 667.399C612.734 667.238 613.831 666.912 617.482 667.04C622.443 667.322 624.544 665.994 624.579 666.007C623.947 666.448 623.316 666.895 622.728 667.377C622.707 667.351 626.644 667.245 630.328 666.854C634.016 666.448 636.302 664.525 636.312 664.502L635.969 665.933C635.984 665.992 636.685 666.288 640.73 664.799C644.655 663.372 645.568 662.693 645.562 662.656L645.244 664.364C645.227 664.326 648.432 662.619 650.371 661.353C652.226 660.188 654.259 658.592 654.263 658.638L653.969 660.432C653.965 660.46 655.385 659.555 657.842 658.455C660.634 657.203 661.698 656.377 661.709 656.353C661.38 657.021 661.054 657.685 660.765 658.343C660.795 658.436 662.672 657.288 667.437 654.308C671.688 651.624 675.638 648.076 677.405 644.135C676.074 644.496 674.072 644.298 671.795 644.333C671.785 644.561 671.843 643.62 661.289 644.523C656.011 645.109 647.075 647.361 639.839 650.525C632.571 653.632 626.9 657 626.905 657.009C622.036 659.907 621.771 659.584 626.396 656.217C626.393 656.206 631.324 652.635 638.187 648.996C645.008 645.264 654.081 642.083 660.792 641.148C667.512 640.26 670.522 640.643 671.77 640.658C673.041 640.704 672.583 640.638 672.582 640.629C674.355 640.598 676.574 641.53 677.829 642.209C678.204 637.807 674.359 632.618 666.821 630.339C658.429 627.906 654.686 628.601 654.717 628.472C655.537 628.938 656.336 629.406 657.133 629.881C657.146 629.911 655.032 629.371 650.449 630.062C646.414 630.674 644.068 631.163 644.058 631.14L645.75 632.302C645.728 632.265 642.217 632.603 639.2 633.312C636.077 634.07 631.452 635.998 631.485 636.047L633.331 636.686C633.365 636.728 631.728 636.999 627.296 640.075C622.766 643.236 622.88 644.273 622.853 644.23L624.468 644.471C624.491 644.469 620.971 645.901 618.707 649.548C616.431 653.187 614.948 657.105 614.972 657.109C615.622 656.603 616.292 656.117 616.978 655.638C616.639 655.921 614.679 657.886 613.779 662.446Z" fill="white"/>
<path d="M558.652 378.716C558.346 378.945 557.269 379.402 553.059 379.98C547.917 380.783 545.635 382.886 545.306 383.251C545.873 382.505 546.449 381.779 547.041 381.076C547.035 381.047 542.589 382.533 538.423 384.916C534.244 387.285 532.49 391.159 532.493 391.131L532.293 389.316C532.34 389.35 531.184 389.176 527.453 394.099C523.818 398.92 523.441 400.736 523.398 400.698L522.764 398.603C522.712 398.566 520.352 403.651 519.366 407.107C518.439 410.449 517.907 414.36 517.948 414.388L516.724 412.444C516.747 412.455 516.097 415.057 515.235 419.538C514.261 424.633 514.772 427.02 514.738 427.004C514.243 426.093 513.756 425.177 513.269 424.241C513.417 424.21 512.471 428.367 514.822 437.853C517.039 446.383 522.668 450.909 527.608 450.684C526.902 449.251 525.955 446.729 526.069 444.749C526.078 444.75 526.136 445.266 526.136 443.84C526.177 442.449 525.88 439.066 527.175 431.593C528.515 424.13 532.471 414.132 536.942 406.666C541.317 399.158 545.525 393.804 545.538 393.808C549.507 388.785 549.857 389.097 546.399 394.411C546.39 394.402 542.374 400.599 538.581 408.582C534.721 416.533 531.81 426.423 530.918 432.298C529.444 444.055 530.498 444.033 530.245 444.038C530.107 446.581 530.236 448.823 529.78 450.297C534.261 448.496 538.401 444.239 541.59 439.605C545.13 434.408 546.498 432.36 546.393 432.324C545.643 432.619 544.886 432.951 544.127 433.291C544.153 433.28 545.125 432.126 546.646 429.059C547.984 426.363 549.061 424.815 549.025 424.82L547.01 425.069C546.956 425.063 548.831 422.859 550.214 420.838C551.715 418.726 553.766 415.218 553.807 415.24L551.886 415.521C551.927 415.526 552.727 414.536 554.495 410.212C556.34 405.758 556.038 404.961 555.97 404.94L554.358 405.261C554.384 405.249 556.635 402.777 557.256 398.675C557.853 394.573 558.144 390.176 558.171 390.2C557.608 390.838 557.079 391.521 556.558 392.211C556.543 392.168 558.121 389.88 558.027 384.32C558.05 380.233 558.459 379.023 558.652 378.716Z" fill="white"/>
<path d="M558.652 378.716C558.747 378.641 558.754 378.595 558.754 378.595C558.754 378.595 558.713 378.61 558.652 378.716Z" fill="white"/>
<path d="M328.224 770.242C327.819 770.138 327.474 770.105 327.171 770.117C327.71 770.127 328.373 770.352 329.181 770.951C329.614 771.319 329.886 771.801 330.019 772.341C329.777 771.281 329.161 770.454 328.224 770.242Z" fill="white"/>
<path d="M325.246 771.869C325.246 772.071 325.278 771.115 325.987 770.533C325.282 771.117 325.093 772.082 325.246 771.869Z" fill="white"/>
<path d="M330.095 772.771C330.079 772.624 330.053 772.48 330.019 772.34C330.051 772.48 330.076 772.624 330.095 772.771Z" fill="white"/>
<path d="M326.021 770.505C326.295 770.291 326.669 770.139 327.171 770.117C326.692 770.109 326.314 770.273 326.021 770.505Z" fill="white"/>
<path d="M303.481 789.383C304.47 792.8 308.049 794.754 311.455 793.775C314.873 792.768 316.834 789.202 315.83 785.789C314.845 782.388 311.272 780.422 307.855 781.411C304.442 782.415 302.492 785.977 303.481 789.383Z" fill="white"/>
<path d="M332.038 788.454C333.321 788.095 334.039 785.905 332.188 784.341C330.39 782.981 328.786 783.796 328.232 785.077C327.652 786.405 328.361 787.96 328.839 788.37C329.299 788.648 330.596 788.948 332.038 788.454Z" fill="white"/>
<path d="M340.077 765.655C340.433 764.834 340.047 763.892 339.235 763.543C338.42 763.19 337.461 763.572 337.125 764.397C336.772 765.211 337.155 766.151 337.97 766.492C338.784 766.852 339.735 766.467 340.077 765.655Z" fill="white"/>
<path d="M634.325 797.223C635.363 796.622 636.538 795.985 637.839 795.336C634.686 796.865 632.22 798.394 630.404 799.611C631.478 798.932 632.777 798.133 634.325 797.223Z" fill="white"/>
<path d="M630.404 799.61C628.297 800.942 627.083 801.798 626.677 802.072C627.18 801.912 628.393 800.958 630.404 799.61Z" fill="white"/>
<path d="M626.678 802.072C626.649 802.082 626.612 802.098 626.587 802.102C626.472 802.206 626.506 802.19 626.678 802.072Z" fill="white"/>
</svg>
