<svg width="257" height="393" viewBox="0 0 257 393" fill="none" xmlns="http://www.w3.org/2000/svg">
<path d="M184.529 255.189C184.9 252.664 185.303 250.145 185.719 247.627C187.441 243.494 190.209 239.895 194.418 237.976C199.874 235.487 206.445 235.72 212.306 235.476C218.3 235.226 224.449 235.104 230.263 233.469C235.472 232.004 240.13 229.193 244.219 225.689C248.922 221.657 252.858 216.821 256.835 212.098C257.09 211.795 257.031 211.434 256.72 211.203C251.912 207.633 245.358 206.349 239.504 205.84C233.482 205.317 227.395 205.823 221.542 207.329C210.034 210.289 199.484 217.222 192.384 226.781C190.703 229.044 189.296 231.508 188.141 234.087C188.156 234.006 188.171 233.926 188.186 233.845C188.194 233.805 188.181 233.772 188.185 233.733C190.322 227.014 193.366 220.78 197.504 215.044C201.993 208.821 207.144 203.175 212.167 197.39C217.214 191.577 221.897 185.39 225.438 178.532C228.908 171.811 231.249 164.574 232.526 157.121C234.083 148.036 234.204 138.7 236.614 129.768C236.768 129.198 236.029 128.742 235.608 129.183C225.008 140.29 212.863 149.949 203.438 162.155C198.611 168.406 194.668 175.208 191.98 182.648C189.131 190.535 187.491 198.78 186.674 207.113C186.224 211.7 186.028 216.308 185.947 220.921C185.816 222.483 185.681 224.045 185.569 225.608C185.417 227.738 185.184 229.869 185.12 232.004C185.054 234.203 185.142 236.394 184.99 238.59C184.979 238.752 184.959 238.913 184.945 239.075C184.24 242.744 183.571 246.418 182.948 250.099C182.82 250.672 182.694 251.245 182.572 251.817C182.547 251.933 182.566 252.029 182.602 252.113C181.602 258.149 180.686 264.2 179.803 270.265C179.634 271.424 179.46 272.586 179.281 273.749C179.293 273.144 179.29 272.539 179.307 271.933C179.51 264.668 179.996 257.414 180.225 250.149C180.451 242.972 180.508 235.648 179.653 228.508C178.822 221.569 175.925 215.164 173.424 208.702C171.925 204.831 170.356 200.98 168.939 197.078C167.723 193.728 167.049 190.215 165.552 186.964C165.309 186.436 164.374 186.554 164.274 187.131C163.616 190.933 162.36 194.576 161.289 198.273C160.194 202.049 159.411 205.869 158.947 209.774C158.495 213.58 158.38 217.422 158.685 221.244C158.988 225.048 159.645 228.855 160.208 232.629C160.785 236.496 161.993 240.164 163.024 243.924C164.017 247.546 164.682 251.242 165.687 254.86C167.541 261.535 170.113 267.983 172.039 274.636C173.908 281.091 174.992 287.665 174.633 294.336C173.379 298.025 171.84 301.61 169.887 305.019C164.744 313.998 157.099 321.168 149.732 328.299C145.879 332.028 142.081 335.795 138.608 339.826C141.09 335.398 143.575 330.971 145.861 326.44C150.999 316.255 154.824 305.672 156.254 294.312C157.488 284.51 157.068 274.574 155.582 264.822C155.71 262.098 155.593 259.354 155.431 256.646C155.158 252.087 154.752 247.538 154.373 242.986C153.62 233.939 152.748 224.894 153.123 215.804C153.31 211.281 153.818 206.783 154.776 202.356C155.739 197.911 157.079 193.554 158.432 189.215C160.811 181.587 163.266 173.94 166.31 166.547C166.594 165.858 166.895 165.173 167.193 164.487C168.034 164.891 168.945 165.185 169.877 165.152C170.693 165.123 171.437 164.953 172.104 164.454C172.604 164.08 173.015 163.559 173.119 162.957C173.183 162.965 173.246 162.983 173.311 162.99C177.873 163.518 182.217 161.696 185.893 159.132C192.766 154.338 198.258 146.886 199.73 138.536C200.548 133.893 199.71 129.377 198.481 124.916C198.384 124.049 198.256 123.185 198.221 122.308C198.168 120.981 198.26 119.644 198.443 118.33C198.796 115.789 199.534 113.337 200.508 110.968C200.737 110.41 200.038 110.02 199.639 110.433C199.229 110.857 198.825 111.285 198.416 111.709C198.758 110.921 199.198 110.179 199.752 109.473C200.111 109.015 199.642 108.467 199.129 108.601C197.638 108.991 196.564 109.884 195.526 110.9C195.62 109.965 195.891 109.057 196.404 108.252C196.751 107.707 196.207 107.113 195.636 107.435C194.503 108.073 193.463 108.877 192.562 109.814C192.525 109.822 192.49 109.828 192.455 109.842C192.315 108.939 191.903 108.083 191.286 107.305C191.075 107.039 190.532 106.997 190.412 107.392C189.952 108.91 189.327 110.358 188.43 111.671C187.984 112.323 187.494 112.948 187.024 113.584C186.585 114.178 186.24 114.824 185.806 115.418C181.819 117.442 178.24 120.143 174.854 123.052C171.372 126.044 168.019 129.317 165.422 133.123C161.146 139.388 158.822 147.969 162.724 154.967C163.244 155.899 163.896 156.783 164.642 157.593C164.796 157.871 164.972 158.129 165.15 158.387C164.302 158.914 163.956 160.198 164.168 161.152C164.359 162.011 164.865 162.775 165.51 163.38C161.843 170.197 158.869 177.41 156.408 184.784C153.528 193.414 150.883 202.065 150.025 211.163C149.153 220.41 149.789 229.743 150.722 238.96C150.982 241.527 151.281 244.09 151.578 246.653C146.551 228.963 138.677 212.19 130.846 195.55C130.414 194.631 129.983 193.712 129.552 192.794C129.618 192.688 129.648 192.553 129.607 192.39C129.476 191.874 129.387 191.348 129.293 190.823C129.265 188.394 129.966 185.936 130.963 183.667C132.716 179.676 134.961 175.951 137.158 172.196C139.228 168.657 141.169 164.997 142.194 161.002C143.308 156.659 143.057 152.107 142.286 147.73C141.83 145.139 141.104 142.609 140.61 140.028C140.155 137.648 139.99 134.585 141.875 132.749C142.163 132.469 141.797 132.033 141.459 132.14C136.934 133.578 133.281 137.472 130.864 141.413C128.033 146.028 126.509 151.401 125.392 156.658C123.592 165.135 123.196 174.044 124.823 182.58C117.407 166.267 110.749 149.714 107.157 132.028C107.99 132.466 108.803 132.944 109.637 133.37C115.605 136.415 122.895 134.669 128.122 130.839C129.311 129.968 130.401 128.977 131.312 127.816C132.317 126.535 132.922 125.079 133.72 123.677C134.559 122.203 135.834 121.25 137.057 120.12C138.165 119.096 138.963 117.921 139.468 116.495C140.49 113.608 140.988 110.169 140.94 107.03C141.734 108.699 142.633 110.31 143.827 111.735C148.354 117.143 156.995 117.18 161.439 111.66C162.718 110.071 163.747 108.265 165.408 107.029C166.974 105.864 168.819 105.136 170.376 103.958C171.636 103.004 172.789 101.693 173.162 100.118C173.538 98.5285 172.916 97.1275 172.269 95.7085C171.903 94.9055 171.391 93.9005 171.58 92.9835C171.777 92.0275 172.734 91.1325 173.259 90.3335C174.394 88.6055 175.337 86.7355 175.972 84.7655C176.557 82.9495 176.864 81.0275 176.84 79.1155C177.658 80.9775 178.636 82.7835 179.599 84.4745C181.406 87.6475 183.651 90.6515 186.458 93.0095C189.203 95.3155 192.382 96.6855 195.642 98.0885C198.804 99.4495 202.067 100.959 203.909 104.022C204.37 104.788 205.393 104.547 205.684 103.79C209.086 94.9315 209.183 84.4345 205.412 75.6735C202.221 68.2575 196.175 61.9755 188.659 58.9225C185.336 57.5725 181.887 57.0525 178.387 56.8725C180.396 56.5725 182.403 56.2455 184.368 55.7625C189.608 54.4745 194.405 51.8555 198.421 48.2635C202.355 44.7455 205.532 40.3705 207.769 35.5985C210.189 30.4365 211.641 24.9105 213.059 19.4085C214.709 13.0085 216.349 6.48953 219.666 0.711529C219.828 0.428529 219.628 -0.0384707 219.259 0.00252925C210.858 0.945529 202.605 2.86453 194.692 5.85053C190.701 7.35653 186.813 9.15653 183.06 11.1815C179.869 12.9025 176.739 14.8125 174.142 17.3745C171.94 19.5465 170.023 22.3465 169.767 25.4445C168.228 24.0915 166.645 22.8165 165.395 21.1555C163.909 19.1825 162.772 17.1145 160.727 15.6375C158.915 14.3295 156.765 13.5255 154.673 12.7875C152.423 11.9945 150.091 11.2555 148.259 9.66053C146.336 7.98653 144.926 5.80753 142.69 4.49253C138.694 2.14253 133.433 2.08753 128.977 2.80553C126.591 3.19053 124.128 3.98253 122.286 5.61053C120.136 7.51053 119.495 10.2255 118.718 12.8615C117.726 16.2305 116.83 19.6765 116.114 23.1535C116.111 22.8945 116.122 22.6395 116.115 22.3795C116.034 19.5395 115.918 16.6415 115.145 13.8935C113.831 9.22653 110.621 4.78153 105.321 4.90853C103.695 4.94753 102.171 4.89253 100.578 4.50753C98.9307 4.10953 97.3257 3.55553 95.6687 3.19653C92.3197 2.47253 88.9097 2.32153 85.4977 2.54353C82.1197 2.76253 78.7467 3.26453 75.4017 3.77553C74.1357 3.96853 72.8967 4.29753 71.8707 5.09853C70.8437 5.90053 70.1677 7.02053 69.5827 8.16553C68.2497 10.7735 66.9117 12.9815 64.3397 14.5615C63.1667 15.2825 61.8897 15.8165 60.5507 16.1375C58.9297 16.5255 57.3027 16.4245 55.6507 16.4465C53.0387 16.4815 50.6737 17.1745 48.6517 18.8695C46.7567 20.4575 45.4267 22.7065 44.7257 25.0605C43.9217 27.7595 44.1987 30.3445 44.6397 33.0775C44.9057 34.7275 45.0477 36.3295 44.8147 37.9925C44.5977 39.5485 44.1697 41.0735 43.7727 42.5905C43.0327 45.4195 42.2807 48.3985 43.1157 51.2995C43.8197 53.7485 45.5717 55.6745 47.7337 56.9595C48.7937 57.5895 49.9487 58.0215 51.1487 58.3115C48.6137 58.7885 46.1057 59.6355 43.8887 60.8085C40.4757 62.6135 38.1507 65.4865 37.1687 69.2315C36.5817 71.4705 36.4027 73.7835 35.9407 76.0455C35.4697 78.3525 34.5547 80.5495 34.1477 82.8715C33.7987 84.8585 33.8247 86.9335 34.8817 88.7155C35.7927 90.2525 37.3097 91.2545 38.7577 92.2295C40.5487 93.4355 41.9137 94.6285 42.6027 96.7385C43.2077 98.5925 43.4417 100.611 44.4977 102.294C44.6307 102.506 44.7747 102.706 44.9277 102.895C33.6527 99.6675 21.2107 101.196 11.0017 107.148C7.7767 109.028 4.8027 111.328 2.1637 113.967C1.4197 114.71 2.1867 115.867 3.1487 115.66C7.4437 114.737 11.4927 116.81 15.0257 119.042C18.4637 121.214 21.8047 123.322 25.7237 124.528C33.2717 126.851 41.7767 126.858 49.2547 124.264C53.1987 122.896 57.0547 121.055 59.9147 117.976C59.9917 118.024 60.0667 118.074 60.1437 118.121C58.2347 120.115 56.9507 122.635 56.0457 125.285C54.6087 129.491 53.6277 134.029 53.2737 138.458C52.5107 148.013 57.3247 156.952 61.7827 165.062C64.3957 169.816 67.2147 174.479 70.3987 178.874C70.8027 179.432 71.6087 179.357 71.8417 178.685C73.2617 174.598 72.8007 169.957 75.5367 166.369C77.7727 163.436 81.1287 161.724 84.1007 159.664C87.3227 157.43 90.0627 154.719 91.7767 151.141C93.5767 147.383 94.4057 143.159 94.3557 139.001C94.3247 136.382 93.9427 133.833 93.2597 131.307C92.8997 129.977 92.5367 128.613 92.0757 127.292C94.1847 129.062 96.6737 130.415 99.4577 130.614C100.877 130.715 102.3 130.603 103.699 130.797C105.038 138.877 106.957 146.846 109.479 154.661C113.04 165.695 117.583 176.385 122.355 186.942C131.944 208.158 142.799 228.886 148.751 251.525C151.672 262.636 153.441 274.108 153.116 285.619C152.79 297.157 150.129 308.312 145.409 318.835C137.525 336.41 125.308 352.812 120.706 371.678C120.673 371.626 120.642 371.572 120.609 371.52C120.795 368.442 121.02 365.365 121.334 362.29C122.248 353.35 123.375 344.435 124.386 335.506C125.326 327.207 126.077 318.88 126.278 310.554C126.421 309.283 126.425 308.002 126.325 306.725C126.344 299.664 125.931 292.606 124.855 285.57C122.681 271.357 118.176 257.548 111.752 244.69C111.867 242.887 112.268 241.089 112.68 239.342C113.304 236.697 113.918 234.088 114.729 231.491C116.315 226.416 117.928 221.364 118.403 216.04C118.883 210.665 118.36 205.137 116.934 199.934C115.49 194.667 112.928 189.832 110.499 184.973C107.572 179.114 104.925 173.047 102.992 166.782C102.839 166.286 102.05 166.227 101.926 166.782C99.4387 177.938 97.0527 189.02 97.7307 200.525C98.3727 211.414 101.081 222.057 104.928 232.234C105.034 232.515 105.151 232.795 105.259 233.075C100.431 225.299 94.8807 217.973 88.6777 211.26C80.1617 202.044 70.3407 193.781 59.5367 187.283C59.7547 186.573 59.8837 185.836 59.7957 185.101C59.6977 184.29 59.4657 183.563 58.9127 182.94C58.4977 182.473 57.9447 182.107 57.3367 182.054C57.3397 181.989 57.3517 181.925 57.3537 181.86C57.4977 177.269 55.3167 173.093 52.4537 169.646C47.0997 163.199 39.2127 158.353 30.7687 157.586C26.0737 157.16 21.6437 158.374 17.3017 159.973C16.4467 160.143 15.5957 160.343 14.7247 160.452C13.4067 160.616 12.0667 160.636 10.7417 160.565C8.17971 160.427 5.6757 159.896 3.2327 159.125C2.6577 158.943 2.3277 159.673 2.7727 160.036C3.2297 160.409 3.6897 160.776 4.1467 161.148C3.3327 160.874 2.5567 160.498 1.8067 160.005C1.3207 159.685 0.812699 160.199 0.989699 160.699C1.5037 162.152 2.4837 163.147 3.5827 164.096C2.6437 164.081 1.7157 163.887 0.869704 163.444C0.297704 163.144 -0.248296 163.736 0.119704 164.278C0.850704 165.354 1.7387 166.322 2.7477 167.141C2.7587 167.177 2.76671 167.211 2.7847 167.245C1.8967 167.46 1.0787 167.943 0.355704 168.623C0.108704 168.856 0.1117 169.4 0.5157 169.486C2.0667 169.817 3.5617 170.318 4.9457 171.102C5.6337 171.491 6.2967 171.927 6.9697 172.342C7.5977 172.73 8.2707 173.02 8.8997 173.401C11.2507 177.204 14.2427 180.544 17.4257 183.674C20.6987 186.893 24.2417 189.959 28.2527 192.228C34.8537 195.963 43.5997 197.56 50.2457 193.084C51.1307 192.488 51.9577 191.764 52.7017 190.952C52.9657 190.775 53.2087 190.578 53.4497 190.379C54.0467 191.18 55.3537 191.417 56.2877 191.125C57.2437 190.827 58.0517 190.143 58.6167 189.316C67.7937 195.026 76.3087 201.679 83.9447 209.415C93.6987 219.296 101.957 230.618 108.433 242.898C111.994 249.651 114.984 256.7 117.394 263.942C116.676 262.729 115.927 261.534 115.163 260.362C111.237 254.336 107.274 248.265 102.819 242.613C95.3337 233.116 85.5437 225.476 74.6277 220.305C68.5007 217.403 62.0237 215.287 55.3587 214.039C54.7827 213.931 54.1597 214.682 54.7187 215.138C64.2837 222.951 70.1597 234.062 77.8527 243.522C81.8207 248.402 86.2787 252.848 91.6087 256.234C97.8157 260.177 104.821 262.725 110.88 266.892C116.288 270.612 120.621 276.473 122.235 282.896C123.134 287.97 123.682 293.065 123.955 298.17C122.832 295.836 121.379 293.66 119.672 291.78C117.293 289.161 114.527 287.347 111.545 285.977C107.094 282.249 103.324 277.712 99.4887 273.385C95.1847 268.529 90.6057 264.019 85.4627 260.047C74.9977 251.967 62.4257 245.341 49.0787 244.129C41.7247 243.461 34.2307 244.597 27.5977 247.906C26.9747 248.217 27.1067 249.053 27.5977 249.394C33.3987 253.427 38.4447 258.447 42.6097 264.15C46.5107 269.491 49.1877 275.655 53.4167 280.764C55.5977 283.399 58.2627 285.473 61.1817 287.235C64.2517 289.088 67.4587 290.743 70.8417 291.951C78.0557 294.527 85.7017 294.133 93.1727 293.145C97.4647 292.577 101.694 291.676 105.961 290.959C107.048 290.776 108.147 290.643 109.245 290.545C110.257 290.454 111.405 290.196 112.413 290.314C112.542 290.329 112.671 290.36 112.799 290.386C113.313 290.758 113.814 291.152 114.296 291.575C117.652 294.518 119.97 298.146 121.514 302.315C122.383 304.661 123.113 307.017 123.47 309.495C123.833 312.017 123.862 314.392 123.753 316.938C123.749 317.031 123.8 317.094 123.865 317.14C123.619 321.578 123.246 326.014 122.786 330.444C121.755 340.372 120.304 350.261 119.419 360.204C119.257 362.02 119.1 363.85 118.952 365.685C118.442 363.322 118.006 360.933 117.73 358.537C117.001 352.203 117.841 345.908 117.879 339.568C117.915 333.504 117.098 327.448 115.728 321.545C114.517 316.328 112.791 311.293 108.992 307.384C105.095 303.375 99.9247 300.637 96.6677 296.007C96.3167 295.508 95.4647 295.518 95.2987 296.186C93.6007 303.006 92.3947 309.868 92.4267 316.921C92.4557 323.398 93.6467 329.744 95.9627 335.791C100.108 346.613 107.088 355.989 112.789 365.99C114.863 369.63 116.763 373.356 118.378 377.206C118.348 380.603 118.489 383.991 118.884 387.345C118.79 388.015 118.696 388.685 118.603 389.356C118.135 392.697 119.651 392.133 122.063 391.982C123.48 391.893 123.267 391.847 123.269 391.831C123.768 392.368 124.59 391.879 125.304 391.906C127.264 391.981 129.017 391.561 128.372 389.327C127.979 387.968 127.649 386.6 127.372 385.227C128.057 379.969 131.854 375.523 136.223 372.707C138.833 371.023 141.672 369.804 144.549 368.661C147.824 367.36 151.153 366.118 154.511 365.048C160.837 363.03 167.465 361.715 173.578 359.083C179.233 356.648 183.874 352.665 187.527 347.743C192.034 341.671 194.515 334.659 197.482 327.789C197.625 327.457 197.539 327.004 197.125 326.911C183.321 323.812 169.304 328.603 157.522 335.699C146.22 342.505 136.348 352.148 130.374 363.996C128.806 367.105 127.492 370.347 126.457 373.673C126.763 367.136 128.509 360.716 131.898 354.796C136.952 345.967 144.662 338.812 151.906 331.796C158.273 325.63 164.696 319.373 169.729 312.05C172.78 309.083 175.19 305.404 177.418 301.828C180.444 296.971 183.219 291.921 186.436 287.188C188.509 284.139 190.889 281.137 193.563 278.434C193.832 278.719 194.119 278.984 194.453 279.192C195.146 279.625 195.858 279.9 196.689 279.86C197.313 279.83 197.945 279.628 198.368 279.188C198.417 279.231 198.459 279.28 198.508 279.323C201.993 282.315 206.613 283.236 211.094 283.17C219.473 283.045 228.195 279.944 234.089 273.849C237.366 270.46 239.2 266.248 240.679 261.864C241.083 261.092 241.461 260.304 241.923 259.557C242.621 258.428 243.447 257.371 244.334 256.385C246.049 254.477 248.033 252.859 250.166 251.44C250.668 251.106 250.307 250.392 249.745 250.511C249.169 250.633 248.593 250.761 248.017 250.884C248.741 250.422 249.521 250.054 250.376 249.779C250.93 249.601 250.848 248.883 250.348 248.707C248.894 248.196 247.505 248.335 246.076 248.595C246.677 247.873 247.411 247.272 248.286 246.892C248.878 246.635 248.76 245.838 248.107 245.785C246.811 245.679 245.5 245.764 244.228 246.036C244.193 246.022 244.161 246.007 244.123 245.999C244.512 245.172 244.65 244.232 244.574 243.243C244.548 242.905 244.122 242.566 243.802 242.826C242.571 243.826 241.243 244.676 239.765 245.262C239.03 245.553 238.275 245.797 237.529 246.06C236.833 246.306 236.185 246.648 235.493 246.899C231.056 246.344 226.578 246.579 222.145 247.094C217.585 247.624 212.975 248.459 208.691 250.159C201.641 252.957 194.911 258.766 194.227 266.749C194.136 267.812 194.181 268.91 194.346 269.999C194.319 270.316 194.319 270.628 194.323 270.941C193.325 270.903 192.32 271.773 191.961 272.683C191.489 273.88 191.652 275.292 192.213 276.425C192.3 276.6 192.399 276.773 192.495 276.946C186.914 281.879 182.303 288.195 178.057 294.408C179.976 288.042 181.117 281.415 182.004 274.833C182.886 268.292 183.567 261.723 184.529 255.189ZM204.904 218.374C214.085 211.652 225.424 207.503 236.858 207.444C243.082 207.412 250.256 208.345 255.583 211.842C248.673 220.402 240.727 229.281 229.645 232.018C223.458 233.546 217.124 233.167 210.816 233.076C204.8 232.99 198.092 232.947 192.556 235.61C192.452 235.66 192.351 235.72 192.248 235.773C192.623 235.292 192.993 234.805 193.393 234.347C195.781 231.611 198.402 229.142 201.471 227.183C208.582 222.643 217.134 220.544 225.415 219.46C225.497 219.449 225.501 219.321 225.415 219.328C216.781 220.113 208.214 221.75 200.501 225.884C197.346 227.575 194.287 229.634 191.755 232.186C195.313 226.829 199.847 222.076 204.904 218.374ZM193.205 186.447C195.572 178.895 198.892 171.586 203.453 165.099C207.782 158.942 212.937 153.443 218.282 148.166C223.864 142.655 229.577 137.306 234.961 131.604C233.373 138.869 232.808 146.299 231.52 153.62C230.171 161.29 227.608 168.65 224.045 175.571C220.476 182.505 215.735 188.5 210.646 194.364C205.626 200.148 200.235 205.699 195.806 211.968C195.625 212.225 195.445 212.487 195.266 212.747C197.426 207.956 199.735 203.241 202.269 198.632C205.079 193.52 208.098 188.51 211.213 183.578C214.394 178.542 217.708 173.6 220.21 168.176C222.897 162.351 224.675 156.222 225.654 149.886C225.688 149.667 225.358 149.568 225.316 149.793C224.222 155.624 222.247 161.303 219.553 166.586C216.815 171.956 213.059 176.523 209.47 181.325C202.382 190.809 196.668 201.247 191.915 212.077C190.605 215.063 189.392 218.112 188.486 221.248C188.649 216.587 188.714 211.918 188.721 207.25C189.683 200.205 191.078 193.235 193.205 186.447ZM171.691 158.869C171.689 158.866 171.69 158.862 171.688 158.858C171.689 158.862 171.691 158.865 171.692 158.869H171.691ZM167.741 155.15C166.833 153.478 166.251 151.642 165.929 149.772C165.273 145.972 165.771 141.903 167.44 138.428C167.482 138.341 167.347 138.252 167.292 138.337C164.933 141.927 163.926 146.213 164.509 150.476C164.779 152.443 165.378 154.356 166.257 156.135C165.872 155.62 165.502 155.085 165.157 154.511C163.371 151.535 162.625 147.876 162.875 144.432C163.463 136.335 168.73 129.717 174.622 124.568C176.668 122.78 178.793 121.052 181.031 119.495C182.936 118.758 184.668 117.589 186.35 116.457C187.309 115.811 188.269 115.14 189.165 114.407C189.796 113.891 190.436 113.308 190.608 112.48C190.652 112.271 190.324 112.167 190.247 112.371C189.902 113.277 188.844 113.682 188.08 114.173C187.886 114.298 187.691 114.422 187.496 114.546C187.614 114.449 187.74 114.366 187.852 114.259C188.499 113.641 189.069 112.967 189.588 112.237C190.338 111.18 190.952 110.03 191.222 108.778C191.654 109.582 191.621 110.6 191.232 111.46C191.219 111.488 191.22 111.514 191.212 111.542C190.885 112.233 190.616 112.967 190.266 113.61C189.524 114.971 188.65 116.252 187.66 117.446C185.451 120.111 182.756 122.325 180.03 124.436C179.993 124.465 180.033 124.521 180.072 124.496C183.132 122.508 186.257 120.597 188.88 118.033C190.017 116.922 191.051 115.696 191.868 114.329C192.477 113.311 193.139 112.156 193.164 110.959C193.699 110.392 194.27 109.87 194.876 109.384C194.651 110.265 194.529 111.165 194.565 112.101C194.57 112.228 194.623 112.317 194.695 112.383C194.103 113.411 193.662 114.514 193.221 115.619C192.067 118.514 191.319 121.537 190.261 124.463C190.179 124.691 190.519 124.849 190.608 124.619C191.648 121.941 193.119 119.482 194.448 116.941C195.086 115.721 195.705 114.489 196.456 113.332C196.646 113.04 196.843 112.751 197.037 112.461C196.929 112.828 196.83 113.199 196.756 113.577C196.647 114.129 197.34 114.346 197.681 113.994C198.029 113.635 198.37 113.268 198.715 112.905C198.102 114.719 197.599 116.575 197.297 118.461C197.114 119.609 196.966 120.899 196.987 122.175C196.069 120.202 195.241 118.195 195.728 116.003C195.766 115.834 195.515 115.801 195.468 115.96C194.605 118.894 195.445 121.95 196.687 124.638C197.383 126.145 198.057 127.584 198.329 129.236C198.585 130.791 198.469 132.362 198.66 133.917C198.671 134.011 198.801 134.035 198.841 133.947C198.881 133.862 198.901 133.768 198.936 133.681C198.965 134.598 198.952 135.517 198.859 136.442C198.478 140.214 197.14 143.799 195.185 147.034C193.192 150.332 190.576 153.292 187.612 155.746C184.368 158.431 180.481 160.744 176.21 161.168C174.952 161.293 173.668 161.19 172.42 160.918C173.425 160.809 174.443 160.523 175.383 160.192C178.398 159.129 181.23 157.512 183.706 155.494C188.645 151.468 192.06 145.557 194.364 139.702C194.402 139.606 194.259 139.541 194.217 139.636C191.804 145.092 188.203 149.853 183.512 153.544C180.102 156.228 176.074 158.523 171.74 158.868C171.711 158.736 171.663 158.616 171.611 158.489C171.491 158.199 171.386 157.877 171.29 157.578C171.074 156.896 170.988 156.151 170.878 155.447C170.648 153.975 170.623 152.483 170.802 151.005C170.834 150.741 170.419 150.58 170.33 150.862C169.775 152.607 169.428 154.508 169.526 156.346C169.55 156.8 169.601 157.253 169.667 157.702C169.668 157.709 169.668 157.715 169.669 157.722C168.927 156.986 168.292 156.165 167.741 155.15ZM186.77 59.2725C190.416 60.6585 193.737 62.8915 196.509 65.6235C202.523 71.5485 205.721 79.7315 206.055 88.1115C206.236 92.6295 205.552 97.0855 204.356 101.424C200.265 96.8255 193.332 95.9255 188.547 92.1505C185.653 89.8675 183.454 86.8765 181.577 83.7345C179.623 80.4625 178.321 76.7335 176.122 73.6265C175.997 73.4495 175.819 73.3775 175.651 73.3865C174.735 71.2875 173.164 69.6565 172.487 67.4335C171.803 65.1855 171.023 63.0705 169.612 61.1615C169.366 60.8285 169.102 60.5145 168.829 60.2145C170.565 61.2665 172.314 62.3005 173.995 63.4475C174.813 64.4645 175.687 65.4375 176.493 66.4655C177.782 68.1085 178.918 69.8805 180.022 71.6515C182.191 75.1295 183.94 78.9105 185.67 82.6195C185.746 82.7825 186.029 82.6665 185.964 82.4955C184.45 78.5475 182.9 74.6615 181.01 70.8755C180.312 69.4765 179.506 68.1365 178.619 66.8505C179.856 67.8245 181.071 68.8275 182.243 69.8795C187.185 74.3115 191.787 79.3585 195.394 84.9425C195.47 85.0605 195.658 84.9525 195.583 84.8315C192.041 79.0465 188.071 73.6635 183.23 68.8925C180.832 66.5295 178.305 64.3015 175.612 62.2795C173.727 60.8645 171.745 59.4055 169.662 58.1945C171.329 57.9485 172.993 57.6865 174.657 57.4295C175.181 57.3485 175.709 57.2725 176.235 57.1955C179.826 57.4405 183.417 57.9975 186.77 59.2725ZM175.112 18.8375C177.61 16.3265 180.676 14.4885 183.752 12.7765C190.716 8.90153 198.163 5.84353 205.84 3.70353C209.97 2.55153 214.18 1.66953 218.426 1.06953C213.425 10.7705 211.974 21.7195 207.821 31.7525C203.815 41.4305 196.217 49.9635 185.831 52.7555C182.388 53.6815 178.818 54.0955 175.296 54.5965C172.489 54.9955 169.679 55.3955 166.879 55.8445C167.893 55.0225 168.824 54.0915 169.695 53.1135C170.911 51.7485 172.114 50.3355 172.998 48.7355C173.072 48.6965 173.136 48.6345 173.171 48.5455C174.26 45.7685 176.655 43.3155 178.856 41.3775C179.759 40.5815 180.699 39.8315 181.644 39.0895C181.768 39.0495 181.886 39.0005 182.013 38.9675C183.232 38.6535 184.503 38.5935 185.756 38.5745C188.732 38.5285 191.707 39.0595 194.681 38.7145C194.846 38.6955 194.853 38.4385 194.681 38.4515C191.42 38.6955 188.341 37.5525 185.117 37.3275C184.715 37.2995 184.305 37.3015 183.894 37.3175C184.83 36.5795 185.759 35.8315 186.651 35.0375C192.022 30.2495 196.642 24.6635 200.618 18.6775C200.712 18.5355 200.486 18.4065 200.391 18.5445C196.019 24.8815 190.502 30.3835 184.29 34.9245C183.985 35.1475 183.671 35.3605 183.362 35.5785C183.783 34.8355 184.176 34.0795 184.497 33.2815C185.499 30.7935 186.087 28.1805 186.526 25.5405C186.549 25.4035 186.344 25.3425 186.314 25.4825C185.776 28.0385 184.73 30.4515 183.414 32.7025C182.778 33.7905 182.135 34.8845 181.422 35.9245C181.009 36.5275 180.579 37.1405 180.2 37.7795C178.859 38.7225 177.545 39.6995 176.341 40.8025C175.702 41.3875 175.136 41.9895 174.639 42.6165C174.726 41.5765 174.766 40.5335 174.812 39.5095C174.926 36.9875 174.959 34.3915 174.278 31.9375C173.699 29.8505 172.54 28.1245 171.028 26.6215C171.618 23.6125 172.905 21.0565 175.112 18.8375ZM115.739 29.6965C116.673 25.0685 117.251 20.3665 118.479 15.7965C119.167 13.2375 119.892 10.4855 121.664 8.43253C123.112 6.75453 125.139 5.69653 127.243 5.08853C129.398 4.46653 131.636 4.31353 133.868 4.28453C135.647 4.26053 137.458 4.37653 139.188 4.81853C138.851 5.47853 138.797 6.30653 138.69 7.02353C138.571 7.82153 138.469 8.61953 138.328 9.41453C138.037 11.0555 137.706 12.6975 137.287 14.3105C136.429 17.6095 135.265 21.0285 133.632 24.0275C133.502 24.2675 133.859 24.4775 133.998 24.2415C134.939 22.6515 135.91 21.1255 136.708 19.4535C137.448 17.9035 138.111 16.3155 138.687 14.6965C139.286 13.0135 139.787 11.3105 140.149 9.56053C140.407 8.31153 140.892 6.64253 140.656 5.28553C140.682 5.29553 140.709 5.30053 140.734 5.31053C141.231 5.50753 141.681 5.75253 142.109 6.02053C142.104 6.08453 142.105 6.14853 142.125 6.20853C142.277 6.65153 142.201 7.41053 142.183 7.94553C142.157 8.71653 142.118 9.48953 142.065 10.2595C141.957 11.8225 141.751 13.3865 141.372 14.9075C141.339 15.0375 141.542 15.1375 141.599 15.0035C142.316 13.3235 142.93 11.6305 143.369 9.85653C143.576 9.01953 143.687 8.15053 143.768 7.29153C144.705 8.14453 145.552 9.11153 146.48 10.0465C148.017 11.5935 149.868 12.6895 151.858 13.5535C153.797 14.3945 155.839 15.0135 157.732 15.9555C159.871 17.0195 161.402 18.5775 162.888 20.4165C164.369 22.2495 165.813 23.9225 167.616 25.4515C168.356 26.0795 169.115 26.7065 169.825 27.3775C169.877 27.5225 169.989 27.6215 170.132 27.6675C170.934 28.4585 171.654 29.3225 172.181 30.3365C173.316 32.5195 173.519 35.0305 173.506 37.4545C172.47 37.3725 171.251 37.7225 170.251 37.9615C169.244 38.2015 168.255 38.4985 167.278 38.8395C165.288 39.5335 163.386 40.4505 161.537 41.4575C161.331 41.5695 161.473 41.9335 161.7 41.8455C163.624 41.0975 165.617 40.5635 167.634 40.1355C168.648 39.9205 169.673 39.7425 170.699 39.5915C171.593 39.4595 172.594 39.4415 173.481 39.2175C173.47 39.7945 173.446 40.3715 173.417 40.9515C172.513 40.8725 171.324 41.1695 170.796 41.2475C168.816 41.5395 166.853 42.0095 164.94 42.5965C161.234 43.7335 157.736 45.5145 154.406 47.4825C154.211 47.5975 154.385 47.8945 154.583 47.7855C157.562 46.1545 160.686 45.0885 163.954 44.1995C165.505 43.7775 167.079 43.4355 168.664 43.1725C169.5 43.0335 170.34 42.9215 171.181 42.8225C171.579 42.7755 171.978 42.7335 172.377 42.6975C172.605 42.6765 172.834 42.6575 173.062 42.6405C173.152 42.6535 173.222 42.6605 173.278 42.6635C173.179 43.6095 173.046 44.5485 172.812 45.4565C172.168 47.9625 170.613 49.8955 168.92 51.7865C167.189 53.7195 165.319 55.5875 162.843 56.5205C160.077 57.5625 156.965 57.7545 154.04 57.9275C150.971 58.1085 147.897 57.9485 144.838 57.6915C140.112 57.2945 132.938 56.8375 130.377 61.9055C129.979 62.6945 130.895 63.3285 131.548 62.8095C133.488 61.2705 135.677 60.1615 138.14 59.7775C141.179 59.3045 144.282 59.6915 147.336 59.7395C150.165 59.7845 153.007 59.6485 155.824 59.3825C157.091 59.2635 158.378 59.1315 159.648 58.9175C160.954 59.0075 162.267 58.9835 163.569 59.1965C165.542 59.5205 167.041 60.6025 168.186 62.2115C169.026 63.3925 169.616 64.6505 170.095 65.9735C170.035 65.9275 169.974 65.8755 169.915 65.8325C168.431 64.7655 166.644 64.2695 164.855 64.0275C160.776 63.4745 156.721 63.8075 152.685 64.5165C152.46 64.5555 152.559 64.8865 152.778 64.8545C156.439 64.3285 160.229 64.6455 163.818 65.5035C165.362 65.8725 166.949 66.3075 168.31 67.1525C169.474 67.8755 170.273 69.0585 171.389 69.8035C171.429 69.8305 171.475 69.8395 171.52 69.8465C171.974 70.7545 172.504 71.6135 173.097 72.5215C175.193 75.7335 175.573 79.6985 174.653 83.3735C174.183 85.2495 173.419 87.0365 172.458 88.7115C171.653 90.1145 170.37 91.4265 170.306 93.1275C170.252 94.5565 171.08 95.7955 171.654 97.0415C172.535 98.9535 172.185 100.725 170.747 102.26C170.112 102.938 169.368 103.468 168.585 103.946C168.593 103.859 168.599 103.77 168.575 103.671C168.206 102.158 167.181 100.815 166.059 99.7625C164.839 98.6195 163.386 97.7335 161.987 96.8275C161.761 96.6815 161.574 97.0275 161.78 97.1815C163.057 98.1315 164.279 99.1285 165.287 100.371C166.182 101.475 166.735 102.711 167.023 104.098C167.079 104.369 167.238 104.529 167.431 104.61C167.014 104.842 166.596 105.073 166.187 105.313C166.135 105.344 166.088 105.379 166.037 105.411C165.973 104.662 165.615 103.918 165.292 103.256C164.856 102.361 164.328 101.506 163.751 100.694C162.563 99.0215 161.166 97.5455 159.575 96.2515C156.026 93.3625 151.802 91.5065 147.646 89.6885C147.486 89.6185 147.345 89.8405 147.506 89.9285C151.293 92.0035 155.045 94.2535 158.229 97.1925C159.607 98.4645 160.91 99.8565 161.993 101.391C162.541 102.167 163.036 102.981 163.465 103.829C163.858 104.606 164.14 105.658 164.765 106.281C163.88 106.954 163.072 107.71 162.313 108.563C161.152 109.866 160.086 111.289 158.602 112.249C157.279 113.105 155.822 113.677 154.262 113.91C150.976 114.401 147.632 113.357 145.306 110.971C142.706 108.304 141.506 104.644 139.966 101.335C138.37 97.9045 136.296 94.8395 133.345 92.4535C133.838 91.6345 134.502 90.9445 135.067 90.1765C137.293 87.1535 136.636 83.1385 133.801 80.7395C133.465 80.4545 133.104 80.2055 132.736 79.9685C131.572 78.4285 130.068 77.1825 128.257 76.5135C128.409 76.5175 128.561 76.5145 128.713 76.5205C132.084 76.6565 135.73 77.5615 138.167 80.0235C138.296 80.1545 138.471 79.9635 138.363 79.8265C136.177 77.0395 133.041 75.4535 129.604 74.7825C129.132 74.6905 128.66 74.6175 128.186 74.5545C130.014 74.3615 131.838 74.3145 133.744 74.5965C140.054 75.5315 146.186 78.8825 150.109 83.9605C150.238 84.1265 150.525 83.9725 150.399 83.7905C146.914 78.7575 141.968 75.1015 136.102 73.2925C134.006 72.6455 131.8 72.2575 129.593 72.1245C130.68 71.8095 131.772 71.5055 132.885 71.2745C138.71 70.0665 145.233 71.8565 149.723 75.7225C149.871 75.8505 150.087 75.6405 149.94 75.5055C145.937 71.7995 140.853 69.5175 135.365 69.3805C132.352 69.3055 129.357 69.8305 126.397 70.3405C124.839 70.6095 123.299 70.8665 121.713 70.8895C120.916 70.9015 120.129 70.8545 119.347 70.7015C119.337 70.6995 119.327 70.6965 119.317 70.6945C119.491 70.5965 119.672 70.5105 119.838 70.3995C120.52 69.9425 121.171 69.4205 121.801 68.8945C123.008 67.8855 124.115 66.7305 125.103 65.5075C125.307 65.2555 124.988 64.9165 124.741 65.1455C123.63 66.1765 122.416 67.0385 121.084 67.7605C119.859 68.4245 118.549 68.9335 117.249 69.4275C117.236 69.3395 117.217 69.2525 117.202 69.1655C117.42 69.1465 117.633 69.0375 117.783 68.8465C117.997 68.5745 118.066 68.1915 118.234 67.8875C118.892 66.7005 119.896 65.7485 120.956 64.9195C121.694 64.3425 122.456 63.7555 123.13 63.0895C123.263 62.9845 123.405 62.8895 123.536 62.7815C125.589 61.0955 127.453 59.1495 129.202 57.1545C132.685 53.1795 136.385 48.8495 141.293 46.6105C141.472 46.5285 141.344 46.2175 141.158 46.2895C136.213 48.2055 132.464 51.6365 128.555 55.1045C127.282 56.2335 126.028 57.3895 124.731 58.4945C126.663 55.5215 128.11 52.1725 129.949 49.1545C133.387 43.5125 138.142 37.1675 145.044 35.8265C145.148 35.8065 145.126 35.6325 145.019 35.6395C139.373 36.0385 134.933 39.8865 131.328 43.9375C129.218 46.3085 127.5 48.8935 125.946 51.6545C124.63 53.9925 123.364 56.4025 121.66 58.4875C120.647 59.4545 119.624 60.4175 118.669 61.4365C118.499 61.5625 118.331 61.6915 118.153 61.8075C117.65 62.1365 117.122 62.4295 116.571 62.6715C116.963 62.1865 117.325 61.6765 117.615 61.1265C118.386 59.6665 118.843 58.0675 118.926 56.4185C118.935 56.2375 118.652 56.1995 118.61 56.3755C118.252 57.8665 117.592 59.2805 116.659 60.4995C116.217 61.0765 115.717 61.6165 115.192 62.1175C114.909 62.3875 114.621 62.6525 114.311 62.8925C114.095 63.0595 113.862 63.1995 113.671 63.3845C113.406 63.2315 113.136 63.0845 112.86 62.9445C112.863 62.9375 112.866 62.9315 112.869 62.9245C113.031 62.5655 113.168 62.2015 113.304 61.8325C113.598 61.0305 113.903 60.2335 114.207 59.4355C114.509 58.6445 114.875 57.8325 115.171 57.0055C115.295 56.9325 115.42 56.8615 115.541 56.7845C116.489 56.1835 117.501 55.4855 118.296 54.6365C118.391 54.6185 118.487 54.5825 118.584 54.5105C120.225 53.2815 121.53 51.2265 122.223 49.3115C122.536 48.4455 122.712 47.4905 122.649 46.5675C122.57 45.4085 122.047 44.4845 121.691 43.4065C121.312 42.2575 121.802 41.4595 122.153 40.3895C122.439 39.5165 122.519 38.5875 122.41 37.6775C122.203 35.9515 121.33 34.3025 119.928 33.2535C118.634 32.2855 116.975 31.9365 115.382 32.1325C115.523 31.3175 115.64 30.5065 115.739 29.6965ZM121.635 90.4655C120.857 89.4765 120.62 88.1975 120.29 87.0105C119.96 85.8275 119.648 84.6395 119.269 83.4705C119.047 82.7855 118.757 82.1285 118.431 81.4885C119.331 82.1135 120.217 82.7755 121.065 83.4645C123.027 85.0575 124.992 86.9435 126.326 89.1025C126.515 89.4075 126.973 89.1385 126.806 88.8225C126.182 87.6415 125.594 86.4375 124.871 85.3115C124.144 84.1795 123.317 83.1115 122.425 82.1045C121.9 81.5115 121.338 80.9755 120.754 80.4635C120.863 80.5115 120.971 80.5605 121.08 80.6095C122.78 81.3775 124.401 82.1905 125.678 83.5875C125.832 83.7555 126.14 83.5285 126 83.3395C124.891 81.8495 123.52 80.5335 122.032 79.4265C121.602 79.1065 121.162 78.8075 120.713 78.5205C120.813 78.5315 120.914 78.5395 121.014 78.5485C120.955 78.6015 120.949 78.7035 121.05 78.6985C124.25 78.5405 127.836 78.6355 130.735 80.1805C131.783 80.9985 132.713 81.9645 133.649 82.9085C134.642 84.6465 134.812 86.7755 133.654 88.6085C133.231 89.2785 132.778 89.9205 132.437 90.6395C132.068 91.4185 131.935 92.2555 131.691 93.0765C131.179 94.7985 129.923 96.1235 128.017 96.0665C127.321 96.0455 126.677 95.7015 125.979 95.7075C125.254 95.7145 124.672 96.2015 123.978 96.3415C123.217 96.4945 122.544 96.2775 121.955 95.8865C121.938 95.8305 121.92 95.7745 121.872 95.7335C121.508 95.4175 121.154 95.1215 120.815 94.8245C120.584 94.5395 120.374 94.2425 120.191 93.9525C119.69 93.1565 119.23 92.3075 119.014 91.3845C118.807 90.4995 118.88 89.5565 118.758 88.6555C118.608 87.5495 118.255 86.4045 117.813 85.3045C117.81 85.2135 117.809 85.1225 117.804 85.0305C118.36 86.0395 118.943 87.0345 119.516 88.0345C120.056 88.9755 120.588 89.9625 121.396 90.7045C121.561 90.8535 121.767 90.6325 121.635 90.4655ZM114.989 74.1355C113.968 75.4785 112.281 76.3615 110.63 76.6055C109.181 76.8195 107.686 76.5705 106.407 75.9375C106.373 75.9205 106.34 75.8995 106.305 75.8865C105.56 75.5025 104.893 74.9845 104.355 74.3505C104.302 74.2515 104.237 74.1625 104.154 74.0945C103.616 73.3825 103.229 72.5435 103.071 71.5855C102.797 69.9255 103.414 68.0255 104.312 66.6375C105.327 65.0705 106.966 64.0065 108.849 63.9295C109.933 63.8845 111.021 64.2055 112.006 64.6365C113.024 65.0815 114.1 65.6055 114.8 66.4905C115.514 67.3925 115.789 68.4675 115.943 69.5845C115.966 70.1325 115.944 70.6825 115.901 71.2285C115.821 72.2675 115.634 73.2875 114.989 74.1355ZM115.496 76.3335C115.464 76.3235 115.433 76.3075 115.401 76.2985C115.403 76.2965 115.406 76.2945 115.409 76.2925C115.437 76.2665 115.463 76.2365 115.491 76.2105C115.493 76.2515 115.488 76.2925 115.496 76.3335ZM115.099 78.0635C115.096 78.0685 115.096 78.0735 115.094 78.0785C115.092 78.0725 115.089 78.0665 115.087 78.0605C115.091 78.0615 115.095 78.0625 115.099 78.0635ZM111.638 79.7785C111.632 79.8035 111.624 79.8275 111.621 79.8545C111.598 79.7765 111.582 79.6955 111.556 79.6185C111.583 79.6705 111.61 79.7255 111.638 79.7785ZM108.649 79.3205L108.648 79.3175C108.678 79.2535 108.709 79.1895 108.739 79.1255C108.762 79.2205 108.79 79.3135 108.808 79.4115C108.953 80.1995 109.143 80.9885 109.169 81.7925C109.2 82.7615 109.036 83.7085 108.792 84.6395C109.01 82.8715 108.972 81.0715 108.649 79.3205ZM106.901 78.3415C106.875 78.3925 106.847 78.4435 106.822 78.4965C106.824 78.4515 106.82 78.4095 106.821 78.3645C106.833 78.3635 106.844 78.3615 106.856 78.3595C106.881 78.3505 106.881 78.3495 106.901 78.3415ZM96.2437 80.8155C97.5767 80.4925 98.8567 80.0805 100.063 79.4165C100.376 79.2435 100.68 79.0515 100.976 78.8455C100.819 79.1125 100.664 79.3795 100.514 79.6365C99.7667 80.9135 99.0837 82.2505 98.5297 83.6205C97.4467 86.2985 96.5507 89.1295 94.9827 91.5745C94.8527 91.7765 95.1517 92.0075 95.3157 91.8315C97.2727 89.7335 99.0567 87.4655 100.528 85.0005C101.196 83.8825 101.814 82.7385 102.456 81.6045C102.341 82.4895 102.216 83.3665 102.007 84.2505C101.41 86.7715 100.562 89.3895 98.9637 91.4635C98.7047 91.8005 99.2397 92.1535 99.5267 91.8975C101.618 90.0285 103.292 88.0205 104.294 85.3715C104.569 84.6455 104.757 83.8625 104.887 83.0725C105.232 82.5175 105.592 81.9705 105.909 81.3985C106.048 81.1475 106.181 80.8615 106.306 80.5635C106.298 80.8945 106.31 81.2265 106.333 81.5605C106.386 82.3045 106.401 83.0425 106.496 83.7835C106.571 84.3645 106.664 84.9435 106.754 85.5235C106.434 87.5625 105.871 89.5435 104.778 91.3965C103.836 92.9935 102.528 94.3655 100.943 95.3365C99.0557 96.4935 96.8277 97.0315 94.7357 97.6995C93.8627 97.9785 92.7257 98.5825 91.8157 98.6325C91.1157 98.6705 91.0657 97.9985 90.8587 97.4465C90.6587 96.9145 90.4687 96.3795 90.2927 95.8385C89.6277 93.8005 89.2387 91.7325 89.3207 89.5805C89.4637 85.7985 91.1507 82.4055 94.6387 80.7335C95.1937 80.4675 95.8257 80.2055 96.4847 79.9275C96.3407 79.9965 96.2027 80.0775 96.0557 80.1375C95.6497 80.3045 95.7927 80.9245 96.2437 80.8155ZM101.988 67.1785C102.049 67.1935 102.11 67.2045 102.172 67.2135C102.151 67.2735 102.13 67.3345 102.111 67.3955C102.074 67.3205 102.03 67.2495 101.988 67.1785ZM110.72 60.2285C111.313 59.6795 111.925 59.1465 112.547 58.6435C113.159 58.1495 113.846 57.7685 114.529 57.3835C114.175 58.0315 113.767 58.6555 113.404 59.2695C113.008 59.9395 112.612 60.6095 112.208 61.2745C112.005 61.6085 111.805 61.9385 111.627 62.2865C111.611 62.3185 111.592 62.3505 111.574 62.3825C111.304 62.2865 111.031 62.2075 110.754 62.1405C110.767 61.5075 110.693 60.8675 110.72 60.2285ZM114.928 33.1775C116.084 32.9565 117.316 33.1135 118.359 33.6555C119.848 34.4305 120.797 36.0215 120.938 37.6755C121.002 38.4275 120.892 39.1715 120.616 39.8725C120.297 40.6825 119.822 41.4185 119.753 42.3085C119.595 44.3315 121.123 45.9545 120.624 48.0335C120.338 49.2255 119.707 50.1855 119.038 51.1285C118.947 51.1835 118.869 51.2645 118.826 51.3755C118.799 51.4465 118.757 51.4995 118.727 51.5665C118.409 52.0105 118.096 52.4615 117.813 52.9335C116.533 54.2295 114.601 54.7385 112.977 55.6475C112.618 55.8485 112.276 56.0775 111.944 56.3195C112.246 55.5615 112.521 54.7995 112.699 53.9965C112.921 52.9895 113.056 51.9615 113.219 50.9435C113.244 50.7885 113.014 50.7185 112.979 50.8775C112.822 51.5885 112.636 52.2895 112.426 52.9835C112.481 52.4065 112.496 51.8405 112.445 51.3115C112.251 49.3335 111.616 47.4155 111.785 45.4075C111.966 43.2415 112.731 41.2065 114.119 39.5315C114.214 39.4175 114.057 39.2535 113.954 39.3665C111.174 42.3875 109.57 46.1455 109.997 50.2825C110.108 51.3575 110.325 52.3645 110.567 53.4145C110.869 54.7225 110.639 56.0455 110.201 57.3005C109.94 58.0505 109.34 59.0525 108.981 60.0495C108.882 60.2385 108.781 60.4265 108.686 60.6185C108.659 60.6735 108.632 60.7455 108.604 60.8195C108.582 60.7565 108.545 60.6985 108.527 60.6335C108.311 59.8705 108.257 59.0535 108.22 58.2645C108.131 56.3935 108.37 54.5425 108.974 52.7685C109.036 52.5875 108.759 52.5185 108.692 52.6905C108.377 53.5015 108.11 54.3295 107.876 55.1665C107.783 54.6855 107.627 54.2135 107.358 53.7285C106.601 52.3655 105.241 51.3495 104.32 50.0935C103.394 47.8985 102.895 45.5915 103.375 43.0875C103.942 40.1255 105.892 36.7445 108.992 35.9125C109.677 35.7285 110.389 35.6715 111.044 35.3825C111.89 35.0085 112.482 34.2805 113.264 33.8045C113.574 33.6155 113.909 33.4725 114.252 33.3575C114.495 33.3625 114.732 33.3085 114.928 33.1775ZM44.6267 47.7295C44.6367 47.5385 44.6607 47.3485 44.6787 47.1585C44.7917 47.2085 44.9177 47.2385 45.0677 47.2215C47.0267 46.9955 48.9547 46.5565 50.9107 46.3095C52.8617 46.0635 54.8157 46.0245 56.7757 46.1675C57.0147 46.1845 57.0027 45.8305 56.7757 45.8015C54.7907 45.5485 52.7947 45.3515 50.7977 45.2175C48.8417 45.0865 46.8627 45.0525 44.9287 45.4245C45.0177 44.9735 45.1217 44.5245 45.2327 44.0765C45.8237 44.1285 46.5447 43.8775 47.0447 43.7935C47.7977 43.6675 48.5537 43.5585 49.3137 43.4925C50.9087 43.3545 52.4987 43.3005 54.0957 43.4235C54.4587 43.4515 54.4407 42.9135 54.0957 42.8675C52.6247 42.6745 51.1487 42.4785 49.6677 42.3715C48.3607 42.2775 47.0327 42.1825 45.7187 42.2245C45.9877 41.2355 46.2537 40.2465 46.4477 39.2475C46.6877 38.0095 46.8427 36.7465 46.7947 35.4845C46.7257 33.6955 46.2787 31.9525 46.1147 30.1745C46.0227 29.1755 46.0687 28.1375 46.2357 27.1105C47.7797 26.9745 49.2987 26.6785 50.8487 26.5635C52.4257 26.4465 54.0057 26.3855 55.5867 26.4205C55.6997 26.4235 55.7297 26.2415 55.6137 26.2195C54.0647 25.9275 52.5077 25.6675 50.9417 25.4895C49.5447 25.3305 48.1227 25.1405 46.7137 25.1475C46.8237 24.8155 46.9437 24.4885 47.0807 24.1685C47.2327 24.2675 47.4087 24.3415 47.6377 24.3415C49.0897 24.3425 50.5837 24.3705 52.0257 24.2035C53.2877 24.0575 54.5307 23.9105 55.8037 23.9035C58.5297 23.8875 61.2967 24.1635 63.8107 25.2825C63.9717 25.3535 64.1137 25.1215 63.9507 25.0425C61.5557 23.8815 59.0127 23.2305 56.3827 22.8755C55.0287 22.6925 53.6707 22.5295 52.3157 22.3605C50.9497 22.1905 49.5417 22.2055 48.1587 22.2235C49.2227 20.6815 50.6767 19.4455 52.5097 18.8245C55.2387 17.8995 58.2457 18.6385 61.0427 17.9205C63.4337 17.3065 65.6577 16.0155 67.4097 14.2805C69.2027 12.5045 70.1087 10.3585 71.3247 8.20353C71.5337 7.83253 71.7647 7.50053 72.0117 7.19053C72.0847 7.29253 72.1797 7.37653 72.2997 7.42753C73.7497 8.04653 75.2317 8.54953 76.6567 9.23353C78.0717 9.91353 79.4217 10.6625 80.7247 11.5395C81.0577 11.7645 81.3447 11.2395 81.0347 11.0095C79.7797 10.0765 78.5167 9.14353 77.2237 8.26353C76.0287 7.44953 74.8047 6.58753 73.5137 5.92353C73.7577 5.79453 74.0077 5.67153 74.2927 5.58253C74.4977 5.51853 74.7107 5.47853 74.9207 5.42853C75.6877 5.95653 76.5897 6.23053 77.4377 6.60953C78.3597 7.02153 79.2997 7.38453 80.2147 7.81153C82.1087 8.69653 83.8827 9.80653 85.5597 11.0515C89.0717 13.6595 92.0357 16.8585 94.6307 20.3665C94.8717 20.6925 95.4247 20.3875 95.1867 20.0415C92.6267 16.3235 89.9127 12.5595 86.4557 9.61553C84.8157 8.21853 82.9927 6.98653 81.0527 6.04453C80.1637 5.61253 79.1957 5.19753 78.2237 4.96853C78.4947 4.94453 78.7677 4.92153 79.0347 4.89453C85.5697 4.22953 92.1407 3.89553 98.5307 5.66753C100.073 6.09553 101.623 6.47853 103.228 6.55253C104.806 6.62453 106.414 6.55553 107.892 7.22053C110.22 8.26853 111.444 10.7425 112.155 13.0695C112.99 15.7985 113.173 18.6905 113.304 21.5255C113.469 25.0925 113.411 28.7085 113.097 32.2645C113.078 32.4795 113.14 32.6555 113.232 32.8125C113.09 32.8875 112.936 32.9415 112.802 33.0285C111.754 33.7115 111.115 34.6375 109.822 34.9105C106.223 35.6705 103.331 37.6765 102.04 41.2415C100.643 45.1015 102.115 49.9225 104.817 53.0055C104.924 53.2035 105.027 53.4015 105.136 53.6005C105.614 54.4745 106.096 55.3215 106.44 56.2635C106.863 57.4215 106.872 58.6555 107.04 59.8645C107.057 59.9895 107.074 60.1305 107.093 60.2745C106.749 59.8395 106.45 59.3685 106.194 58.8755C105.317 57.1875 104.642 55.3485 104.464 53.4475C104.441 53.1985 104.07 53.1885 104.069 53.4475C104.06 55.5335 104.229 57.6055 104.862 59.5995C104.475 59.2445 104.08 58.9075 103.763 58.5755C102.732 57.4935 101.78 56.3625 100.975 55.1005C99.2517 52.3965 98.4157 49.4735 97.7797 46.3625C97.1107 43.0935 96.6417 39.8825 95.1827 36.8415C93.8007 33.9615 91.8157 31.4515 89.7467 29.0395C89.5967 28.8655 89.3627 29.1135 89.4987 29.2875C91.6397 32.0265 93.6287 35.0055 94.8077 38.2975C96.0427 41.7455 95.5827 45.3225 96.2317 48.8575C96.7517 51.6885 97.9267 54.4035 99.5497 56.7765C100.35 57.9455 101.25 59.0825 102.286 60.0525C102.593 60.3395 102.956 60.6825 103.35 61.0065C103.432 61.1125 103.525 61.2075 103.61 61.3115C102.864 60.9405 102.13 60.5465 101.472 59.9545C100.271 58.8745 99.3087 57.5645 98.5247 56.1565C96.6847 52.8515 95.8907 49.0905 94.4217 45.6245C91.8747 39.6165 87.1617 34.9925 81.5207 31.8315C78.3247 30.0405 74.9167 29.0435 71.4187 28.0375C71.3097 28.0065 71.2657 28.1715 71.3717 28.2065C74.5507 29.2455 77.5657 30.9205 80.4217 32.6495C83.2827 34.3815 85.9527 36.4925 88.2047 38.9715C90.5637 41.5675 92.3087 44.5445 93.5097 47.8345C94.7497 51.2335 95.6267 54.8375 97.5607 57.9355C98.2427 59.0275 99.2277 60.3365 100.397 61.4155C100.479 61.5225 100.564 61.6275 100.649 61.7325C99.2867 60.8735 98.1067 59.6965 97.0167 58.3425C94.7477 55.5265 92.8187 52.4705 90.6477 49.5845C88.6897 46.9815 86.7567 44.3775 84.4027 42.1105C82.1667 39.9575 79.6177 38.2645 76.7827 36.9985C76.6047 36.9185 76.4477 37.1815 76.6277 37.2635C83.3047 40.3025 87.1067 46.9875 90.8837 52.8935C92.7757 55.8535 94.6527 58.9375 97.0767 61.5025C97.7207 62.1845 98.4327 62.8005 99.2027 63.3295C99.3707 63.6475 99.5617 63.9555 99.7717 64.2525C99.0637 63.8705 98.3567 63.4855 97.6637 63.0755C97.3867 62.9115 97.1127 62.7355 96.8377 62.5625C94.7257 60.6655 92.6847 58.6705 90.3297 57.0625C87.3847 55.0515 84.1147 53.5515 80.7157 52.4855C77.3207 51.4215 73.8407 50.6905 70.2777 50.5425C66.6277 50.3915 63.1577 50.9895 59.6457 51.9305C59.4087 51.9935 59.5087 52.3525 59.7467 52.2975C66.4627 50.7405 74.3107 51.3445 80.7017 53.9135C83.9517 55.2195 87.0517 57.0795 89.7497 59.3125C89.9087 59.4435 90.0597 59.5845 90.2157 59.7185C90.1277 59.6955 90.0427 59.6545 89.9537 59.6365C89.8387 59.6135 89.7207 59.5875 89.6027 59.5635C85.5597 56.8275 80.0927 56.2135 75.3537 56.3935C68.8587 56.6415 62.3097 58.0805 55.8017 57.6535C50.2577 57.2845 44.3097 54.0005 44.6267 47.7295ZM49.3327 120.71C45.5847 122.211 41.7257 123.337 37.6957 123.717C33.6897 124.095 29.8957 123.839 26.0397 122.631C22.0047 121.367 18.6327 119.043 15.0717 116.845C12.2087 115.078 9.0017 113.589 5.6517 113.451C14.3867 105.651 26.2227 101.674 37.9237 102.679C40.8137 102.927 43.6587 103.531 46.4537 104.309C47.2397 104.88 48.1057 105.356 48.9607 105.846C50.7997 106.901 52.0427 108.292 53.1277 110.099C53.4717 110.672 53.8087 111.248 54.1487 111.821C52.2777 111.277 50.3297 110.967 48.4057 110.761C48.5337 110.517 48.3977 110.215 48.1367 110.139C48.1227 110.135 47.8077 110.084 47.8927 110.104C47.9797 110.125 47.6197 110.033 47.5567 110.028C47.4057 110.016 47.2287 110.034 47.0547 110.062C46.3267 109.673 45.5537 109.342 44.7297 109.012C42.7297 108.211 40.6717 107.596 38.5817 107.073C34.5657 106.069 30.4607 105.454 26.3297 105.197C26.1027 105.183 26.0457 105.565 26.2757 105.599C30.2587 106.197 34.1707 107.174 37.9607 108.539C39.5607 109.115 41.1267 109.775 42.6887 110.447C41.0477 110.433 39.4057 110.47 37.7597 110.547C30.7327 110.873 23.7407 111.619 16.7567 112.432C16.5837 112.452 16.5737 112.718 16.7567 112.71C23.5987 112.403 30.4677 112.042 37.3137 112.417C39.0747 112.513 40.8387 112.648 42.5987 112.81C42.5797 112.828 42.5587 112.843 42.5397 112.861C40.9357 114.373 39.3407 115.973 37.2687 116.822C37.0237 116.922 37.1137 117.315 37.3817 117.231C39.4567 116.579 41.3607 115.521 43.2397 114.447C43.9947 114.016 44.7347 113.566 45.4787 113.118C46.1627 113.193 46.8487 113.254 47.5307 113.338C50.2537 113.671 53.0017 114.104 55.7527 114.246C56.0067 114.578 56.2637 114.907 56.5507 115.217C57.0747 115.783 57.6577 116.3 58.2647 116.789C55.2387 117.972 52.3557 119.5 49.3327 120.71ZM58.9667 114.029C58.5797 113.651 58.2327 113.247 57.9037 112.831C58.4767 112.67 59.0337 112.446 59.4597 112.3C60.6407 111.893 61.7717 111.361 62.8547 110.737C64.9417 109.536 66.8157 107.753 68.4837 106.033C68.6287 105.883 68.4097 105.668 68.2567 105.806C66.4137 107.448 64.3437 108.474 62.0927 109.433C61.0487 109.878 59.9647 110.246 58.8807 110.578C58.3027 110.755 57.7187 110.907 57.1297 111.041C56.9927 111.072 56.8577 111.107 56.7247 111.146C56.3997 110.632 56.0827 110.112 55.7707 109.584C55.7407 109.533 55.7077 109.481 55.6777 109.43C56.7517 109.49 57.9967 109.09 58.8147 108.703C60.4747 107.916 62.0467 106.964 63.5877 105.969C66.7167 103.949 69.6037 101.684 72.5237 99.3795C72.6657 99.2675 72.4777 99.0205 72.3287 99.1265C69.5297 101.124 66.5407 102.905 63.5947 104.676C62.1667 105.535 60.7017 106.518 59.1157 107.058C58.3377 107.323 57.4737 107.527 56.6557 107.62C55.9567 107.7 55.2917 107.553 54.6447 107.792C54.2797 107.251 53.8967 106.724 53.4607 106.244C53.5317 106.23 53.6047 106.226 53.6757 106.21C54.5577 106.007 55.4247 105.731 56.2687 105.405C57.9207 104.766 59.4517 103.899 60.9387 102.943C61.0817 102.851 60.9567 102.637 60.8057 102.716C59.2907 103.508 57.6377 103.983 55.9547 104.268C55.1537 104.404 54.3447 104.482 53.5327 104.511C53.1247 104.525 52.7177 104.555 52.3107 104.568C52.0217 104.578 51.7247 104.566 51.4357 104.595C50.2457 103.881 48.9427 103.381 47.7447 102.66C44.4157 100.654 45.0817 96.2445 42.8647 93.4115C41.2267 91.3175 38.2147 90.2685 36.6777 88.1515C37.2417 87.9615 37.7497 87.6305 38.3037 87.3635C39.0387 87.0095 39.7967 86.7065 40.5587 86.4125C42.1857 85.7865 43.8877 85.2895 45.5877 84.9055C49.0127 84.1325 52.6937 84.0345 56.1857 84.2525C56.4437 84.2685 56.4317 83.8875 56.1857 83.8575C52.4637 83.4005 48.8037 83.2185 45.0637 83.5545C43.2967 83.7135 41.5707 84.0435 39.8797 84.5845C39.0487 84.8505 38.2387 85.1965 37.4487 85.5665C36.8987 85.8235 36.3377 86.0715 35.8707 86.4375C35.8187 86.2265 35.7767 86.0075 35.7517 85.7775C35.7007 85.3085 35.7037 84.8395 35.7377 84.3705C36.1497 84.4735 36.6477 84.3485 36.8917 83.9725C37.2607 83.4025 37.7777 83.1415 38.3677 82.7995C39.1617 82.3405 40.0297 82.0115 40.8957 81.7135C42.6397 81.1125 44.4207 80.7035 46.2597 80.5435C46.3987 80.5315 46.4027 80.3235 46.2597 80.3245C44.1917 80.3335 42.1167 80.5035 40.0877 80.9125C39.0767 81.1155 38.0587 81.3455 37.0607 81.6015C36.7477 81.6815 36.4457 81.8025 36.1727 81.9585C36.3647 81.2315 36.5907 80.5145 36.8017 79.8155C37.4207 77.7595 37.8727 75.7155 38.1757 73.5895C38.4967 71.3415 38.7477 69.0135 39.7577 66.9465C40.6247 65.1705 42.0087 63.7095 43.6437 62.6155C46.7657 60.5275 50.3807 59.8585 53.8817 58.7455C55.0327 58.8485 56.1887 58.8705 57.3107 58.8465C61.2057 58.7615 65.0917 58.1925 68.9747 57.9035C72.7327 57.6235 76.5107 57.7725 80.2147 58.5115C83.5657 59.1795 86.5767 60.5455 89.5377 62.1915C89.8177 62.4405 90.1137 62.6715 90.4207 62.8895C89.4437 62.7315 88.4627 62.5855 87.4727 62.4335C87.2277 62.3965 87.1167 62.7445 87.3677 62.8145C89.9267 63.5245 92.5297 64.5855 94.8517 65.8815C95.4787 66.2315 96.1037 66.5985 96.7197 66.9785C96.3397 66.9115 95.9597 66.8455 95.5807 66.7945C95.4607 66.7785 95.3437 66.7775 95.2247 66.7645C93.4217 66.3215 91.5317 66.1445 89.8597 66.0915C85.0657 65.9385 80.4337 67.3455 75.7957 68.3615C75.5977 68.4045 75.6377 68.7415 75.8447 68.7205C80.3117 68.2695 84.7877 68.2445 89.2637 68.6025C90.9957 68.7415 92.7357 69.0105 94.4237 69.4415C91.8887 69.6175 89.4527 70.2395 87.1117 71.2325C82.1477 73.3385 77.7197 77.4055 72.0257 77.1945C71.7667 77.1845 71.7017 77.6025 71.9637 77.6545C76.9977 78.6535 81.8247 76.4445 86.3057 74.3955C88.7537 73.2765 91.2227 72.3695 93.9157 72.0635C95.1827 71.9195 96.4807 71.8645 97.7557 71.8835C98.4897 71.8945 99.2187 71.9665 99.9467 72.0365C99.9357 72.0435 99.9257 72.0495 99.9157 72.0565C99.8817 72.0565 99.8517 72.0505 99.8167 72.0525C98.9127 72.0855 98.0217 72.3315 97.1667 72.6115C95.2307 73.2445 93.3897 74.2065 91.6457 75.2485C89.9067 76.2865 88.4247 77.6605 86.5907 78.5585C84.5667 79.5495 82.2717 80.1115 80.0247 80.1995C79.8647 80.2055 79.8637 80.4445 80.0247 80.4485C83.9887 80.5415 87.7947 79.9045 91.5327 78.5715C93.0537 78.0285 94.4567 77.2115 95.9157 76.5205C95.6957 76.7315 95.4757 76.9425 95.2557 77.1555C95.0577 77.3475 95.3207 77.7105 95.5567 77.5465C96.7227 76.7335 97.9547 75.8555 99.3407 75.4705C99.9717 75.2955 100.653 75.1175 101.305 75.0565C101.408 75.0465 101.514 75.0435 101.621 75.0415C99.3017 78.3745 94.7567 78.3675 91.5567 80.7445C88.3367 83.1365 87.2047 87.2155 87.7197 91.0725C88.0357 93.4415 88.8377 95.7775 89.7447 97.9785C90.0007 98.6005 90.2307 99.4585 90.8847 99.7875C90.7957 99.8535 90.7107 99.9275 90.6327 100.013C90.4657 100.197 90.3577 100.407 90.2697 100.629C90.2467 100.663 90.2197 100.689 90.1977 100.724C88.6247 103.139 88.8477 105.981 88.5297 108.707C87.5007 111.255 85.9697 113.636 84.5187 115.917C83.4847 117.543 82.3617 119.28 80.6647 120.285C79.6177 120.905 78.4517 121.125 77.2687 121.132C77.0187 120.799 76.4687 120.735 76.1277 121.04C76.1147 121.052 76.1037 121.067 76.0907 121.079C75.5277 121.022 74.9677 120.93 74.4227 120.818C70.6817 120.045 66.8087 118.85 63.4107 117.09C63.1307 116.945 62.8547 116.789 62.5797 116.635C62.5957 116.442 62.3947 116.239 62.1977 116.375C62.1857 116.383 62.1747 116.394 62.1627 116.402C61.0117 115.725 59.9207 114.959 58.9667 114.029ZM89.2267 149.652C87.5767 153.157 85.0387 155.715 82.0187 158.071C79.2827 160.205 76.3477 162.295 74.3107 165.152C71.8917 168.546 71.8677 172.676 70.8517 176.551C66.4987 169.346 62.4137 162.032 58.9807 154.329C57.1517 150.225 55.6537 145.86 55.5257 141.329C55.4017 136.923 56.3077 132.523 57.2717 128.244C58.0297 124.884 59.0077 121.43 61.0057 118.604C61.1317 118.671 61.2537 118.749 61.3807 118.813C65.0267 120.65 69.1257 121.627 73.0887 122.519C73.6047 122.635 74.1297 122.737 74.6587 122.824C73.9477 123.961 73.4157 125.275 72.9637 126.575C72.6477 126.839 72.3447 127.111 72.0707 127.369C71.1877 128.2 70.3687 129.055 69.6167 130.007C68.0767 131.958 66.9467 134.122 65.7887 136.311C65.6777 136.521 65.9707 136.687 66.1047 136.496C67.5077 134.48 69.0507 132.649 70.8517 130.975C71.1847 130.665 71.5167 130.355 71.8497 130.045C71.0587 132.674 70.5137 135.375 69.9947 138.068C68.8377 144.063 68.3487 150.205 68.4427 156.307C68.4467 156.543 68.7977 156.542 68.8087 156.307C69.0877 150.205 70.0767 144.203 71.7107 138.319C72.2377 136.421 72.8937 134.56 73.5817 132.713C73.7187 133.666 73.8837 134.614 74.1197 135.554C74.8447 138.448 76.0057 141.265 77.2697 143.962C77.4067 144.255 77.8227 143.999 77.6987 143.711C76.5827 141.108 75.9447 138.421 75.5337 135.625C75.2027 133.374 75.1087 131.134 75.0447 128.879C75.4357 127.863 75.8257 126.847 76.2287 125.835C76.6007 124.902 76.9587 123.991 77.1807 123.038C78.3137 123.033 79.4367 122.872 80.5077 122.438C82.6067 121.587 84.0927 119.876 85.3387 118.046C85.7007 117.514 86.0627 116.973 86.4217 116.425C86.4747 119.556 87.8187 122.655 89.9177 125.144C90.0987 127.03 90.5517 128.884 90.8067 130.767C91.1167 133.053 91.2957 135.388 91.3747 137.694C91.5137 141.774 90.9797 145.928 89.2267 149.652ZM99.8987 129.107C98.2027 129.047 96.6937 128.572 95.2277 127.719C90.7107 125.09 87.1637 120.098 87.3767 114.925C89.3267 111.759 90.9867 108.346 91.4437 104.684C91.4437 104.681 91.4427 104.679 91.4427 104.677C91.4627 104.614 91.4857 104.553 91.5057 104.49C91.6147 104.278 91.7237 104.06 91.8087 103.838C91.9087 103.577 91.9937 103.311 92.0787 103.044C92.1487 102.899 92.2037 102.747 92.2837 102.607C93.1227 101.15 94.7067 100.278 96.1397 99.4785C95.5007 100.418 94.9917 101.451 94.6257 102.516C94.2387 103.64 94.1177 104.851 94.0677 106.034C94.0147 107.291 93.9497 108.513 93.7817 109.762C93.7657 109.884 93.9757 109.913 93.9967 109.791C94.1917 108.682 94.4277 107.641 94.8377 106.589C95.2297 105.583 95.7007 104.615 96.1237 103.623C96.8577 101.9 97.7817 100.248 99.1047 98.9025C99.4007 98.6015 100.155 97.8795 100.116 97.3205C100.533 97.0885 100.945 96.8455 101.354 96.5975C101.639 96.4355 101.921 96.2675 102.19 96.0825C102.201 96.0745 102.213 96.0685 102.225 96.0615C102.228 96.0595 102.228 96.0555 102.231 96.0525C103.341 95.2845 104.328 94.3495 105.186 93.2925C105.789 92.5505 106.298 91.7435 106.758 90.9105C106.15 92.9845 105.684 95.0905 105.54 97.2805C105.074 104.333 106.767 111.075 110.358 117.14C110.454 117.303 110.699 117.159 110.611 116.992C107.043 110.266 107.089 102.407 108.518 95.1185C108.87 93.3225 109.361 91.5605 109.961 89.8315C110.586 88.0275 111.345 86.2465 111.691 84.3595C111.843 83.5305 111.942 82.6505 111.925 81.7785C112.108 82.9145 112.248 84.0625 112.261 85.2045C112.281 86.9765 112.048 88.7435 111.85 90.5015C111.463 93.9275 111.345 97.2995 111.773 100.731C112.191 104.079 112.978 107.391 114.238 110.525C115.557 113.806 117.394 116.666 119.436 119.534C119.544 119.685 119.794 119.546 119.689 119.386C117.704 116.377 116.329 112.857 115.309 109.411C114.32 106.069 113.708 102.643 113.597 99.1545C113.487 95.6935 114.006 92.3445 114.431 88.9235C114.765 86.2355 114.985 83.1675 113.65 80.7615C113.587 80.4545 113.522 80.1475 113.434 79.8495C113.368 79.6275 113.284 79.4105 113.206 79.1915C113.772 80.3235 114.424 81.4225 114.809 82.6425C115.092 83.5395 115.302 84.4705 115.424 85.4035C115.574 86.5485 115.462 87.6975 115.532 88.8465C115.577 89.5935 115.723 90.3015 115.932 90.9845C115.563 94.4815 115.328 98.0425 115.812 101.46C116.397 105.594 118.442 109.354 121.013 112.581C121.126 112.723 121.373 112.534 121.266 112.386C118.759 108.93 117.576 104.698 117.429 100.461C117.358 98.4215 117.625 96.3215 117.804 94.2265C118.034 94.4705 118.287 94.7055 118.554 94.9295C118.602 95.0035 118.64 95.0845 118.689 95.1575C119.657 96.6075 121 97.8855 122.803 98.0995C123.591 98.1935 124.439 98.0295 125.103 97.5785C125.636 97.2165 125.744 96.7575 126.527 96.8695C126.94 96.9285 127.326 97.0935 127.75 97.1315C129.332 97.2725 130.921 96.5535 131.874 95.2895C132.284 94.7455 132.537 94.1385 132.803 93.5325C135.367 95.9405 137.212 98.7745 138.688 101.965C138.925 103.145 138.986 104.466 139.072 105.62C139.276 108.35 139.058 111.047 138.492 113.723C138.168 115.256 137.8 116.848 136.778 118.085C135.908 119.139 134.754 119.917 133.81 120.899C131.829 122.962 131.132 125.842 129.072 127.88C128.286 128.657 127.389 129.383 126.414 130.038C126.365 129.961 126.316 129.884 126.247 129.82C126.124 129.704 125.977 129.603 125.846 129.496C125.691 129.369 125.525 129.259 125.361 129.143C125.297 129.098 125.234 129.052 125.172 129.005C125.137 128.979 125.103 128.953 125.068 128.927C125.057 128.918 124.968 128.848 125.031 128.898C124.782 128.698 124.523 128.489 124.316 128.247C124.101 127.996 123.897 127.737 123.703 127.469C123.475 127.154 122.981 127.424 123.173 127.779C123.335 128.079 123.508 128.374 123.693 128.661C123.876 128.945 124.035 129.245 124.208 129.535C124.394 129.849 124.581 130.171 124.813 130.454C124.918 130.582 125.031 130.703 125.151 130.815C124.716 131.063 124.27 131.296 123.814 131.514C123.791 131.198 123.58 130.942 123.355 130.698C123.164 130.491 122.986 130.268 122.785 130.07C122.361 129.652 121.91 129.265 121.496 128.834C121.098 128.421 120.706 127.999 120.339 127.557C119.944 127.081 119.621 126.582 119.31 126.047C119.182 125.827 118.844 126.024 118.969 126.246C119.265 126.771 119.562 127.285 119.831 127.824C120.106 128.374 120.384 128.923 120.682 129.461C120.967 129.975 121.246 130.515 121.573 131.004C121.757 131.278 121.985 131.531 122.196 131.785C122.295 131.904 122.397 132.002 122.503 132.087C121.931 132.312 121.348 132.507 120.759 132.677C120.503 131.792 119.652 131.064 119.079 130.387C118.425 129.613 117.858 128.757 117.346 127.883C116.28 126.066 115.546 124.104 115.269 122.01C115.235 121.757 114.863 121.738 114.859 122.01C114.828 124.158 115.196 126.349 116.036 128.332C116.462 129.336 117 130.261 117.656 131.132C117.98 131.563 118.325 131.976 118.661 132.397C118.841 132.622 119.01 132.846 119.191 133.058C116.82 133.519 114.408 133.484 112.216 132.749C109.538 131.852 107.312 129.884 104.5 129.328C102.978 129.028 101.439 129.161 99.8987 129.107ZM126.82 159.76C127.712 154.643 129.002 149.441 131.195 144.714C132.342 142.241 133.776 139.917 135.543 137.837C136.992 136.131 138.693 134.795 140.541 133.605C139.918 134.934 139.615 136.338 139.632 137.876C139.658 140.296 140.356 142.669 140.818 145.028C141.741 149.734 142.333 154.646 141.259 159.379C140.286 163.662 137.995 167.477 135.672 171.149C133.277 174.934 130.822 178.685 128.988 182.786C129.171 179.851 129.263 176.913 129.564 173.986C130.205 167.759 131.146 161.429 133.666 155.65C133.725 155.514 133.521 155.412 133.458 155.548C129.201 164.78 127.908 175.014 127.043 185.052C127.039 185.098 127.037 185.145 127.033 185.192C126.373 182.112 125.964 178.976 125.789 175.84C125.49 170.466 125.896 165.059 126.82 159.76ZM53.3697 183.828C53.3727 183.826 53.3767 183.825 53.3797 183.823V183.824C53.3767 183.826 53.3737 183.826 53.3697 183.828ZM45.5127 185.851C47.2977 186.257 49.2217 186.444 51.0447 186.192C51.4947 186.13 51.9417 186.041 52.3847 185.938C52.3907 185.937 52.3977 185.936 52.4037 185.935C51.7367 186.737 50.9717 187.438 50.0067 188.072C48.4177 189.117 46.6357 189.851 44.7997 190.329C41.0677 191.301 36.9717 191.147 33.3687 189.775C33.2777 189.741 33.2017 189.882 33.2897 189.93C37.0647 191.98 41.4207 192.624 45.6187 191.685C47.5567 191.251 49.4117 190.494 51.1107 189.468C50.6297 189.894 50.1287 190.308 49.5847 190.7C46.7697 192.73 43.1857 193.78 39.7327 193.819C31.6147 193.912 24.5787 189.219 18.9537 183.78C17.0007 181.891 15.0997 179.919 13.3607 177.819C12.4667 175.982 11.1567 174.354 9.88671 172.774C9.16271 171.872 8.4137 170.972 7.6077 170.141C7.0407 169.556 6.4057 168.967 5.5667 168.864C5.3547 168.838 5.2787 169.173 5.4887 169.233C6.4207 169.501 6.9127 170.521 7.4657 171.241C7.6067 171.424 7.74571 171.608 7.88671 171.792C7.77971 171.683 7.6867 171.564 7.5707 171.462C6.9007 170.869 6.1807 170.357 5.4097 169.902C4.2937 169.243 3.09571 168.728 1.82571 168.564C2.59071 168.066 3.6077 168.014 4.4977 168.329C4.5267 168.339 4.5527 168.336 4.5807 168.342C5.2967 168.61 6.05071 168.816 6.72071 169.111C8.13971 169.736 9.4897 170.5 10.7627 171.386C13.6037 173.364 16.0357 175.864 18.3687 178.403C18.4007 178.438 18.4537 178.393 18.4247 178.356C16.1877 175.474 14.0207 172.52 11.2447 170.122C10.0417 169.083 8.7337 168.155 7.30269 167.455C6.23769 166.934 5.0307 166.37 3.8357 166.447C3.2257 165.961 2.6577 165.437 2.1227 164.873C3.0197 165.023 3.9257 165.069 4.8567 164.955C4.9837 164.94 5.0667 164.879 5.1267 164.802C6.2007 165.306 7.33671 165.653 8.47471 165.999C11.4567 166.906 14.5307 167.398 17.5357 168.206C17.7697 168.269 17.8987 167.917 17.6617 167.847C14.9057 167.035 12.3327 165.776 9.6887 164.664C8.4187 164.13 7.1397 163.617 5.9237 162.966C5.6167 162.802 5.31271 162.629 5.0067 162.46C5.3817 162.537 5.7597 162.604 6.1427 162.647C6.7017 162.709 6.8597 162.001 6.4807 161.69C6.0937 161.373 5.6987 161.064 5.3087 160.751C7.1677 161.209 9.05871 161.556 10.9637 161.698C12.1227 161.785 13.4207 161.823 14.6907 161.695C12.8017 162.775 10.8707 163.769 8.6457 163.467C8.4737 163.444 8.4627 163.696 8.6247 163.729C11.6207 164.343 14.5957 163.25 17.1707 161.786C18.6137 160.966 19.9907 160.173 21.6147 159.764C23.1427 159.379 24.7177 159.362 26.2517 159.042C26.3447 159.023 26.3567 158.892 26.2667 158.859C26.1787 158.826 26.0837 158.814 25.9937 158.786C26.9047 158.68 27.8217 158.616 28.7517 158.631C32.5427 158.694 36.2267 159.727 39.6147 161.403C43.0677 163.112 46.2367 165.47 48.9317 168.219C51.8797 171.226 54.5097 174.905 55.2907 179.126C55.5207 180.37 55.5257 181.657 55.3597 182.923C55.1677 181.93 54.7967 180.94 54.3877 180.031C53.0757 177.115 51.2267 174.429 49.0087 172.131C44.5827 167.547 38.4057 164.64 32.3787 162.836C32.2797 162.806 32.2267 162.954 32.3257 162.988C37.9647 164.934 43.0117 168.124 47.0837 172.489C50.0447 175.662 52.6687 179.483 53.3767 183.773C53.2477 183.812 53.1317 183.871 53.0097 183.934C52.7307 184.077 52.4187 184.21 52.1287 184.33C51.4677 184.603 50.7327 184.751 50.0397 184.919C48.5927 185.272 47.1077 185.422 45.6197 185.368C45.3487 185.359 45.2237 185.785 45.5127 185.851ZM102.53 218.399C99.9757 207.847 99.0037 197.072 100.021 186.252C100.564 180.478 101.52 174.763 102.613 169.072C104.194 173.677 105.894 178.225 107.944 182.652C110.343 187.831 113.24 192.821 114.906 198.307C116.487 203.512 116.999 208.952 116.447 214.362C115.887 219.858 113.932 224.942 112.15 230.124C111.78 231.199 111.417 232.302 111.08 233.414C110.957 230.123 110.776 226.834 110.607 223.545C110.288 217.339 109.947 211.096 108.1 205.119C108.028 204.886 107.666 204.984 107.733 205.22C109.479 211.329 109.257 217.721 109.111 224.01C109.037 227.184 108.953 230.357 108.926 233.531C108.912 235.154 108.917 236.778 108.944 238.401C108.332 236.817 107.727 235.23 107.15 233.631C105.351 228.641 103.778 223.555 102.53 218.399ZM97.2147 256.681C93.9257 255.141 90.7347 253.512 87.8117 251.333C85.2847 249.449 83.0247 247.265 80.9207 244.924C76.6837 240.21 73.1527 234.92 69.4487 229.792C65.8697 224.838 62.1037 219.97 57.5667 215.864C68.2117 218.226 78.2967 222.798 87.0807 229.277C91.8377 232.786 96.1927 236.85 100.021 241.355C104.548 246.682 108.432 252.567 112.31 258.373C112.944 259.322 113.59 260.278 114.233 261.242C113.197 260.212 112.11 259.232 110.985 258.314C108.134 255.987 105.125 253.87 102.234 251.595C99.0547 249.094 95.9317 246.532 92.8607 243.898C89.4007 240.93 85.9077 237.985 82.5677 234.882C82.3887 234.716 82.1207 234.981 82.2987 235.151C87.9127 240.51 93.5077 245.875 99.2007 251.153C101.907 253.662 104.581 256.206 107.337 258.661C109.661 260.731 112.004 262.844 113.983 265.254C114.025 265.305 114.063 265.359 114.105 265.41C109.12 261.498 102.906 259.345 97.2147 256.681ZM104.83 287.687C102.846 288.029 100.88 288.441 98.9147 288.875C91.2607 290.562 83.4817 292.587 75.5927 291.343C71.8637 290.755 68.3207 289.442 64.9657 287.738C61.7007 286.08 58.4887 284.119 55.9047 281.499C51.0587 276.585 48.5227 269.958 44.7137 264.299C40.6767 258.302 35.5397 253.118 29.7277 248.837C41.5997 243.572 55.2457 245.634 66.8007 250.849C78.7647 256.249 88.9127 264.393 97.8027 273.952C101.447 277.87 105.059 281.778 109.259 285.036C107.611 284.41 105.917 283.878 104.195 283.4C102.748 282.909 101.3 282.42 99.8557 281.92C95.6187 280.453 91.3967 278.867 87.4567 276.717C87.3477 276.647 87.2317 276.574 87.1257 276.506C86.5827 276.159 86.0397 275.83 85.4847 275.525C85.2097 274.98 84.8807 274.457 84.5247 273.957C83.6467 272.72 82.8007 271.45 81.8717 270.25C80.2827 268.198 78.6517 266.157 76.9237 264.22C73.6527 260.554 69.8227 257.365 65.2037 255.56C65.0737 255.509 64.9787 255.73 65.1077 255.787C69.7037 257.816 73.1177 261.574 75.9937 265.595C77.2817 267.396 78.4357 269.273 79.5987 271.152C77.1897 269.098 74.8547 266.948 72.2957 265.076C68.1177 262.019 63.3627 259.706 58.5717 257.784C52.9907 255.545 47.2747 254.335 41.3187 253.681C41.1237 253.66 41.0757 253.997 41.2717 254.026C51.9027 255.577 61.7697 260.299 70.1637 266.875C72.9057 269.023 75.4137 271.451 78.0547 273.715C76.6587 273.663 75.2537 273.678 73.8287 273.627C67.7137 273.408 61.7957 271.676 56.8597 267.988C56.7277 267.889 56.5557 268.111 56.6827 268.218C61.0787 271.9 66.4387 274.872 72.1327 275.896C75.2117 276.45 78.4257 276.181 81.4497 276.994C81.9347 277.124 82.4207 277.28 82.9057 277.432C82.9197 277.441 82.9327 277.451 82.9467 277.46C85.4907 279.124 88.2107 280.478 91.0057 281.663C89.0877 282.043 87.2017 282.654 85.4317 283.334C81.9197 284.682 78.5077 285.743 74.6977 285.431C70.8697 285.118 66.9527 283.758 63.4487 282.235C63.2777 282.161 63.1287 282.413 63.3007 282.487C66.6137 283.927 69.7637 285.586 73.2867 286.493C76.8577 287.412 80.3427 287.277 83.9427 286.599C87.4777 285.933 90.9067 284.793 94.5167 284.616C95.9947 284.543 97.4347 284.536 98.8607 284.613C101.53 285.552 104.207 286.488 106.901 287.371C106.202 287.462 105.51 287.57 104.83 287.687ZM107.614 352.899C101.441 342.652 95.8237 332.13 94.8117 319.992C94.2037 312.701 94.9717 305.248 96.4397 298.08C99.2127 301.288 102.706 303.708 105.892 306.505C107.811 308.189 109.604 310.042 110.844 312.293C112.219 314.789 112.926 317.543 113.467 320.32C114.648 326.387 115.075 332.498 114.886 338.676C114.695 344.938 113.712 351.179 114.322 357.448C114.392 358.162 114.483 358.872 114.581 359.58C113.572 357.147 112.634 354.684 111.779 352.194C108.714 343.265 106.599 334.045 103.571 325.1C103.496 324.879 103.145 324.972 103.219 325.197C107.193 337.368 108.595 350.411 113.224 362.365C111.413 359.148 109.482 356.001 107.614 352.899ZM131.058 366.946C133.97 361.278 137.719 356.011 142.083 351.371C150.78 342.126 161.972 334.625 174.047 330.607C181.176 328.235 188.66 327.005 196.151 327.995C191.872 340.034 185.064 352.817 172.492 357.579C169.362 358.765 166.104 359.551 162.852 360.32C159.391 361.139 155.959 362.035 152.529 362.971C146.519 364.612 140.299 366.285 134.902 369.503C137.256 366.719 139.742 364.037 142.338 361.484C148.634 355.295 155.588 349.785 163.116 345.17C167.319 342.593 171.679 340.252 176.215 338.318C176.373 338.25 176.258 337.972 176.097 338.037C159.296 344.887 143.597 354.885 131.626 368.676C130.5 369.973 129.404 371.326 128.425 372.752C129.222 370.76 130.1 368.812 131.058 366.946ZM199.478 274.993C199.477 274.997 199.476 275 199.475 275.004L199.474 275.003C199.475 275 199.478 274.997 199.478 274.993ZM198.283 269.711C198.467 267.818 199.013 265.97 199.792 264.24C201.376 260.724 204.066 257.631 207.395 255.685C207.479 255.636 207.417 255.487 207.323 255.526C203.358 257.18 200.124 260.168 198.222 264.027C197.344 265.808 196.77 267.728 196.503 269.694C196.473 269.052 196.465 268.402 196.501 267.732C196.687 264.266 198.117 260.817 200.253 258.103C205.273 251.723 213.342 249.187 221.107 248.219C223.803 247.883 226.531 247.64 229.257 247.603C231.248 248.059 233.338 248.06 235.365 248.063C236.521 248.065 237.692 248.046 238.845 247.94C239.656 247.865 240.513 247.74 241.12 247.151C241.273 247.002 241.06 246.733 240.882 246.859C240.089 247.416 238.986 247.16 238.078 247.139C237.847 247.134 237.616 247.127 237.385 247.121C237.537 247.106 237.688 247.108 237.841 247.082C238.723 246.932 239.573 246.693 240.411 246.378C241.624 245.922 242.777 245.312 243.701 244.426C243.609 245.333 243.012 246.159 242.208 246.654C242.182 246.67 242.168 246.692 242.146 246.711C241.488 247.1 240.854 247.559 240.205 247.895C238.828 248.608 237.387 249.18 235.898 249.615C232.576 250.587 229.103 250.912 225.662 251.136C225.615 251.139 225.617 251.208 225.664 251.209C229.312 251.275 232.971 251.44 236.581 250.784C238.145 250.499 239.688 250.063 241.131 249.387C242.205 248.884 243.401 248.298 244.091 247.32C244.852 247.15 245.617 247.037 246.391 246.973C245.712 247.577 245.107 248.254 244.612 249.05C244.545 249.158 244.54 249.261 244.562 249.357C243.496 249.877 242.513 250.544 241.529 251.214C238.952 252.967 236.64 255.053 234.126 256.886C233.93 257.029 234.124 257.35 234.327 257.209C236.688 255.572 239.283 254.358 241.807 252.997C243.019 252.343 244.222 251.669 245.491 251.13C245.812 250.994 246.137 250.865 246.46 250.734C246.165 250.978 245.875 251.229 245.602 251.501C245.203 251.898 245.655 252.465 246.135 252.364C246.625 252.261 247.112 252.148 247.601 252.04C246.078 253.2 244.622 254.456 243.316 255.85C242.521 256.699 241.677 257.685 240.98 258.754C241.324 256.606 241.761 254.478 243.392 252.935C243.518 252.816 243.328 252.649 243.201 252.754C240.843 254.702 239.828 257.705 239.353 260.628C239.087 262.266 238.84 263.836 238.139 265.357C237.48 266.789 236.505 268.026 235.792 269.421C235.749 269.505 235.843 269.597 235.925 269.548C236.006 269.5 236.075 269.433 236.153 269.381C235.664 270.157 235.139 270.912 234.543 271.626C232.115 274.539 229 276.76 225.57 278.346C222.073 279.963 218.248 280.952 214.418 281.326C210.227 281.735 205.712 281.476 201.935 279.436C200.822 278.835 199.817 278.031 198.935 277.107C199.829 277.58 200.833 277.913 201.797 278.164C204.891 278.971 208.142 279.217 211.323 278.93C217.669 278.359 223.808 275.373 228.994 271.811C229.079 271.753 228.998 271.619 228.909 271.674C223.856 274.844 218.206 276.773 212.252 277.207C207.923 277.522 203.302 277.169 199.517 275.029C199.567 274.903 199.594 274.777 199.622 274.642C199.685 274.335 199.778 274.009 199.867 273.707C200.07 273.021 200.416 272.356 200.719 271.71C201.352 270.362 202.167 269.112 203.142 267.986C203.316 267.785 203.063 267.42 202.831 267.603C201.394 268.739 200.043 270.119 199.095 271.697C198.861 272.086 198.65 272.491 198.453 272.9C198.45 272.906 198.446 272.911 198.444 272.917C198.239 271.896 198.172 270.86 198.283 269.711ZM168.682 257.985C167.655 254.611 166.827 251.219 166.072 247.776C165.216 243.873 163.906 240.098 162.971 236.219C162.069 232.48 161.71 228.599 161.141 224.799C160.561 220.927 160.428 216.988 160.67 213.081C160.942 208.697 161.674 204.334 162.757 200.079C163.633 196.635 164.623 193.22 165.256 189.726C166.171 192.111 166.714 194.63 167.541 197.05C168.699 200.442 170.051 203.777 171.319 207.129C172.565 210.421 173.818 213.711 175.05 217.009C176.283 220.309 177.414 223.662 177.829 227.177C178.652 234.153 178.19 241.335 177.815 248.328C177.522 253.781 177.105 259.227 176.785 264.678C175.894 257.627 174.611 250.631 173.136 243.68C172.137 238.974 170.964 234.305 169.745 229.652C169.683 229.415 169.319 229.515 169.378 229.753C173.426 245.957 174.666 262.569 175.052 279.217C175.054 279.319 175.054 279.42 175.056 279.522C173.578 272.209 170.817 265.003 168.682 257.985Z" fill="#2D7DDA"/>
</svg>
