<svg width="1134" height="1134" viewBox="0 0 1134 1134" fill="none" xmlns="http://www.w3.org/2000/svg">
<path d="M90.598 365.31C122.787 411.845 168.125 447.892 217.084 475.464C266.689 503.082 320.989 522.753 377.237 531.092L377.253 530.983C321.02 522.644 266.731 502.979 217.137 475.367C168.187 447.799 122.865 411.762 90.686 365.246C91.758 364.486 92.204 363.367 90.518 360.751C88.793 358.106 85.427 354.919 84.289 355.615C83.159 356.306 84.736 360.716 86.507 363.423C88.232 366.1 89.521 366.032 90.598 365.31Z" fill="#2D7DDA"/>
<path d="M799.188 903.12L799.262 903.119C799.284 897.277 798.723 891.589 797.675 886.123C798.815 892.777 799.161 898.783 799.188 903.12Z" fill="#2D7DDA"/>
<path d="M784.359 851.059C789.938 858.835 794.515 868.082 797.461 878.406C795.185 869.047 791.208 859.166 784.359 851.059Z" fill="#2D7DDA"/>
<path d="M777.499 844.401C773.477 841.216 768.774 838.552 763.239 836.668C752.067 832.859 740.385 833.637 730.339 838.85C720.864 843.771 713.993 852.122 710.991 862.392C705.857 879.893 716.327 899.125 734.323 905.253C741.558 907.718 749.121 907.21 755.624 903.832C761.766 900.646 766.224 895.23 768.171 888.58C771.499 877.216 764.708 864.739 753.034 860.754C748.324 859.159 743.386 859.483 739.151 861.685C735.147 863.767 732.234 867.3 730.967 871.64C728.791 879.07 733.225 887.242 740.855 889.833C743.95 890.892 747.197 890.675 749.983 889.222C752.629 887.85 754.546 885.523 755.382 882.664C756.824 877.738 753.896 872.349 748.847 870.631C746.789 869.918 744.624 870.065 742.765 871.03C741.314 871.782 740.219 872.977 739.558 874.431C739.422 874.672 739.322 874.913 739.252 875.172C739.222 875.261 739.181 875.336 739.154 875.429L739.198 875.444C738.969 876.668 739.386 877.983 740.425 878.822C741.926 880.047 744.139 879.81 745.36 878.31C746.571 876.799 746.347 874.598 744.839 873.375C744.412 873.025 743.924 872.81 743.412 872.693C743.471 872.666 743.514 872.618 743.561 872.595C745.006 871.844 746.674 871.736 748.287 872.289C752.447 873.701 754.876 878.138 753.701 882.163C752.999 884.564 751.391 886.513 749.179 887.672C746.817 888.887 744.066 889.072 741.417 888.172C734.673 885.875 730.729 878.68 732.651 872.127C733.783 868.251 736.385 865.102 739.961 863.243C743.775 861.261 748.218 860.965 752.472 862.41C763.265 866.097 769.563 877.615 766.488 888.084C764.675 894.268 760.532 899.313 754.821 902.278C748.747 905.433 741.662 905.898 734.882 903.597C717.772 897.758 707.799 879.5 712.674 862.874C715.546 853.079 722.096 845.1 731.144 840.407C740.758 835.417 751.96 834.675 762.685 838.325C773.1 841.873 780.574 848.269 785.94 855.824C784.219 853.024 782.383 850.38 780.454 847.925C779.494 846.703 778.507 845.53 777.499 844.401Z" fill="#2D7DDA"/>
<path d="M873.278 384.523C873.262 384.544 873.244 384.548 873.227 384.562C873.247 384.579 873.265 384.574 873.278 384.523Z" fill="#2D7DDA"/>
<path d="M652.65 281.136C652.646 281.15 652.634 281.153 652.629 281.165C652.646 281.172 652.654 281.164 652.65 281.136Z" fill="#2D7DDA"/>
<path d="M1063.6 742.648C1078.03 720.397 1060.34 720.162 1060.34 720.162C1060.34 720.162 1067.17 722.516 1057.5 730.313C1047.82 738.076 1016.63 705.331 963.218 736.304C915.842 763.728 914.353 800.455 914.353 800.455C909.878 799.349 905.725 758.697 905.725 758.697C901.581 765.936 899.25 773.051 898.242 780.093C893.895 769.478 888.608 759.911 882.114 751.44C875.104 742.3 869.298 733.729 864.481 725.726C858.914 704.596 858.309 678.478 877.171 657.58C887.231 646.444 900.673 640.081 915.017 639.66C928.508 639.258 941.244 644.272 950.88 653.758C967.234 669.86 967.47 697.419 951.425 715.201C945.063 722.239 936.565 726.27 927.499 726.525C918.979 726.779 910.932 723.612 904.847 717.628C894.54 707.487 894.401 690.097 904.519 678.875C908.514 674.462 913.845 671.937 919.534 671.768C924.872 671.618 929.916 673.59 933.723 677.344C940.169 683.683 940.243 694.557 933.923 701.56C931.436 704.312 928.132 705.871 924.612 705.986C921.308 706.076 918.188 704.851 915.829 702.533C911.871 698.625 911.824 691.928 915.728 687.608C917.238 685.93 919.242 684.979 921.39 684.919C921.466 684.913 921.542 684.937 921.628 684.933C921.113 685.396 920.686 685.966 920.415 686.643C919.462 689.031 920.618 691.728 922.999 692.687C925.38 693.64 928.087 692.485 929.039 690.1C929.698 688.462 929.334 686.672 928.278 685.402L928.321 685.355C928.233 685.269 928.135 685.207 928.042 685.123C927.796 684.866 927.521 684.652 927.213 684.458C925.509 683.205 923.473 682.53 921.31 682.595C918.533 682.675 915.934 683.902 914.007 686.051C909.276 691.294 909.361 699.42 914.204 704.192C917.014 706.961 920.736 708.419 924.681 708.301C928.842 708.184 932.738 706.341 935.639 703.121C942.796 695.207 942.662 682.889 935.351 675.691C931.09 671.484 925.447 669.278 919.464 669.447C913.141 669.627 907.221 672.435 902.8 677.322C891.858 689.456 892.037 708.271 903.218 719.282C909.76 725.719 918.408 729.118 927.569 728.852C937.276 728.568 946.356 724.276 953.139 716.757C970.017 698.063 969.737 669.059 952.512 652.11C942.419 642.164 929.083 636.927 914.942 637.339C899.959 637.778 885.935 644.413 875.457 656.019C857.662 675.732 856.77 699.68 861.202 720.103C833.899 671.608 844.13 645.829 844.13 645.829C820.077 686.924 857.933 738.527 857.933 738.527C857.933 738.527 783.996 678.421 811.305 607.963C849.073 510.483 931.174 550.979 931.174 550.979C898.474 519.918 853.166 543.134 853.166 543.134C945.917 484.033 1002.75 589.862 1002.75 589.862C965.913 497.382 888.196 517.583 888.196 517.583C906.949 505.327 930.16 503.097 930.16 503.097C852.51 486.977 787.768 582.087 797.715 650.231C807.672 718.333 858.863 752.155 858.863 752.155C856.262 751.684 853.496 750.73 850.628 749.408C830.72 729.942 807.637 708.03 781.395 685.113C775.439 679.971 769.292 674.771 762.956 669.558C753.303 657.55 738.211 637.779 721.641 611.618C693.716 568.444 658.998 497.764 682.747 427.871C687.314 413.047 693.978 398.995 702.166 386.074C730.834 378.202 750.229 388.731 750.397 389.336C756.437 392.037 768.967 400.191 777.338 416.204C786.401 431.088 788.938 455.062 772.63 467.294C758.271 480.007 734.297 474.963 728.018 463.455C721.38 451.679 727.592 441.151 725.458 440.825C725.394 439.912 715.269 449.358 722.095 466.714C729.742 483.281 759.059 490.957 778.895 474.883C800.514 459.392 797.207 427.275 786.758 411.105C777.326 392.924 762.504 383.087 755.116 379.787C754.973 379.043 736.676 369.865 710.587 373.893C740.167 334.464 783.85 308.165 822.141 307.273C878.367 308.045 898.265 350.987 898.293 350.188C903.266 357.905 911.79 379.735 899.456 402.294C889.23 425.287 849.542 433.11 829.31 412.556C819.622 402.781 815.27 387.227 821.773 376.16C827.682 364.97 840.591 360.103 850.025 362.681C869.221 369.054 872.083 385.488 873.229 384.564C872.799 384.203 870.652 367.945 850.575 360.498C840.308 357.394 825.887 362.475 819.228 374.776C811.848 387.116 816.592 404.306 826.976 414.879C848.98 437.233 891.064 429.077 902.605 403.971C915.784 379.987 906.589 356.449 901.416 348.438C901.261 349.174 880.745 304.749 822.224 304.003C781.723 305.156 736.518 333.093 706.672 374.591C699.424 376.045 691.654 378.524 683.546 382.489C663.984 390.584 645.531 411.457 638.982 436.677C632.147 461.794 634.377 490.58 643.658 515.818C661.751 566.498 692.91 607.726 719.899 636.546C709.833 629.426 699.374 622.475 688.524 615.81C648.22 578.928 601.133 528.61 565.116 468.407C552.866 445.823 542.634 421.096 535.775 396.319C535.232 394.162 534.7 392.002 534.183 389.839C533.241 373.151 537.7 359.235 543.963 349.567C545.299 347.486 546.779 345.425 548.474 343.62C550.305 341.65 552.751 339.508 555.545 339.209C559.397 338.812 563.509 339.669 563.938 344.185C561.162 340.605 557.9 345.146 559.041 348.289C559.859 350.525 562.392 352.31 564.839 352.018C568.201 351.604 570.241 347.855 569.825 344.709C569.071 339.322 563.132 337.373 558.472 337.098C556.574 336.981 553.313 337.71 551.676 338.693C552.094 337.247 554.037 336.426 555.216 335.615C557.829 333.75 560.924 332.752 564.077 332.209C566.736 331.76 569.387 332.12 572.072 331.991C575.733 331.745 578.768 331.487 582.375 332.273C586.124 333.093 589.392 335.331 592.419 337.572C592.084 336.013 592.501 334.168 592.355 332.549C591.862 327.27 588.534 320.295 583.496 318.021C581.203 317.012 578.375 317.157 575.954 316.71C576.363 316.769 577.555 316.094 578.043 315.986C578.908 315.811 579.8 315.769 580.682 315.833C582.358 315.96 583.988 316.541 585.437 317.382C588.907 319.341 591.085 322.897 593.242 326.135C595.938 330.25 602.522 332.367 607.097 330.573C605.781 331.093 602.171 323.451 602.698 322.063C602.189 323.386 607.478 327.413 608.698 328.109C611.791 329.95 616.944 330.078 618.117 334.253C619.523 330.708 619.186 322.61 615.081 317.451C612.877 314.649 611.258 312.289 608.161 310.418C609.207 311.05 610.417 311.19 611.482 312.035C612.257 312.644 612.982 313.294 613.76 313.885C619.981 318.546 623.448 328.791 624.603 337.959C625.492 344.904 622.831 355.954 619.173 361.87C615.388 368.003 606.749 373.451 599.366 373.192C598.126 373.143 597.269 372.248 595.858 372.452C598.732 372.193 601.126 370.532 602.025 367.725C603.988 361.495 598.934 354.458 592.126 356.097C587.138 357.283 584.691 363.177 586.739 367.742C588.071 370.661 590.888 373.069 593.922 374.062C598.318 375.496 602.957 375.33 607.189 373.429C630.928 362.801 631.937 328.057 614.634 312.266C607.319 305.593 597.7 300.721 587.758 300.534C575.76 300.296 564.803 306.225 556.523 314.604C553.42 317.709 550.657 321.178 548.184 324.8C535.696 343.116 531.413 361.147 531.295 377.11C530.749 374.563 530.226 372.012 529.714 369.458C523.261 332.035 525.806 296.253 542.192 269.525C575.351 220.411 623.358 221.572 623.314 221.432C633.381 221.202 657.018 221.136 679.063 236.646C701.131 249.928 716.245 288.375 696.288 312.685C686.579 323.677 670.618 329.236 657.96 325.491C645.238 321.365 635.812 310.712 633.657 300.657C631.798 290.395 638.112 281.656 643.583 279.992C649.243 278.485 652.317 281.769 652.633 281.166C652.36 281.064 649.606 277.495 643.177 278.642C636.74 280.346 629.576 289.412 631.291 301.074C633.527 312.394 643.206 323.652 657.035 328.414C671.289 332.744 688.182 326.844 698.955 314.977C717.268 292.616 708.834 260.638 692.002 242.468C693.751 244.056 695.217 245.628 696.247 247.136C704.222 258.821 710.528 275.552 731.101 277.355C731.101 277.355 727.657 271.202 728.351 269.391C728.351 269.391 741.384 277.688 762.214 267.915C785.716 256.91 781.896 238.286 786.894 236.81C791.906 235.342 791.08 238.267 791.08 238.267C791.08 238.267 795.246 232.106 784.107 231.747C784.107 231.747 784.023 203.428 755.089 196.377C755.089 196.377 754.087 198.811 757.87 200.659C757.87 200.659 722.719 199.952 722.042 224.579C722.042 224.579 726.354 216.534 733.574 217.703C740.806 218.883 741.477 221.551 752.207 220.715C752.207 220.715 740.933 222.254 744.581 233.584C744.581 233.584 754.62 226.18 760.482 237.811C766.321 249.432 758.991 259.329 750.158 262.634C750.158 262.634 752.26 261.125 750.34 257.85C750.34 257.85 737.901 268.177 725.128 261.577C725.128 261.577 745.625 264.72 747.98 249.476C747.98 249.476 745.799 251.54 741.012 252.143C741.012 252.143 741.641 251.661 741.372 248.615C741.372 248.615 729.023 252.357 723.066 245.754C717.105 239.16 702.421 230.834 690.413 229.479C690.413 229.479 693.527 227.878 695.373 224.869C695.373 224.869 687.475 226.185 679.399 226.367C675.939 226.425 657.484 221.746 657.729 221.825C658.005 221.911 658.585 222.151 659.386 222.508C644.016 217.356 630.324 217.48 623.163 217.613C623.14 217.842 573.527 216.655 539.295 267.56C528.504 285.405 523.598 306.752 523.2 329.725C519.838 303.622 518.204 277.289 518.204 250.991C518.204 249.203 518.212 247.418 518.227 245.631C519.141 176.938 531.263 107.176 562.344 45.3869C563.789 46.0969 565.253 45.9239 567.078 42.5739C568.907 39.1759 570.352 33.6939 568.94 32.8789C567.537 32.0729 563.726 36.3479 561.857 39.8349C559.991 43.2639 560.832 44.6059 562.245 45.3379C531.153 107.148 519.029 176.925 518.116 245.632C518.101 247.42 518.094 249.205 518.094 250.992C518.094 277.541 519.759 304.127 523.186 330.477C522.998 344.987 524.601 360.136 527.652 375.454C511.092 323.575 486.74 274.212 456.699 228.827C418.494 171.716 370.306 119.815 310.554 84.9319C311.337 83.5489 311.31 81.9629 307.879 80.1069C304.41 78.202 298.887 76.694 298.148 78.1339C297.409 79.5879 301.608 83.3969 304.993 85.2489C308.348 87.0629 309.671 86.4089 310.497 85.0279C370.229 119.899 418.407 171.788 456.606 228.886C486.829 274.55 511.292 324.24 527.853 376.467C529.758 385.841 532.2 395.274 535.106 404.659C535.912 407.517 536.798 410.214 537.721 412.722C537.977 413.48 538.235 414.238 538.497 414.994C538.805 416.297 539.116 417.598 539.413 418.903L539.522 418.879C539.302 417.912 539.069 416.948 538.843 415.981C540.26 420.029 541.754 424.06 543.325 428.065C540.152 422.982 536.281 417.441 531.598 411.702C507.984 382.73 465.978 348.473 404.431 340.936L404.435 340.778C403.755 340.755 403.045 340.725 402.316 340.692C398.228 340.235 394.06 339.89 389.801 339.678C360.764 336.317 315.913 323.971 302.411 280.404C297.078 263.094 298.771 245.214 307.154 230.058C315.083 215.801 328.12 205.646 343.939 201.521C370.728 194.459 399.479 211.215 408.068 238.842C411.433 249.799 410.394 261.087 405.072 270.671C400.05 279.662 391.824 286.063 381.844 288.695C364.964 293.144 346.83 282.57 341.429 265.139C339.318 258.265 339.957 251.163 343.292 245.169C346.403 239.53 351.59 235.527 357.809 233.868C368.393 231.097 379.708 237.722 383.077 248.625C384.418 252.886 384.02 257.271 381.959 260.977C379.989 264.498 376.849 266.976 372.956 267.972C366.455 269.694 359.446 265.611 357.419 258.889C356.574 256.277 356.847 253.607 358.106 251.362C358.139 251.272 358.205 251.223 358.259 251.107C358.412 251.928 358.73 252.715 359.26 253.409C361.161 255.898 364.681 256.349 367.158 254.465C369.591 252.587 370.063 249.042 368.197 246.595C366.882 244.895 364.815 244.189 362.865 244.49L362.825 244.442C362.694 244.465 362.53 244.537 362.421 244.573C362 244.674 361.59 244.821 361.209 245.025C358.874 246.028 356.894 247.695 355.631 249.972C353.996 252.931 353.677 256.393 354.703 259.713C357.207 267.852 365.73 272.767 373.673 270.681C378.281 269.474 382.103 266.526 384.393 262.35C386.844 257.946 387.318 252.77 385.78 247.787C381.981 235.457 369.128 227.992 357.121 231.157C350.123 233.006 344.335 237.499 340.844 243.821C337.137 250.489 336.373 258.347 338.74 265.983C344.569 284.821 364.22 296.223 382.574 291.415C393.297 288.586 402.147 281.713 407.516 272.03C413.193 261.764 414.334 249.683 410.739 237.998C401.743 208.963 371.449 191.363 343.204 198.795C326.652 203.159 312.982 213.759 304.718 228.696C295.937 244.513 294.179 263.172 299.777 281.226C311.196 318.1 344.105 333.331 371.977 339.545C370.489 339.595 368.994 339.655 367.486 339.735C358.624 340.206 349.74 341.352 341.077 343.443C317.905 348.983 296.162 361.751 283.969 382.72C273.855 400.181 272.187 421.856 276.06 441.544C285.238 488.081 346.41 522.793 389.706 492.867C397.437 487.507 402.591 479.671 404.725 470.55C406.194 464.275 404.979 456.826 401.303 451.47C395.615 443.186 382.839 441.215 375.55 448.557C365.56 458.642 372.44 474.806 385.255 477.907C391.058 479.319 396.443 476.934 399.933 472.199C398.1 474.468 398.723 476.862 397.514 479.045C390.199 492.079 371.732 501.348 357.154 501.475C343.053 501.589 321.15 494.554 310.071 485.75C295.397 474.137 281.334 457.407 279.787 441.737C279.592 439.772 279.21 437.806 278.966 435.836C278.642 433.128 279.669 430.905 279.643 428.411C279.646 435.684 282.067 440.977 284.581 447.765C289.239 460.288 302.836 469.338 310.449 470.652C304.454 464.26 309.673 455.188 309.74 447.917C309.773 445.051 308.392 431.697 305.529 431.17C308.475 431.722 317.928 445.995 315.654 447.753C323.554 441.695 326.809 428.047 322.545 419.05C319.14 411.962 315.318 404.458 315.545 396.415C315.642 392.998 316.337 389.576 317.904 386.523C318.684 384.943 319.694 383.45 320.914 382.142C321.594 381.402 324.007 380.093 324.322 379.267C322.579 383.923 319.375 388.68 318.728 393.688C317.315 404.808 325.94 417.905 334.567 424.28C337.215 426.231 340.803 427.495 343.177 429.685C342.479 422.087 341.996 414.05 344.53 406.713C346.937 399.658 350.591 394.695 354.829 388.57C357.912 384.118 360.042 379.135 363.623 375.021C367.867 370.128 372.866 365.823 378.842 363.2C381.446 362.083 384.905 359.538 387.855 360.324C384.444 362.107 379.763 366.994 377.947 370.427C373.557 378.778 370.688 391.098 379.216 398.041C384.221 402.053 392.842 402.513 397.094 397.091C400.166 393.196 399.766 386.903 396.706 383.108C392.466 377.857 381.203 378.753 384.5 387.304C377.124 381.846 379.966 373.801 384.7 367.575C388.152 363.07 394.426 361.079 399.718 359.973C404.668 358.941 409.746 358.537 414.752 358.393C454.366 357.258 509.83 377.965 549.91 443.73C549.956 443.833 550.001 443.937 550.047 444.039C550.765 446.07 551.496 448.098 552.24 450.12L552.345 450.081C551.76 448.49 551.189 446.895 550.619 445.299C554.379 453.585 558.429 461.699 562.714 469.554C597.525 527.167 642.292 575.497 681.61 611.636C658.074 597.671 632.738 585.15 605.524 575.312C589.271 569.135 572.308 564.309 554.962 560.85C491.649 543.005 426.092 533.042 360.409 530.235C349.517 529.822 338.598 529.608 327.667 529.608C240.959 529.608 153.501 543.082 73.852 578.175C72.919 576.114 71.086 574.81 66.086 577.209C61.014 579.602 54.69 584.682 55.731 586.73C56.778 588.786 64.641 587.137 69.579 584.796C74.465 582.448 74.806 580.382 73.896 578.275C153.527 543.192 240.97 529.72 327.667 529.72C338.596 529.72 349.515 529.934 360.404 530.347C425.627 533.132 490.727 542.975 553.625 560.586C496.374 549.417 434.999 553.313 380.863 574.268C358.92 582.754 337.812 594.519 319.259 609.443C298.53 620.616 279.227 619.752 266.378 614.554C264.408 613.767 262.43 612.852 260.631 611.718C258.671 610.49 256.467 608.778 255.759 606.473C254.799 603.288 254.852 599.68 258.59 598.582C256.022 601.507 260.384 603.519 262.847 602.048C264.602 600.993 265.695 598.567 265.051 596.55C264.153 593.781 260.662 592.67 258.074 593.532C253.655 595.044 252.977 600.372 253.503 604.344C253.713 605.967 254.857 608.599 255.952 609.818C254.666 609.702 253.658 608.195 252.781 607.332C250.784 605.434 249.439 602.984 248.468 600.414C247.655 598.245 247.529 595.951 246.985 593.707C246.182 590.658 245.469 588.142 245.547 584.973C245.628 581.678 246.985 578.559 248.382 575.639C247.122 576.174 245.498 576.123 244.157 576.511C239.784 577.784 234.442 581.726 233.344 586.348C232.865 588.445 233.448 590.804 233.464 592.921C233.447 592.563 232.687 591.67 232.514 591.273C232.226 590.573 232.046 589.827 231.956 589.076C231.791 587.641 232.014 586.171 232.49 584.811C233.576 581.569 236.223 579.153 238.604 576.806C241.633 573.863 242.348 567.965 240.09 564.398C240.745 565.425 234.886 569.711 233.63 569.495C234.827 569.708 237.365 564.592 237.753 563.451C238.804 560.543 238.073 556.178 241.403 554.508C238.184 553.899 231.409 555.502 227.726 559.8C225.722 562.115 223.994 563.864 222.919 566.779C223.283 565.795 223.204 564.751 223.744 563.717C224.132 562.963 224.562 562.247 224.933 561.494C227.853 555.49 235.931 550.899 243.473 548.434C249.185 546.557 258.938 547.004 264.52 549.125C270.31 551.321 276.309 557.719 277.291 563.987C277.451 565.042 276.834 565.91 277.239 567.067C276.553 564.686 274.763 562.935 272.249 562.634C266.677 561.991 261.561 567.398 264.053 572.873C265.863 576.888 271.232 577.992 274.749 575.522C276.995 573.924 278.568 571.157 278.91 568.436C279.405 564.496 278.511 560.609 276.219 557.351C263.397 539.055 233.929 543.858 223.425 561.017C218.987 568.272 216.441 577.175 217.902 585.591C219.652 595.749 226.434 604.026 234.847 609.646C237.971 611.759 241.346 613.524 244.802 615.022C274.385 627.807 299.453 620.901 315.911 612.224C305.924 620.609 296.717 629.916 288.613 640.178C264.549 670.115 251.467 707.549 248.821 744.184C244.225 780.445 254.356 819.313 279.373 843.612C303.242 868.895 337.33 879.699 367.408 877.236C398.669 873.98 420 847.013 421.627 822.37C423.221 810.092 418.987 797.586 410.653 790.523C402.439 783.326 391.883 780.829 383.02 782.49C373.91 784.797 369.135 793.389 369.196 800.278C368.887 807.791 376.285 812.021 380.907 810.691C384.146 809.884 385.369 806.966 385.094 804.772C385.418 807.808 381.815 812.201 376.69 810.213C370.099 808.902 367.375 799.224 372.104 791.914C376.101 783.838 387.269 780.87 397.382 784.522C407.67 787.368 416.971 796.875 419.407 809.118C421.191 821.381 418.33 835.431 410.732 847.201C403.188 858.998 390.788 868.575 376.082 872.327C361.41 875.88 344.961 873.984 329.579 869.547C298.611 860.236 271.204 835.166 260.188 803.111C249.133 771.178 254.382 735.009 263.257 703.783C282.463 638.965 338.106 599.915 381.135 583.988C383.13 583.184 385.189 582.403 387.278 581.634C384.597 583.679 382.036 586.025 379.616 588.75C379.616 588.75 393.025 590.704 395.1 593.813C395.1 593.813 367.802 603.783 360.058 646.203C351.362 694.013 384.642 709.752 381.429 718.935C378.201 728.107 374.555 723.516 374.555 723.516C374.555 723.516 379.599 736.852 392.39 720.571C392.39 720.571 436.717 753.06 479.63 717.867C479.63 717.867 476.876 713.549 469.863 717.091C469.863 717.091 509.697 665.309 471.979 635.953C471.979 635.953 479.785 651.654 470.005 661.129C460.186 670.588 455.31 668.511 444.773 685.529C444.773 685.529 454.798 666.876 433.097 659.308C433.097 659.308 433.567 682.844 408.988 678.249C384.389 673.619 377.053 651.247 381.579 634.228C381.579 634.228 381.643 639.106 388.864 640.019C388.864 640.019 386.44 609.487 410.871 597.984C410.871 597.984 383.335 625.041 404.536 646.102C404.536 646.102 403.709 640.477 408.035 632.616C408.035 632.616 408.112 634.131 413.155 637.201C410.64 635.664 430.519 609.968 433.711 607.415C453.011 591.827 474.06 581.015 497.47 573.15C505.153 570.591 511.34 567.437 518.875 566.077C531.698 567.314 544.735 569.361 557.842 572.363C582.279 577.931 606.466 586.57 629.928 597.343C606.387 591.371 578.281 591.444 554.996 612.251C541.66 624.18 533.916 640.293 533.201 657.62C532.539 673.964 538.297 689.498 549.447 701.349C568.452 721.573 601.411 722.408 622.88 703.204C631.519 695.472 636.53 685.05 636.992 673.824C637.433 663.233 633.699 653.168 626.476 645.478C614.134 632.355 592.742 631.8 578.824 644.256C573.183 649.291 569.924 656.095 569.613 663.412C569.34 670.325 571.774 676.892 576.491 681.905C584.562 690.503 598.539 690.856 607.643 682.718C611.339 679.405 613.487 674.941 613.687 670.117C613.877 665.562 612.272 661.234 609.165 657.918C603.83 652.244 594.588 652.003 588.561 657.383C586.101 659.577 584.665 662.568 584.526 665.781C584.429 668.258 585.18 670.631 586.572 672.636C586.778 673.007 587.023 673.31 587.301 673.605C587.41 673.725 587.466 673.837 587.564 673.943L587.622 673.884C589.049 675.126 591.072 675.591 592.949 674.855C595.676 673.778 597.027 670.671 595.965 667.906C594.923 665.131 591.865 663.745 589.144 664.809C588.365 665.118 587.722 665.6 587.188 666.18C587.185 666.09 587.164 665.995 587.17 665.899C587.274 663.421 588.388 661.125 590.318 659.396C595.282 654.964 602.88 655.129 607.255 659.793C609.868 662.551 611.21 666.181 611.057 670.001C610.887 674.066 609.053 677.875 605.902 680.694C597.845 687.897 585.505 687.602 578.39 680.05C574.175 675.579 572.003 669.706 572.264 663.533C572.525 656.948 575.47 650.818 580.561 646.294C593.45 634.768 613.184 635.231 624.579 647.337C631.296 654.485 634.757 663.845 634.359 673.708C633.923 684.195 629.231 693.946 621.144 701.18C600.706 719.448 569.4 718.695 551.344 699.492C540.699 688.185 535.196 673.356 535.838 657.738C536.539 641.16 543.956 625.713 556.756 614.282C585.946 588.176 623.234 595.922 648.547 606.406C683.202 624.239 715.918 646.371 745.038 669.725C772.503 691.591 797.598 713.921 820.075 734.628C821.233 735.927 822.366 737.162 823.475 738.335C803.728 727.869 783.136 721.74 763.996 719.12C716.979 713.121 670.931 723.132 628.023 756.468C607.36 773.231 589.173 798.178 580.754 828.305C572.07 858.192 573.297 892.857 586.451 923.645C599.18 954.791 624.265 981.336 654.701 992.291C684.775 1003.94 717.243 1001.32 741.685 990.317C766.514 979.673 783.574 961.35 791.412 944.694C799.703 928.058 800.518 914.213 801.016 907.687C801.362 897.277 800.032 887.43 797.457 878.404C794.512 868.08 789.935 858.834 784.355 851.057C780.391 845.532 775.925 840.744 771.178 836.845C753.667 822.352 733.98 819.205 719.719 820.187C707.748 821.097 698.867 824.33 692.834 827.334C700.772 823.485 713.096 819.635 730.618 820.749C745.263 821.95 763.501 828.704 777.494 844.399C778.502 845.528 779.489 846.701 780.449 847.924C782.379 850.379 784.215 853.024 785.935 855.823C791.303 864.556 795.513 874.861 797.67 886.12C798.718 891.586 799.279 897.274 799.257 903.116C799.233 909.423 798.531 915.906 797.013 922.478C795.596 928.732 792.172 941.565 781.824 955.975C771.452 970.132 752.995 984.78 728.334 992.052C703.952 999.43 673.276 998.358 646.272 984.527C618.922 971.236 598.081 944.507 587.743 914.677C577.377 885.167 577.748 852.911 586.954 825.365C594.874 800.958 609.298 780.414 625.994 765.386C606.338 785.73 588.567 819.351 583.585 842.949C576.439 876.9 583.423 911.633 607.169 937.595C623.635 955.556 638.485 970.328 663.139 974.306C694.344 979.331 729.296 956.534 734.548 932.57C726.61 952.338 709.398 963.067 692.481 967.485C652.035 978.095 625.322 949.73 619.728 943.063C641.244 954.514 647.606 958.447 669.995 953.902C658.674 954.651 642.489 952.802 635.532 944.804C637.359 946.929 648.639 947.876 651.46 947.523C671.113 945.135 682.207 931.945 682.36 926.554C671.057 940.124 654.4 945.235 636.144 939.92C614.505 933.652 603.355 919.334 594.766 902.187C584.824 882.373 585.718 858.423 590.606 837.32C588.125 847.952 589.912 860.122 592.63 870.562C595.66 882.32 601.41 893.413 609.043 902.809C616.643 912.105 630.415 922.959 642.915 923.046C640.811 923.041 608.932 916.496 595.49 860.181C585.828 819.84 615.661 783.72 636.468 756.938C676.15 728.216 718.27 718.985 762.611 723.983C783.854 726.651 807.232 733.731 829.325 746.659C833.388 749.037 837.395 751.621 841.327 754.395C843.41 756.347 845.468 758.276 847.497 760.178C826.419 746.481 801.451 735.412 779.3 737.394C753.647 739.729 716.149 752.972 709.783 781.621C720.911 770.111 736.768 758.746 751.494 752.505C747.497 757.921 742.4 761.079 743.958 768.349C742.906 763.345 765.501 752.609 769.254 751.303C800.752 740.439 831.09 754.858 856.223 773.33C837.135 761.088 806.54 760.971 790.893 778.535C801.318 766.832 830.611 769.02 843.128 774.171C833.22 770.393 815.667 774.81 805.792 778.107C793.723 782.124 782.677 788.895 773.386 797.537C789.536 782.471 827.691 775.133 848.612 781.059C863.79 785.356 878.541 793.848 888.268 806.059C890.486 808.848 892.828 811.662 895.225 814.502C903.961 829.56 910.798 845.882 915.663 862.774C915.87 863.649 915.974 864.123 915.974 864.123C915.959 863.972 915.943 863.823 915.928 863.673C918.337 872.171 920.244 880.809 921.644 889.5C909.308 862.201 885.88 832.467 855.333 832.703C872.087 842.796 889.966 858.559 901.436 874.379C893.892 871.106 888.734 865.904 880.505 869.752C886.174 867.127 905.153 891.083 907.737 895.194C915.411 907.473 919.219 920.457 920.282 933.663C919.076 948.503 917.426 963.113 915.856 975.101C913.155 985.228 909.494 995.193 905.358 1004.77C914.699 978.693 906.451 942.236 881.249 928.423C898.041 937.625 903.467 973.101 900.768 989.415C902.548 976.583 892.477 956.897 885.844 946.044C877.751 932.776 866.661 921.483 853.826 912.79C876.191 927.888 895.389 971.299 894.071 997.831C893.118 1017.08 887.053 1036.97 875.182 1051.9C862.798 1067.44 850.524 1086.17 836.16 1100.44C835.172 1101.17 834.7 1101.52 834.821 1101.54C834.705 1101.52 835.151 1101.19 836.086 1100.52C834.847 1101.75 833.598 1102.96 832.325 1104.11C843.117 1099.78 849.689 1090.83 857.458 1082.65C859.13 1081.05 860.876 1079.34 862.691 1077.51C876.952 1064.54 893.155 1044.54 902.524 1026.93C911.465 1010.03 920.75 988.313 926.183 966.11C928.553 960.682 930.649 956.305 931.942 954.509C943.259 938.978 956.55 925.338 956.55 925.338C948.167 924.855 940.814 928.769 940.814 928.769C954.464 903.463 958.139 863.48 953.354 842.874C948.539 822.271 972.62 803.226 972.62 803.226C967.032 798.565 965.24 799.124 965.24 799.124C972.911 790.602 979.903 789.148 979.903 789.148C946.931 773.052 925.242 817.362 925.242 817.362C929.685 783.446 966.755 773.159 966.755 773.159C962.963 764.96 957.162 767.019 957.162 767.019C975.615 754.25 1004.91 753.373 1019.67 780.55C1034.44 807.798 1006.34 817.362 1006.34 817.362C1023.52 839.871 1041.84 819.932 1041.84 819.932C1025.64 839.771 1029.94 844.684 1022.42 860.43C1014.9 876.125 993.338 873.619 993.338 873.619C1042.37 905.745 1088.72 836.103 1088.72 836.103C1087.18 846.012 1093.31 847.359 1093.31 847.359C1118.82 781.254 1063.6 742.648 1063.6 742.648ZM534.285 390.739C534.263 390.652 534.24 390.566 534.218 390.479C534.218 390.471 534.217 390.462 534.216 390.454C534.238 390.549 534.262 390.644 534.285 390.739ZM531.293 377.632C531.293 377.69 531.294 377.748 531.294 377.806C531.071 376.724 530.855 375.643 530.647 374.563C530.861 375.587 531.073 376.61 531.293 377.632ZM650.8 513.608C631.702 464.854 649.369 404.698 687.657 391.401C691.323 389.704 694.879 388.334 698.32 387.218C690.826 399.611 684.704 412.976 680.404 427.018C656.596 498.134 692.21 569.341 720.469 612.305C736.25 636.784 750.705 655.591 760.588 667.618C753.058 661.465 745.26 655.304 737.192 649.204C709.001 619.763 670.492 572.527 650.8 513.608Z" fill="#2D7DDA"/>
<path d="M475.731 505.054C475.573 505.057 475.531 505.095 475.531 505.095C475.531 505.095 475.584 505.116 475.731 505.054Z" fill="#2D7DDA"/>
<path d="M480.628 499.413C477.37 503.892 476.181 504.844 475.731 505.054C476.202 505.022 477.844 505.296 482.546 507.795C488.866 511.33 492.462 510.932 492.501 510.972C491.391 511.145 490.279 511.328 489.202 511.584C489.191 511.537 494.416 513.913 499.489 515.753C504.58 517.574 508.802 516.515 508.832 516.491L507.47 518.144C507.452 518.234 508.181 519.069 514.428 519.701C520.482 520.336 522.109 520.03 522.129 519.977L520.62 522.01C520.623 521.95 525.911 521.758 529.256 521.338C532.43 521 536.112 520.206 536.089 520.268L534.559 522.429C534.536 522.465 536.971 522.186 540.89 522.313C545.348 522.458 547.27 522.054 547.3 522.029C546.44 522.695 545.593 523.355 544.792 524.032C544.772 524.174 547.961 523.868 556.106 523.008C563.388 522.208 570.827 520.081 575.656 516.047C573.682 515.668 571.189 514.133 568.185 512.722C568.026 513.014 568.7 511.819 554.299 506.264C547.01 503.664 533.869 500.908 522.369 500.434C510.869 499.866 501.286 500.654 501.289 500.672C493.062 501.358 492.92 500.766 501.127 499.309C501.13 499.294 509.869 497.763 521.181 497.378C532.5 496.844 546.413 498.469 555.802 501.53C565.171 504.655 568.87 507.08 570.494 507.894C572.128 508.767 571.571 508.389 571.576 508.374C573.919 509.465 576.228 512.104 577.438 513.794C580.74 508.266 579.018 499.016 570.597 491.218C561.159 482.675 555.81 481.195 555.934 481.044C556.71 482.177 557.461 483.302 558.2 484.433C558.197 484.482 555.775 482.424 549.328 480.404C543.655 478.628 540.267 477.771 540.271 477.737L541.748 480.339C541.742 480.277 536.928 478.478 532.521 477.479C527.947 476.478 520.659 476.05 520.67 476.136L522.68 478.152C522.698 478.228 520.381 477.538 512.611 478.739C504.66 479.986 504.148 481.418 504.139 481.343L506.099 482.693C506.132 482.704 500.605 482.33 495.311 485.665C490.01 488.977 485.563 493.164 485.593 493.184C486.768 492.938 487.954 492.729 489.162 492.538C488.546 492.688 484.722 494.007 480.628 499.413Z" fill="#2D7DDA"/>
<path d="M667.342 699.483C667.342 699.483 667.383 699.48 667.455 699.399C667.357 699.447 667.342 699.483 667.342 699.483Z" fill="#2D7DDA"/>
<path d="M668.779 694.446C668.115 698.188 667.669 699.134 667.455 699.399C667.734 699.238 668.831 698.912 672.482 699.04C677.443 699.322 679.544 697.994 679.579 698.007C678.947 698.448 678.316 698.895 677.728 699.377C677.707 699.351 681.644 699.245 685.328 698.854C689.016 698.448 691.302 696.525 691.312 696.502L690.969 697.933C690.984 697.992 691.685 698.288 695.73 696.799C699.655 695.372 700.568 694.693 700.562 694.656L700.244 696.364C700.227 696.326 703.432 694.619 705.371 693.353C707.226 692.188 709.259 690.592 709.263 690.638L708.969 692.432C708.965 692.46 710.385 691.555 712.842 690.455C715.634 689.203 716.698 688.377 716.709 688.353C716.38 689.021 716.054 689.685 715.765 690.343C715.795 690.436 717.672 689.288 722.437 686.308C726.688 683.624 730.638 680.076 732.405 676.135C731.074 676.496 729.072 676.298 726.795 676.333C726.785 676.561 726.843 675.62 716.289 676.523C711.011 677.109 702.075 679.361 694.839 682.525C687.571 685.632 681.9 689 681.905 689.009C677.036 691.907 676.771 691.584 681.396 688.217C681.393 688.206 686.324 684.635 693.187 680.996C700.008 677.264 709.081 674.083 715.792 673.148C722.512 672.26 725.522 672.643 726.77 672.658C728.041 672.704 727.583 672.638 727.582 672.629C729.355 672.598 731.574 673.53 732.829 674.209C733.204 669.807 729.359 664.618 721.821 662.339C713.429 659.906 709.686 660.601 709.717 660.472C710.537 660.938 711.336 661.406 712.133 661.881C712.146 661.911 710.032 661.371 705.449 662.062C701.414 662.674 699.068 663.163 699.058 663.14L700.75 664.302C700.728 664.265 697.217 664.603 694.2 665.312C691.077 666.07 686.452 667.998 686.485 668.047L688.331 668.686C688.365 668.728 686.728 668.999 682.296 672.075C677.766 675.236 677.88 676.273 677.853 676.23L679.468 676.471C679.491 676.469 675.971 677.901 673.707 681.548C671.431 685.187 669.948 689.105 669.972 689.109C670.622 688.603 671.292 688.117 671.978 687.638C671.639 687.921 669.679 689.886 668.779 694.446Z" fill="#2D7DDA"/>
<path d="M613.652 410.716C613.346 410.945 612.269 411.402 608.059 411.98C602.917 412.783 600.635 414.886 600.306 415.251C600.873 414.505 601.449 413.779 602.041 413.076C602.035 413.047 597.589 414.533 593.423 416.916C589.244 419.285 587.49 423.159 587.493 423.131L587.293 421.316C587.34 421.35 586.184 421.176 582.453 426.099C578.818 430.92 578.441 432.736 578.398 432.698L577.764 430.603C577.712 430.566 575.352 435.651 574.366 439.107C573.439 442.449 572.907 446.36 572.948 446.388L571.724 444.444C571.747 444.455 571.097 447.057 570.235 451.538C569.261 456.633 569.772 459.02 569.738 459.004C569.243 458.093 568.756 457.177 568.269 456.241C568.417 456.21 567.471 460.367 569.822 469.853C572.039 478.383 577.668 482.909 582.608 482.684C581.902 481.251 580.955 478.729 581.069 476.749C581.078 476.75 581.136 477.266 581.136 475.84C581.177 474.449 580.88 471.066 582.175 463.593C583.515 456.13 587.471 446.132 591.942 438.666C596.317 431.158 600.525 425.804 600.538 425.808C604.507 420.785 604.857 421.097 601.399 426.411C601.39 426.402 597.374 432.599 593.581 440.582C589.721 448.533 586.81 458.423 585.918 464.298C584.444 476.055 585.498 476.033 585.245 476.038C585.107 478.581 585.236 480.823 584.78 482.297C589.261 480.496 593.401 476.239 596.59 471.605C600.13 466.408 601.498 464.36 601.393 464.324C600.643 464.619 599.886 464.951 599.127 465.291C599.153 465.28 600.125 464.126 601.646 461.059C602.984 458.363 604.061 456.815 604.025 456.82L602.01 457.069C601.956 457.063 603.831 454.859 605.214 452.838C606.715 450.726 608.766 447.218 608.807 447.24L606.886 447.521C606.927 447.526 607.727 446.536 609.495 442.212C611.34 437.758 611.038 436.961 610.97 436.94L609.358 437.261C609.384 437.249 611.635 434.777 612.256 430.675C612.853 426.573 613.144 422.176 613.171 422.2C612.608 422.838 612.079 423.521 611.558 424.211C611.543 424.168 613.121 421.88 613.027 416.32C613.05 412.233 613.459 411.023 613.652 410.716Z" fill="#2D7DDA"/>
<path d="M613.652 410.716C613.747 410.641 613.754 410.595 613.754 410.595C613.754 410.595 613.713 410.61 613.652 410.716Z" fill="#2D7DDA"/>
<path d="M383.224 802.242C382.819 802.138 382.474 802.105 382.171 802.117C382.71 802.127 383.373 802.352 384.181 802.951C384.614 803.319 384.886 803.801 385.019 804.341C384.777 803.281 384.161 802.454 383.224 802.242Z" fill="#2D7DDA"/>
<path d="M380.246 803.869C380.246 804.071 380.278 803.115 380.987 802.533C380.282 803.117 380.093 804.082 380.246 803.869Z" fill="#2D7DDA"/>
<path d="M385.095 804.771C385.079 804.624 385.053 804.48 385.019 804.34C385.051 804.48 385.076 804.624 385.095 804.771Z" fill="#2D7DDA"/>
<path d="M381.021 802.505C381.295 802.291 381.669 802.139 382.171 802.117C381.692 802.109 381.314 802.273 381.021 802.505Z" fill="#2D7DDA"/>
<path d="M358.481 821.383C359.47 824.8 363.049 826.754 366.455 825.775C369.873 824.768 371.834 821.202 370.83 817.789C369.845 814.388 366.272 812.422 362.855 813.411C359.442 814.415 357.492 817.977 358.481 821.383Z" fill="#2D7DDA"/>
<path d="M387.038 820.454C388.321 820.095 389.039 817.905 387.188 816.341C385.39 814.981 383.786 815.796 383.232 817.077C382.652 818.405 383.361 819.96 383.839 820.37C384.299 820.648 385.596 820.948 387.038 820.454Z" fill="#2D7DDA"/>
<path d="M395.077 797.655C395.433 796.834 395.047 795.892 394.235 795.543C393.42 795.19 392.461 795.572 392.125 796.397C391.772 797.211 392.155 798.151 392.97 798.492C393.784 798.852 394.735 798.467 395.077 797.655Z" fill="#2D7DDA"/>
<path d="M689.325 829.223C690.363 828.622 691.538 827.985 692.839 827.336C689.686 828.865 687.22 830.394 685.404 831.611C686.478 830.932 687.777 830.133 689.325 829.223Z" fill="#2D7DDA"/>
<path d="M685.404 831.61C683.297 832.942 682.083 833.798 681.677 834.072C682.18 833.912 683.393 832.958 685.404 831.61Z" fill="#2D7DDA"/>
<path d="M681.678 834.072C681.649 834.082 681.612 834.098 681.587 834.102C681.472 834.206 681.506 834.19 681.678 834.072Z" fill="#2D7DDA"/>
</svg>
